SplineFontDB: 3.0
FontName: Sahel-Bold
FullName: Sahel Bold
FamilyName: Sahel
Weight: Bold
Copyright: Copyright (c) 2016 by Saber Rastikerdar. All Rights Reserved.\nBased on DejaVu font.\nNon-Arabic(latin) glyphs and data are imported from Open Sans font under the Apache License, Version 2.0.
Version: 1.0.0-alpha12
ItalicAngle: 0
UnderlinePosition: -500
UnderlineWidth: 100
Ascent: 1638
Descent: 410
InvalidEm: 0
LayerCount: 2
Layer: 0 1 "Back" 1
Layer: 1 1 "Fore" 0
XUID: [1021 502 1027637223 12353010]
UniqueID: 4005534
UseUniqueID: 1
FSType: 0
OS2Version: 1
OS2_WeightWidthSlopeOnly: 0
OS2_UseTypoMetrics: 1
CreationTime: 1431850356
ModificationTime: 1513621755
PfmFamily: 33
TTFWeight: 700
TTFWidth: 5
LineGap: 0
VLineGap: 0
Panose: 2 11 6 3 3 8 4 2 2 4
OS2TypoAscent: 2200
OS2TypoAOffset: 0
OS2TypoDescent: -1000
OS2TypoDOffset: 0
OS2TypoLinegap: 0
OS2WinAscent: 2200
OS2WinAOffset: 0
OS2WinDescent: 1000
OS2WinDOffset: 0
HheadAscent: 2200
HheadAOffset: 0
HheadDescent: -1000
HheadDOffset: 0
OS2SubXSize: 1331
OS2SubYSize: 1433
OS2SubXOff: 0
OS2SubYOff: 286
OS2SupXSize: 1331
OS2SupYSize: 1433
OS2SupXOff: 0
OS2SupYOff: 983
OS2StrikeYSize: 102
OS2StrikeYPos: 530
OS2CapHeight: 1638
OS2XHeight: 1082
OS2Vendor: '    '
OS2CodePages: 00000041.20080000
OS2UnicodeRanges: 8000200f.80000000.00000008.00000000
Lookup: 1 9 0 "'fina' Terminal Forms in Arabic lookup 9" { "'fina' Terminal Forms in Arabic lookup 9 subtable"  } ['fina' ('arab' <'KUR ' 'SND ' 'URD ' 'dflt' > ) ]
Lookup: 1 9 0 "'medi' Medial Forms in Arabic lookup 11" { "'medi' Medial Forms in Arabic lookup 11 subtable"  } ['medi' ('arab' <'KUR ' 'SND ' 'URD ' 'dflt' > ) ]
Lookup: 1 9 0 "'init' Initial Forms in Arabic lookup 13" { "'init' Initial Forms in Arabic lookup 13 subtable"  } ['init' ('arab' <'KUR ' 'SND ' 'URD ' 'dflt' > ) ]
Lookup: 4 1 1 "'rlig' Required Ligatures in Arabic lookup 14" { "'rlig' Required Ligatures in Arabic lookup 14 subtable"  } ['rlig' ('arab' <'KUR ' 'dflt' > ) ]

StartChar: afii57388
Encoding: 1548 1548 2
Width: 747
VWidth: 3395
GlyphClass: 2
Flags: W
LayerCount: 2
Fore
SplineSet
361.768554688 348.022460938 m 1,0,1
 463.129882812 332.797851562 463.129882812 332.797851562 498.432617188 275.934570312 c 0,2,3
 528.196289062 228.265625 528.196289062 228.265625 528.399414062 180.0546875 c 0,4,5
 528.194335938 6.146484375 528.194335938 6.146484375 359.6640625 4.2666015625 c 0,6,7
 160.198242188 2.1337890625 160.198242188 2.1337890625 180.82421875 244.2265625 c 0,8,9
 203.931640625 520.530273438 203.931640625 520.530273438 500.436523438 702.393554688 c 0,10,11
 548.462890625 731.728515625 548.462890625 731.728515625 567.543945312 706.612304688 c 0,12,13
 585.795898438 680.529296875 585.795898438 680.529296875 555.8359375 658.154296875 c 0,14,15
 417.263671875 553.596679688 417.263671875 553.596679688 373.588867188 426.075195312 c 0,16,17
 360.73046875 389.331054688 360.73046875 389.331054688 361.768554688 348.022460938 c 1,0,1
EndSplineSet
EndChar

StartChar: uni0615
Encoding: 1557 1557 3
Width: 0
VWidth: 3443
GlyphClass: 4
Flags: W
AnchorPoint: "Anchor-10" 718.381 1977.45 mark 0
AnchorPoint: "Anchor-9" 718.381 1977.45 mark 0
AnchorPoint: "Anchor-1" 550.381 2842.63 basemark 0
AnchorPoint: "Anchor-1" 718.381 1977.45 mark 0
LayerCount: 2
Fore
SplineSet
696.004882812 2135.57226562 m 5,0,-1
 777.061523438 2135.57226562 l 6,1,2
 968.041851297 2135.51387015 968.041851297 2135.51387015 1034.14648438 2210.09667969 c 4,3,4
 1061.35071234 2240.07968044 1061.35071234 2240.07968044 1061.35071234 2279.40010445 c 4,5,6
 1061.35071234 2355.58604619 1061.35071234 2355.58604619 988.940469502 2355.58604619 c 4,7,8
 986.249215406 2355.58604619 986.249215406 2355.58604619 983.454101562 2355.49511719 c 4,9,10
 929.795811237 2354.21059649 929.795811237 2354.21059649 853.915972025 2291.99738809 c 132,-1,11
 778.036132812 2229.78417969 778.036132812 2229.78417969 711.391601562 2153.24316406 c 6,12,-1
 696.004882812 2135.57226562 l 5,0,-1
1160.86230469 2190.74902344 m 4,13,14
 1093.15629156 2016.40245902 1093.15629156 2016.40245902 727.262695312 2016.17675781 c 6,15,-1
 413.799804688 2015.98339844 l 5,16,-1
 351.418945312 2135.57226562 l 5,17,-1
 494.572265625 2135.57226562 l 5,18,-1
 494.572265625 2806.609375 l 5,19,-1
 615.650390625 2806.609375 l 5,20,-1
 615.650390625 2208.01660156 l 5,21,-1
 634.849609375 2233.60644531 l 6,22,23
 830.192474014 2493.58705629 830.192474014 2493.58705629 998.96484375 2492.22949219 c 4,24,25
 1183 2489 1183 2489 1183.30985113 2300.26680843 c 4,26,27
 1183 2248 1183 2248 1160.86230469 2190.74902344 c 4,13,14
EndSplineSet
EndChar

StartChar: uni061B
Encoding: 1563 1563 4
Width: 748
VWidth: 3395
GlyphClass: 2
Flags: W
LayerCount: 2
Fore
SplineSet
181.864257812 175.999023438 m 128,-1,1
 181.864257812 249.598632812 181.864257812 249.598632812 233.064453125 300.797851562 c 128,-1,2
 284.263671875 351.998046875 284.263671875 351.998046875 357.86328125 351.998046875 c 128,-1,3
 431.462890625 351.998046875 431.462890625 351.998046875 482.663085938 300.797851562 c 128,-1,4
 533.862304688 249.598632812 533.862304688 249.598632812 533.862304688 175.999023438 c 128,-1,5
 533.862304688 102.399414062 533.862304688 102.399414062 482.663085938 51.19921875 c 128,-1,6
 431.462890625 0 431.462890625 0 357.86328125 0 c 128,-1,7
 284.263671875 0 284.263671875 0 233.064453125 51.19921875 c 128,-1,0
 181.864257812 102.399414062 181.864257812 102.399414062 181.864257812 175.999023438 c 128,-1,1
361.03515625 900.762695312 m 1,8,9
 462.396484375 885.328125 462.396484375 885.328125 497.69921875 828.674804688 c 0,10,11
 527.462890625 780.794921875 527.462890625 780.794921875 527.666015625 732.795898438 c 0,12,13
 527.462890625 558.9296875 527.462890625 558.9296875 358.9296875 557.006835938 c 0,14,15
 159.46484375 554.663085938 159.46484375 554.663085938 180.090820312 796.966796875 c 0,16,17
 203.198242188 1068.79296875 203.198242188 1068.79296875 499.703125 1255.13378906 c 0,18,19
 547.728515625 1285.32519531 547.728515625 1285.32519531 566.810546875 1259.35253906 c 0,20,21
 585.0625 1234.12597656 585.0625 1234.12597656 555.102539062 1210.89453125 c 0,22,23
 416.529296875 1106.12597656 416.529296875 1106.12597656 372.85546875 978.815429688 c 0,24,25
 359.997070312 941.860351562 359.997070312 941.860351562 361.03515625 900.762695312 c 1,8,9
EndSplineSet
EndChar

StartChar: uni061F
Encoding: 1567 1567 5
Width: 1025
VWidth: 3386
GlyphClass: 2
Flags: W
LayerCount: 2
Fore
SplineSet
431.596679688 175.999023438 m 128,-1,1
 431.596679688 249.598632812 431.596679688 249.598632812 482.796875 300.797851562 c 128,-1,2
 533.99609375 351.998046875 533.99609375 351.998046875 607.595703125 351.998046875 c 128,-1,3
 681.1953125 351.998046875 681.1953125 351.998046875 732.39453125 300.797851562 c 128,-1,4
 783.594726562 249.598632812 783.594726562 249.598632812 783.594726562 175.999023438 c 128,-1,5
 783.594726562 102.399414062 783.594726562 102.399414062 732.39453125 51.19921875 c 128,-1,6
 681.1953125 0 681.1953125 0 607.595703125 0 c 128,-1,7
 533.99609375 0 533.99609375 0 482.796875 51.19921875 c 128,-1,0
 431.596679688 102.399414062 431.596679688 102.399414062 431.596679688 175.999023438 c 128,-1,1
800.770507812 1051.56054688 m 1,8,9
 775 1260 775 1260 564.94140625 1260.49414062 c 0,10,11
 446 1261 446 1261 398.680664062 1188.42285156 c 0,12,13
 349 1113 349 1113 383.967773438 1030.83984375 c 0,14,15
 417.840698062 949.383085301 417.840698062 949.383085301 503.33203125 891.262695312 c 2,16,-1
 561.033203125 852.03515625 l 2,17,18
 724.127929688 740.91283689 724.127929688 740.91283689 724.127929688 584.729492188 c 6,19,-1
 724.127929688 575.893554688 l 6,20,21
 724.000450798 554.077148438 724.000450798 554.077148438 682.794921875 554.077148438 c 2,22,-1
 549.818359375 554.077148438 l 2,23,24
 499.86328125 553.999788278 499.86328125 553.999788278 499.86328125 574.575195312 c 6,25,-1
 499.86328125 585.87109375 l 6,26,27
 500.000240103 660.130184101 500.000240103 660.130184101 356.7421875 769.961914062 c 2,28,-1
 272.9140625 834.23046875 l 2,29,30
 101 966 101 966 100.279296875 1135.76660156 c 0,31,32
 100 1359 100 1359 286.998046875 1466.32421875 c 0,33,34
 384 1522 384 1522 523.334960938 1522.16601562 c 0,35,36
 740 1522 740 1522 853.723632812 1362.24707031 c 0,37,38
 922 1266 922 1266 922.103515625 1132.51757812 c 0,39,40
 922 1086 922 1086 919.125 1052.41894531 c 1,41,-1
 800.770507812 1051.56054688 l 1,8,9
EndSplineSet
EndChar

StartChar: uni0621
Encoding: 1569 1569 6
Width: 891
VWidth: 3747
GlyphClass: 2
Flags: W
AnchorPoint: "Anchor-7" 460.756 -80.821 basechar 0
AnchorPoint: "Anchor-10" 436.642 1214.14 basechar 0
LayerCount: 2
Fore
SplineSet
688.190429688 529.677734375 m 1,0,1
 587.652497915 579.664349931 587.652497915 579.664349931 500.151507753 574.225393924 c 0,2,3
 396 568 396 568 336.701171875 487.94921875 c 0,4,5
 325 472 325 472 325.657226562 456.034179688 c 24,6,7
 328 420 328 420 395.338728717 373.764537422 c 0,8,9
 461 330 461 330 484.446289062 318.86328125 c 1,10,11
 526.331093763 320.918124468 526.331093763 320.918124468 625.3125 346.05859375 c 2,12,-1
 726.532226562 371.767578125 l 2,13,14
 732 373 732 373 737.286525227 374.679051838 c 0,15,16
 781 387 781 387 787.091520645 380.665058469 c 0,17,18
 801 366 801 366 797.230634844 346.633594532 c 0,19,20
 794 327 794 327 793.139648438 322.3125 c 2,21,-1
 776.399414062 205.590820312 l 1,22,-1
 89.7587890625 16.6728515625 l 1,23,-1
 166.24609375 223.086914062 l 1,24,-1
 253.479492188 247.227539062 l 1,25,-1
 240.823242188 260.1484375 l 2,26,27
 123 381 123 381 184.891601562 569.9921875 c 0,28,29
 231 712 231 712 369.389208108 761.913315575 c 0,30,31
 423.13397349 781.474987056 423.13397349 781.474987056 479 782.065544854 c 0,32,33
 628.699655451 783.648014639 628.699655451 783.648014639 732.28515625 682.68359375 c 1,34,35
 723 633 723 633 688.190429688 529.677734375 c 1,0,1
EndSplineSet
EndChar

StartChar: uni0627
Encoding: 1575 1575 12
Width: 545
VWidth: 3713
GlyphClass: 2
Flags: W
AnchorPoint: "Anchor-10" 254.382 1620.05 basechar 0
AnchorPoint: "Anchor-7" 264.03 -216.376 basechar 0
LayerCount: 2
Fore
SplineSet
174.674804688 -4.6689453125 m 2,0,1
 174.589058467 443.569652102 174.589058467 443.569652102 158.782503883 744 c 0,2,3
 139 1120 139 1120 101.19921875 1365.72558594 c 1,4,-1
 318.797851562 1496.22949219 l 2,5,6
 345 1512 345 1512 359.788085938 1511.6171875 c 0,7,8
 383 1512 383 1512 383.848632812 1477.99023438 c 0,9,10
 399 1017 399 1017 399.37890625 793.133789062 c 0,11,12
 399 139 399 139 354.762695312 50.1328125 c 0,13,14
 321 -17 321 -17 190.677734375 -15.1103515625 c 0,15,16
 183 -15 183 -15 174.676757812 -14.87890625 c 1,17,-1
 174.674804688 -4.6689453125 l 2,0,1
EndSplineSet
Substitution2: "'fina' Terminal Forms in Arabic lookup 9 subtable" uniFE8E
EndChar

StartChar: uni062D
Encoding: 1581 1581 18
Width: 1316
VWidth: 3747
GlyphClass: 2
Flags: W
AnchorPoint: "Anchor-7" 603.069 -834.974 basechar 0
AnchorPoint: "Anchor-10" 604.639 1260.69 basechar 0
LayerCount: 2
Fore
SplineSet
1149.859375 486.396484375 m 1,0,1
 844 445 844 445 644.262695312 343.46484375 c 0,2,3
 313 176 313 176 312.967773438 -83.244140625 c 0,4,5
 313 -358 313 -358 775.9453125 -357.999023438 c 0,6,7
 941 -358 941 -358 1062.21582031 -342.524414062 c 0,8,9
 1210 -324 1210 -324 1213.11816406 -323.709960938 c 0,10,11
 1238 -322 1238 -322 1222.84765625 -354.931640625 c 0,12,13
 1111 -587 1111 -587 1051.47753906 -625.091796875 c 0,14,15
 1014 -649 1014 -649 780.87109375 -649.381835938 c 0,16,17
 445 -649 445 -649 287.336914062 -501.037109375 c 0,18,19
 127 -351 127 -351 127.255859375 -105.077148438 c 0,20,21
 127 311 127 311 456.290039062 512.55859375 c 0,22,23
 595 597 595 597 718.928710938 619.729492188 c 1,24,25
 715 620 715 620 620.262695312 641.595703125 c 0,26,27
 471 676 471 676 400.891601562 676.16796875 c 0,28,29
 303 676 303 676 202.727539062 557.0390625 c 1,30,31
 146 592 146 592 89.8544921875 628.354492188 c 1,32,33
 131 734 131 734 196.84375 812.190429688 c 0,34,35
 300 935 300 935 428.663085938 935.099609375 c 0,36,37
 505 935 505 935 995.850585938 787.891601562 c 0,38,39
 1089 760 1089 760 1233.22851562 757.337890625 c 0,40,41
 1251.48036655 756.990866753 1251.48036655 756.990866753 1245.59863281 741.329101562 c 2,42,-1
 1149.859375 486.396484375 l 1,0,1
EndSplineSet
Substitution2: "'fina' Terminal Forms in Arabic lookup 9 subtable" uniFEA2
Substitution2: "'medi' Medial Forms in Arabic lookup 11 subtable" uniFEA4
Substitution2: "'init' Initial Forms in Arabic lookup 13 subtable" uniFEA3
EndChar

StartChar: uni062F
Encoding: 1583 1583 20
Width: 1020
VWidth: 3745
GlyphClass: 2
Flags: W
AnchorPoint: "Anchor-10" 445.728 1381.38 basechar 0
AnchorPoint: "Anchor-7" 415.616 -217.16 basechar 0
LayerCount: 2
Fore
SplineSet
425.060546875 -0.2041015625 m 0,0,1
 89 0 89 0 87.26171875 319.416015625 c 0,2,3
 87 365 87 365 109.764648438 459.969726562 c 1,4,-1
 223.926757812 447.481445312 l 1,5,-1
 225.02734375 418.547851562 l 2,6,7
 229 326 229 326 442.375 326.626953125 c 0,8,9
 761 327 761 327 760.097224774 401.294589376 c 0,10,11
 760 409 760 409 756.749023438 418.086914062 c 0,12,13
 685 592 685 592 320.53125 839.4609375 c 1,14,-1
 415.962890625 1074.12695312 l 2,15,16
 425 1097 425 1097 440.93359375 1097.11523438 c 0,17,18
 452.968386886 1097.87221317 452.968386886 1097.87221317 477.426757812 1078.39355469 c 0,19,20
 940 730 940 730 939.780763902 409.641481002 c 0,21,22
 940 -0 940 -0 425.060546875 -0.2041015625 c 0,0,1
EndSplineSet
Substitution2: "'fina' Terminal Forms in Arabic lookup 9 subtable" uniFEAA
EndChar

StartChar: uni0631
Encoding: 1585 1585 22
Width: 795
VWidth: 3518
GlyphClass: 2
Flags: W
AnchorPoint: "Anchor-7" 371.78 -711.673 basechar 0
AnchorPoint: "Anchor-10" 462.877 1093.88 basechar 0
LayerCount: 2
Fore
SplineSet
718.553710938 65 m 8,0,1
 684 -241 684 -241 467.24609375 -456 c 0,2,3
 417.880133751 -503.543952606 417.880133751 -503.543952606 380 -512.116210938 c 0,4,5
 357.776989644 -517.145268832 357.776989644 -517.145268832 310.714756751 -517.145268832 c 0,6,7
 142.082088238 -517.145268832 142.082088238 -517.145268832 0 -485 c 0,8,9
 -30 -478 -30 -478 -31.5068359375 -454.291992188 c 0,10,11
 -31.5110089214 -454.171058289 -31.5110089214 -454.171058289 -31.5110089214 -454.0484583 c 0,12,13
 -31.5110089214 -439.682167368 -31.5110089214 -439.682167368 25.7890625 -402.438476562 c 0,14,15
 459 -119 459 -119 547.921875 70.3623046875 c 0,16,17
 550.34220072 75.7750331169 550.34220072 75.7750331169 550.34220072 83.4159223783 c 0,18,19
 550.34220072 154.307659961 550.34220072 154.307659961 342 417 c 1,20,-1
 513.434570312 652 l 2,21,22
 516.389013672 656.05 516.389013672 656.05 520.089187012 656.05 c 0,23,24
 524.611621094 656.05 524.611621094 656.05 530.248046875 650 c 0,25,26
 724.127341934 441.373139933 724.127341934 441.373139933 724.127341934 161.832191354 c 0,27,28
 724.127341934 114.435412778 724.127341934 114.435412778 718.553710938 65 c 8,0,1
EndSplineSet
PairPos2: "'kern' Horizontal Kerning lookup 15-1" uniFBFE dx=53 dy=0 dh=53 dv=0 dx=0 dy=0 dh=0 dv=0
PairPos2: "'kern' Horizontal Kerning lookup 15-1" uniFEF3 dx=53 dy=0 dh=53 dv=0 dx=0 dy=0 dh=0 dv=0
PairPos2: "'kern' Horizontal Kerning lookup 15-1" uniFB58 dx=53 dy=0 dh=53 dv=0 dx=0 dy=0 dh=0 dv=0
PairPos2: "'kern' Horizontal Kerning lookup 15-1" uniFB8A dx=-43 dy=0 dh=-43 dv=0 dx=0 dy=0 dh=0 dv=0
PairPos2: "'kern' Horizontal Kerning lookup 15-1" afii57508 dx=-43 dy=0 dh=-43 dv=0 dx=0 dy=0 dh=0 dv=0
PairPos2: "'kern' Horizontal Kerning lookup 15-4" uni0621 dx=-196 dy=0 dh=-196 dv=0 dx=0 dy=0 dh=0 dv=0
PairPos2: "'kern' Horizontal Kerning lookup 15-3" uni0648 dx=-43 dy=0 dh=-43 dv=0 dx=0 dy=0 dh=0 dv=0
PairPos2: "'kern' Horizontal Kerning lookup 15-1" uni0632 dx=-43 dy=0 dh=-43 dv=0 dx=0 dy=0 dh=0 dv=0
PairPos2: "'kern' Horizontal Kerning lookup 15-1" uni0631 dx=-43 dy=0 dh=-43 dv=0 dx=0 dy=0 dh=0 dv=0
PairPos2: "'kern' Horizontal Kerning lookup 15-1" uni06CC dx=-43 dy=0 dh=-43 dv=0 dx=0 dy=0 dh=0 dv=0
PairPos2: "'kern' Horizontal Kerning lookup 15-1" uniFEEB dx=-128 dy=0 dh=-128 dv=0 dx=0 dy=0 dh=0 dv=0
PairPos2: "'kern' Horizontal Kerning lookup 15-1" uniFB7C dx=-115 dy=0 dh=-115 dv=0 dx=0 dy=0 dh=0 dv=0
PairPos2: "'kern' Horizontal Kerning lookup 15-1" uniFEDF dx=-128 dy=0 dh=-128 dv=0 dx=0 dy=0 dh=0 dv=0
PairPos2: "'kern' Horizontal Kerning lookup 15-1" uniFB90 dx=-196 dy=0 dh=-196 dv=0 dx=0 dy=0 dh=0 dv=0
PairPos2: "'kern' Horizontal Kerning lookup 15-1" uni06A9 dx=-196 dy=0 dh=-196 dv=0 dx=0 dy=0 dh=0 dv=0
PairPos2: "'kern' Horizontal Kerning lookup 15-1" uni0649 dx=-43 dy=0 dh=-43 dv=0 dx=0 dy=0 dh=0 dv=0
PairPos2: "'kern' Horizontal Kerning lookup 15-1" uni0647 dx=-128 dy=0 dh=-128 dv=0 dx=0 dy=0 dh=0 dv=0
PairPos2: "'kern' Horizontal Kerning lookup 15-1" uniFEE7 dx=-128 dy=0 dh=-128 dv=0 dx=0 dy=0 dh=0 dv=0
PairPos2: "'kern' Horizontal Kerning lookup 15-1" uniFEE3 dx=-128 dy=0 dh=-128 dv=0 dx=0 dy=0 dh=0 dv=0
PairPos2: "'kern' Horizontal Kerning lookup 15-1" uni0645 dx=-128 dy=0 dh=-128 dv=0 dx=0 dy=0 dh=0 dv=0
PairPos2: "'kern' Horizontal Kerning lookup 15-1" uni0644 dx=-43 dy=0 dh=-43 dv=0 dx=0 dy=0 dh=0 dv=0
PairPos2: "'kern' Horizontal Kerning lookup 15-1" uniFEDB dx=-196 dy=0 dh=-196 dv=0 dx=0 dy=0 dh=0 dv=0
PairPos2: "'kern' Horizontal Kerning lookup 15-1" uniFED7 dx=-128 dy=0 dh=-128 dv=0 dx=0 dy=0 dh=0 dv=0
PairPos2: "'kern' Horizontal Kerning lookup 15-1" uni0642 dx=-43 dy=0 dh=-43 dv=0 dx=0 dy=0 dh=0 dv=0
PairPos2: "'kern' Horizontal Kerning lookup 15-1" uniFED3 dx=-128 dy=0 dh=-128 dv=0 dx=0 dy=0 dh=0 dv=0
PairPos2: "'kern' Horizontal Kerning lookup 15-1" uni0641 dx=-128 dy=0 dh=-128 dv=0 dx=0 dy=0 dh=0 dv=0
PairPos2: "'kern' Horizontal Kerning lookup 15-1" uniFECF dx=-128 dy=0 dh=-128 dv=0 dx=0 dy=0 dh=0 dv=0
PairPos2: "'kern' Horizontal Kerning lookup 15-1" uniFECB dx=-128 dy=0 dh=-128 dv=0 dx=0 dy=0 dh=0 dv=0
PairPos2: "'kern' Horizontal Kerning lookup 15-1" uniFEC7 dx=-128 dy=0 dh=-128 dv=0 dx=0 dy=0 dh=0 dv=0
PairPos2: "'kern' Horizontal Kerning lookup 15-1" uni0638 dx=-128 dy=0 dh=-128 dv=0 dx=0 dy=0 dh=0 dv=0
PairPos2: "'kern' Horizontal Kerning lookup 15-1" uniFEC3 dx=-128 dy=0 dh=-128 dv=0 dx=0 dy=0 dh=0 dv=0
PairPos2: "'kern' Horizontal Kerning lookup 15-1" uni0637 dx=-128 dy=0 dh=-128 dv=0 dx=0 dy=0 dh=0 dv=0
PairPos2: "'kern' Horizontal Kerning lookup 15-1" uniFEBF dx=-128 dy=0 dh=-128 dv=0 dx=0 dy=0 dh=0 dv=0
PairPos2: "'kern' Horizontal Kerning lookup 15-1" uni0636 dx=-128 dy=0 dh=-128 dv=0 dx=0 dy=0 dh=0 dv=0
PairPos2: "'kern' Horizontal Kerning lookup 15-1" uniFEBB dx=-128 dy=0 dh=-128 dv=0 dx=0 dy=0 dh=0 dv=0
PairPos2: "'kern' Horizontal Kerning lookup 15-1" uni0635 dx=-128 dy=0 dh=-128 dv=0 dx=0 dy=0 dh=0 dv=0
PairPos2: "'kern' Horizontal Kerning lookup 15-1" uniFEB7 dx=-128 dy=0 dh=-128 dv=0 dx=0 dy=0 dh=0 dv=0
PairPos2: "'kern' Horizontal Kerning lookup 15-1" uni0634 dx=-128 dy=0 dh=-128 dv=0 dx=0 dy=0 dh=0 dv=0
PairPos2: "'kern' Horizontal Kerning lookup 15-1" uniFEB3 dx=-128 dy=0 dh=-128 dv=0 dx=0 dy=0 dh=0 dv=0
PairPos2: "'kern' Horizontal Kerning lookup 15-1" uni0633 dx=-128 dy=0 dh=-128 dv=0 dx=0 dy=0 dh=0 dv=0
PairPos2: "'kern' Horizontal Kerning lookup 15-1" uni0630 dx=-128 dy=0 dh=-128 dv=0 dx=0 dy=0 dh=0 dv=0
PairPos2: "'kern' Horizontal Kerning lookup 15-1" uni062F dx=-128 dy=0 dh=-128 dv=0 dx=0 dy=0 dh=0 dv=0
PairPos2: "'kern' Horizontal Kerning lookup 15-1" uniFEA7 dx=-128 dy=0 dh=-128 dv=0 dx=0 dy=0 dh=0 dv=0
PairPos2: "'kern' Horizontal Kerning lookup 15-1" uniFEA3 dx=-128 dy=0 dh=-128 dv=0 dx=0 dy=0 dh=0 dv=0
PairPos2: "'kern' Horizontal Kerning lookup 15-1" uniFE9F dx=-128 dy=0 dh=-128 dv=0 dx=0 dy=0 dh=0 dv=0
PairPos2: "'kern' Horizontal Kerning lookup 15-1" uniFE9B dx=-128 dy=0 dh=-128 dv=0 dx=0 dy=0 dh=0 dv=0
PairPos2: "'kern' Horizontal Kerning lookup 15-1" uni062B dx=-128 dy=0 dh=-128 dv=0 dx=0 dy=0 dh=0 dv=0
PairPos2: "'kern' Horizontal Kerning lookup 15-1" uniFE97 dx=-128 dy=0 dh=-128 dv=0 dx=0 dy=0 dh=0 dv=0
PairPos2: "'kern' Horizontal Kerning lookup 15-1" uni062A dx=-128 dy=0 dh=-128 dv=0 dx=0 dy=0 dh=0 dv=0
PairPos2: "'kern' Horizontal Kerning lookup 15-1" uni0629 dx=-128 dy=0 dh=-128 dv=0 dx=0 dy=0 dh=0 dv=0
PairPos2: "'kern' Horizontal Kerning lookup 15-1" uniFE91 dx=-53 dy=0 dh=-53 dv=0 dx=0 dy=0 dh=0 dv=0
PairPos2: "'kern' Horizontal Kerning lookup 15-1" uni0628 dx=-128 dy=0 dh=-128 dv=0 dx=0 dy=0 dh=0 dv=0
PairPos2: "'kern' Horizontal Kerning lookup 15-1" uni0627 dx=-196 dy=0 dh=-196 dv=0 dx=0 dy=0 dh=0 dv=0
PairPos2: "'kern' Horizontal Kerning lookup 15-1" uni0622 dx=-196 dy=0 dh=-196 dv=0 dx=0 dy=0 dh=0 dv=0
PairPos2: "'kern' Horizontal Kerning lookup 15-1" uniFB94 dx=-210 dy=0 dh=-210 dv=0 dx=0 dy=0 dh=0 dv=0
PairPos2: "'kern' Horizontal Kerning lookup 15-1" afii57509 dx=-210 dy=0 dh=-210 dv=0 dx=0 dy=0 dh=0 dv=0
PairPos2: "'kern' Horizontal Kerning lookup 15-1" uniFB56 dx=-128 dy=0 dh=-128 dv=0 dx=0 dy=0 dh=0 dv=0
PairPos2: "'kern' Horizontal Kerning lookup 15-1" afii57506 dx=-128 dy=0 dh=-128 dv=0 dx=0 dy=0 dh=0 dv=0
Substitution2: "'fina' Terminal Forms in Arabic lookup 9 subtable" uniFEAE
EndChar

StartChar: uni0633
Encoding: 1587 1587 24
Width: 2375
VWidth: 3752
GlyphClass: 2
Flags: W
AnchorPoint: "Anchor-7" 620.413 -772.399 basechar 0
AnchorPoint: "Anchor-10" 1650.87 1127.42 basechar 0
LayerCount: 2
Fore
SplineSet
1303.99121094 363.197265625 m 0,0,1
 1345 326 1345 326 1415.58973119 326.375675887 c 0,2,3
 1590.41012639 325.999116597 1590.41012639 325.999116597 1606.07421875 482.458007812 c 2,4,-1
 1620.86425781 630.186523438 l 1,5,-1
 1763.29492188 630.186523438 l 1,6,-1
 1777.69824219 492.244140625 l 2,7,8
 1795 323 1795 323 1951.29980469 322.654296875 c 0,9,10
 2056 323 2056 323 2075.97558594 397.553710938 c 0,11,12
 2081 417 2081 417 2081.29785156 438.212890625 c 0,13,14
 2081 465 2081 465 2072.86035156 493.129882812 c 0,15,16
 2051 562 2051 562 1993.53125 688.560546875 c 1,17,-1
 2139.43945312 874.159179688 l 2,18,19
 2155 894 2155 894 2168.37597656 893.580078125 c 0,20,21
 2182 894 2182 894 2194.06347656 874.159179688 c 0,22,23
 2294 706 2294 706 2294.32910156 536.028320312 c 0,24,25
 2294 292 2294 292 2175.55664062 137.94140625 c 0,26,27
 2070 -1 2070 -1 1952.80273438 -0.5712890625 c 0,28,29
 1762 -1 1762 -1 1679.7578125 164.436523438 c 1,30,31
 1591 -1 1591 -1 1455.56924142 -0.395769631739 c 0,32,33
 1387 -0 1387 -0 1311.94921875 46.9755859375 c 1,34,35
 1301 -261 1301 -261 1090.52734375 -417.408203125 c 0,36,37
 931 -535 931 -535 679.056640625 -535.459960938 c 0,38,39
 368 -535 368 -535 224.629882812 -380.759765625 c 0,40,41
 90 -235 90 -235 89.7646484375 -2.623046875 c 0,42,43
 90 195 90 195 199.502929688 438.203125 c 1,44,-1
 337.973632812 399.137695312 l 1,45,46
 286 228 286 228 285.984375 105.047851562 c 0,47,48
 286 -30 286 -30 348.420898438 -106.60546875 c 0,49,50
 452 -235 452 -235 676.247635912 -234.625247345 c 0,51,52
 990 -235 990 -235 1099.61328125 -64.3388671875 c 0,53,54
 1143.78487261 4.65531069054 1143.78487261 4.65531069054 1121.35839844 79.0244140625 c 0,55,56
 1078 222 1078 222 998.926757812 360.258789062 c 1,57,-1
 1137.91113281 568.529296875 l 2,58,59
 1157.11044732 598.170516158 1157.11044732 598.170516158 1178.14648438 557.86328125 c 2,60,-1
 1198.54003906 518.787109375 l 2,61,62
 1258 405 1258 405 1303.99121094 363.197265625 c 0,0,1
EndSplineSet
Substitution2: "'fina' Terminal Forms in Arabic lookup 9 subtable" uniFEB2
Substitution2: "'medi' Medial Forms in Arabic lookup 11 subtable" uniFEB4
Substitution2: "'init' Initial Forms in Arabic lookup 13 subtable" uniFEB3
EndChar

StartChar: uni0635
Encoding: 1589 1589 26
Width: 2615
VWidth: 3753
GlyphClass: 2
Flags: W
AnchorPoint: "Anchor-7" 618.28 -769.066 basechar 0
AnchorPoint: "Anchor-10" 2142.87 1205.42 basechar 0
LayerCount: 2
Fore
SplineSet
1099.61328125 -64.3388671875 m 0,0,1
 1144.12105863 3.61251070042 1144.12105863 3.61251070042 1121.37597656 78.9365234375 c 0,2,3
 1082 219 1082 219 997.860351562 360.258789062 c 1,4,-1
 1138.49707031 569.596679688 l 2,5,6
 1157.11421008 598.175320647 1157.11421008 598.175320647 1176.48535156 559.99609375 c 2,7,-1
 1202.79199219 508.147460938 l 2,8,9
 1292.13795255 332.729149437 1292.13795255 332.729149437 1427.72460938 327.46484375 c 2,10,-1
 1444.92871094 326.796875 l 1,11,12
 1560 483 1560 483 1642.6640625 574.223632812 c 0,13,14
 1932 892 1932 892 2193.92595602 891.555310661 c 0,15,-1
 2194.66113281 891.5546875 l 0,16,17
 2409 891 2409 891 2498.09570312 725.489257812 c 0,18,19
 2521 683 2521 683 2529.1484375 627.595703125 c 0,20,21
 2535 588 2535 588 2534.90749095 549.243557347 c 0,22,23
 2535 415 2535 415 2464.80761719 301.98046875 c 0,24,25
 2278.02508492 0.0405505770513 2278.02508492 0.0405505770513 1816.41601562 0.013671875 c 2,26,-1
 1581.61816406 0 l 2,27,28
 1415 -0 1415 -0 1311.87890625 44.2880859375 c 1,29,30
 1301 -261 1301 -261 1090.52734375 -417.408203125 c 0,31,32
 931 -535 931 -535 676.908902663 -535.461833076 c 0,33,34
 368 -535 368 -535 224.629882812 -380.759765625 c 0,35,36
 90 -235 90 -235 89.7646484375 -2.623046875 c 0,37,38
 90 195 90 195 199.502929688 438.203125 c 1,39,-1
 337.973632812 399.137695312 l 1,40,41
 286 228 286 228 285.984375 105.047851562 c 0,42,43
 286 -30 286 -30 348.420898438 -106.60546875 c 0,44,45
 452 -235 452 -235 677.563326552 -234.624150331 c 0,46,47
 990 -235 990 -235 1099.61328125 -64.3388671875 c 0,0,1
1606.83984375 326.057617188 m 1,48,-1
 1906.9453125 326.057617188 l 2,49,-1
 1907.66490877 326.057556732 l 0,50,51
 2250.06240445 326.057556732 2250.06240445 326.057556732 2309.47460938 380.854492188 c 0,52,53
 2338.86259006 407.595520255 2338.86259006 407.595520255 2338.86259006 448.306410577 c 0,54,55
 2338.86259006 459.579087231 2338.86259006 459.579087231 2336.609375 471.922851562 c 0,56,57
 2312.47217439 610.29318536 2312.47217439 610.29318536 2123.75968176 610.29318536 c 0,58,59
 1891.29573808 610.29318536 1891.29573808 610.29318536 1606.83984375 326.057617188 c 1,48,-1
EndSplineSet
Substitution2: "'fina' Terminal Forms in Arabic lookup 9 subtable" uniFEBA
Substitution2: "'medi' Medial Forms in Arabic lookup 11 subtable" uniFEBC
Substitution2: "'init' Initial Forms in Arabic lookup 13 subtable" uniFEBB
EndChar

StartChar: uni0637
Encoding: 1591 1591 28
Width: 1632
VWidth: 3753
GlyphClass: 2
Flags: W
AnchorPoint: "Anchor-10" 517.041 1610.66 basechar 0
AnchorPoint: "Anchor-7" 756.64 -211.868 basechar 0
LayerCount: 2
Fore
SplineSet
622.962890625 326.057617188 m 1,0,-1
 923.068359375 326.057617188 l 2,1,2
 1263.9921875 326.3984375 1263.9921875 326.3984375 1325.59765625 380.854492188 c 0,3,4
 1355.00888659 407.513767736 1355.00888659 407.513767736 1355.00888659 448.199054975 c 0,5,6
 1355.00888659 459.518138155 1355.00888659 459.518138155 1352.73242188 471.922851562 c 0,7,8
 1328.52105865 610.306264983 1328.52105865 610.306264983 1140.71923862 610.306264983 c 0,9,10
 907.912244896 610.306264983 907.912244896 610.306264983 622.962890625 326.057617188 c 1,0,-1
675.1953125 570.93359375 m 1,11,12
 971 892 971 892 1210.11984205 891.555304284 c 0,13,14
 1427 891 1427 891 1514.21875 725.489257812 c 0,15,16
 1551 656 1551 656 1551.3362764 547.822613955 c 0,17,18
 1551 415 1551 415 1480.93164062 301.98046875 c 0,19,20
 1292.0252927 0.0404267996403 1292.0252927 0.0404267996403 832.540039062 0.013671875 c 2,21,-1
 597.741210938 0 l 2,22,-1
 292.168945312 -0.7431640625 l 1,23,24
 162 132 162 132 99.9697265625 228.2421875 c 0,25,26
 79 261 79 261 79.3309162696 282.090393942 c 0,27,28
 79.0007816555 323.901005554 79.0007816555 323.901005554 157.869140625 323.922851562 c 2,29,-1
 464.594726562 324.0078125 l 1,30,31
 463 590 463 590 438.698242188 975.860351562 c 4,32,33
 422 1243 422 1243 396.797851562 1367.85839844 c 5,34,-1
 616.529296875 1496.36328125 l 6,35,36
 635 1507 635 1507 647.987304688 1507.44921875 c 4,37,38
 675.1953125 1506.99675197 675.1953125 1506.99675197 675.1953125 1456.92382812 c 6,39,-1
 675.1953125 570.93359375 l 1,11,12
EndSplineSet
Substitution2: "'fina' Terminal Forms in Arabic lookup 9 subtable" uniFEC2
Substitution2: "'medi' Medial Forms in Arabic lookup 11 subtable" uniFEC4
Substitution2: "'init' Initial Forms in Arabic lookup 13 subtable" uniFEC3
EndChar

StartChar: uni0639
Encoding: 1593 1593 30
Width: 1283
VWidth: 3747
GlyphClass: 2
Flags: W
AnchorPoint: "Anchor-7" 554.803 -847.774 basechar 0
AnchorPoint: "Anchor-10" 704.718 1483.34 basechar 0
LayerCount: 2
Fore
SplineSet
97.255859375 -105.077148438 m 24,0,1
 95 261 95 261 399.490234375 450.263671875 c 1,2,-1
 369.502929688 481.830078125 l 1,3,4
 268 601 268 601 268.370117188 739.821289062 c 0,5,6
 269 827 269 827 290.821289062 883.462890625 c 0,7,8
 367 1078 367 1078 539.729492188 1143.4375 c 0,9,10
 599 1166 599 1166 678.706054688 1166.04296875 c 0,11,12
 860 1166 860 1166 1024.90722656 1006.63574219 c 1,13,-1
 970.66015625 853.328125 l 1,14,15
 869 902 869 902 724.795898438 904.52734375 c 0,16,17
 572 907 572 907 500.263671875 839.4609375 c 0,18,19
 441 784 441 784 440.530273438 743.861328125 c 0,20,21
 440 687 440 687 533.330078125 621.329101562 c 0,22,23
 633 552 633 552 653.329101562 556.796875 c 0,24,25
 885.075573107 610.794513683 885.075573107 610.794513683 1088.04882812 617.970703125 c 0,26,27
 1117 619 1117 619 1124.28417969 606.857421875 c 0,28,29
 1129.82468709 596.333013649 1129.82468709 596.333013649 1123.953125 572.026367188 c 2,30,-1
 1060.90332031 311.017578125 l 1,31,32
 714 306 714 306 480.356445312 189.15625 c 0,33,34
 282 90 282 90 282.967773438 -83.244140625 c 16,35,36
 284 -358 284 -358 745.9453125 -357.999023438 c 0,37,38
 911 -358 911 -358 1032.21582031 -342.524414062 c 0,39,40
 1180 -324 1180 -324 1183.11816406 -323.709960938 c 0,41,42
 1208 -322 1208 -322 1192.84765625 -354.931640625 c 0,43,44
 1088 -582 1088 -582 1021.47753906 -625.091796875 c 0,45,46
 984 -649 984 -649 750.87109375 -649.381835938 c 0,47,48
 418 -649 418 -649 257.336914062 -498.037109375 c 0,49,50
 99 -350 99 -350 97.255859375 -105.077148438 c 24,0,1
369.502929688 481.830078125 m 1,51,-1
 369.663085938 481.643554688 l 1,52,-1
 369.502929688 481.830078125 l 1,51,-1
EndSplineSet
Substitution2: "'fina' Terminal Forms in Arabic lookup 9 subtable" uniFECA
Substitution2: "'medi' Medial Forms in Arabic lookup 11 subtable" uniFECC
Substitution2: "'init' Initial Forms in Arabic lookup 13 subtable" uniFECB
EndChar

StartChar: afii57440
Encoding: 1600 1600 32
Width: 245
VWidth: 3780
GlyphClass: 2
Flags: W
AnchorPoint: "Anchor-10" 131.433 931.41 basechar 0
AnchorPoint: "Anchor-7" 119.767 -224.603 basechar 0
LayerCount: 2
Fore
SplineSet
-4.9921875 0 m 2,0,1
 -60 0 -60 0 -60 124 c 2,2,-1
 -60 197 l 2,3,4
 -60 324.264648438 -60 324.264648438 -4.9921875 324.264648438 c 2,5,-1
 250 324.264648438 l 2,6,7
 275.0078125 323.999917297 275.0078125 323.999917297 275.0078125 197 c 2,8,-1
 275.0078125 124 l 2,9,10
 275 0 275 0 250 0 c 2,11,-1
 -4.9921875 0 l 2,0,1
EndSplineSet
EndChar

StartChar: uni0643
Encoding: 1603 1603 35
Width: 1979
VWidth: 3713
GlyphClass: 2
Flags: W
AnchorPoint: "Anchor-10" 963.587 1632.12 basechar 0
AnchorPoint: "Anchor-7" 797.161 -188.523 basechar 0
LayerCount: 2
Fore
SplineSet
850.345703125 0 m 0,0,1
 479 0 479 0 297.043945312 99.7861328125 c 0,2,3
 87 215 87 215 86.4306640625 489.08203125 c 0,4,5
 86 686 86 686 185.948242188 882.258789062 c 1,6,-1
 303.756835938 839.514648438 l 1,7,8
 271 721 271 721 271.442382812 634.133789062 c 0,9,10
 271 542 271 542 308.154296875 486.359375 c 0,11,12
 418 321 418 321 877.231445312 320.80078125 c 0,13,14
 1354 321 1354 321 1564.86230469 457.896484375 c 0,15,16
 1607 485 1607 485 1613.59570312 559.025390625 c 0,17,18
 1622.35381411 653.993144007 1622.35381411 653.993144007 1604.67285156 1001.01660156 c 0,19,20
 1590 1289 1590 1289 1577.45703125 1377.85839844 c 1,21,-1
 1789.72167969 1506.08691406 l 2,22,23
 1840.23242187 1537.12253848 1840.23242187 1537.12253848 1840.23242188 1467.99023438 c 2,24,-1
 1840.23242188 719.482421875 l 1,25,26
 1858 298 1858 298 1642.27734375 156.51953125 c 0,27,28
 1404 0 1404 0 850.345703125 0 c 0,0,1
185.948242188 882.258789062 m 1,29,-1
 303.756835938 839.514648438 l 1025,30,31
1188.62890625 831.897460938 m 0,32,33
 1084.11914062 665.220703125 1084.11914062 665.220703125 770.228515625 737.866210938 c 0,34,35
 744.010742188 743.932617188 744.010742188 743.932617188 705.485351562 756.251953125 c 1,36,-1
 721.161132812 916.826171875 l 1,37,38
 839.124023438 874.677734375 839.124023438 874.677734375 970.741210938 876.220703125 c 128,-1,39
 1102.35742188 877.764648438 1102.35742188 877.764648438 1111.640625 938.583984375 c 0,40,41
 1117.5390625 977.2890625 1117.5390625 977.2890625 983.55078125 1006.21875 c 0,42,43
 802.991210938 1045.30078125 802.991210938 1045.30078125 807.143554688 1221.62988281 c 0,44,45
 813.056640625 1413.23925781 813.056640625 1413.23925781 1133.56640625 1453.41308594 c 0,46,47
 1172.48632812 1459.50976562 1172.48632812 1459.50976562 1183.9296875 1442.45703125 c 128,-1,48
 1195.46484375 1425.27148438 1195.46484375 1425.27148438 1186.90625 1406.23632812 c 1,49,-1
 1148.17675781 1295.39550781 l 1,50,51
 1027.33203125 1283.44824219 1027.33203125 1283.44824219 966.467773438 1262.52246094 c 128,-1,52
 905.602539062 1241.59765625 905.602539062 1241.59765625 904.629882812 1204.53320312 c 0,53,54
 904.05859375 1181.92675781 904.05859375 1181.92675781 939.124023438 1168.46582031 c 128,-1,55
 974.189453125 1155.00292969 974.189453125 1155.00292969 1047.00195312 1142.28808594 c 0,56,57
 1214.73242188 1112.98632812 1214.73242188 1112.98632812 1218.22949219 949.673828125 c 0,58,59
 1219.92382812 881.813476562 1219.92382812 881.813476562 1188.62890625 831.897460938 c 0,32,33
EndSplineSet
Substitution2: "'fina' Terminal Forms in Arabic lookup 9 subtable" uniFEDA
Substitution2: "'medi' Medial Forms in Arabic lookup 11 subtable" uniFEDC
Substitution2: "'init' Initial Forms in Arabic lookup 13 subtable" uniFEDB
EndChar

StartChar: uni0644
Encoding: 1604 1604 36
Width: 1404
VWidth: 3753
GlyphClass: 2
Flags: W
AnchorPoint: "Anchor-10" 575.865 1013.21 basechar 0
AnchorPoint: "Anchor-7" 622.819 -732.816 basechar 0
LayerCount: 2
Fore
SplineSet
683.788085938 -208.20703125 m 0,0,1
 942 -208 942 -208 1031.80078125 -58.12109375 c 0,2,3
 1066 -1 1066 -1 1061.38085938 94.5751953125 c 0,4,5
 1044 456 1044 456 968.126953125 1359.19238281 c 1,6,-1
 1169 1484.43847656 l 2,7,8
 1248.52804256 1533.70761338 1248.52804256 1533.70761338 1250.28613281 1440 c 2,9,-1
 1275.49902344 96.1328125 l 2,10,11
 1280 -151 1280 -151 1145.51171875 -322.198242188 c 0,12,13
 999 -509 999 -509 681.234375 -509.056640625 c 0,14,15
 368 -509 368 -509 224.629882812 -354.358398438 c 0,16,17
 90 -208 90 -208 89.7646484375 23.7783203125 c 0,18,19
 90 221 90 221 199.502929688 464.604492188 c 1,20,-1
 337.973632812 425.5390625 l 1,21,22
 286 254 286 254 285.984375 131.44921875 c 0,23,24
 286 -3 286 -3 348.420898438 -80.2041015625 c 0,25,26
 453 -208 453 -208 683.788085938 -208.20703125 c 0,0,1
EndSplineSet
Substitution2: "'fina' Terminal Forms in Arabic lookup 9 subtable" uniFEDE
Substitution2: "'medi' Medial Forms in Arabic lookup 11 subtable" uniFEE0
Substitution2: "'init' Initial Forms in Arabic lookup 13 subtable" uniFEDF
EndChar

StartChar: uni0645
Encoding: 1605 1605 37
Width: 1169
VWidth: 3783
GlyphClass: 2
Flags: W
AnchorPoint: "Anchor-10" 638.993 1257.53 basechar 0
AnchorPoint: "Anchor-7" 248.265 -846.432 basechar 0
LayerCount: 2
Fore
SplineSet
306.05859375 89.890625 m 1,0,-1
 321.46484375 -417.46484375 l 2,1,2
 321.59822732 -421.362837832 321.59822732 -421.362837832 321.59822732 -425.266424057 c 0,3,4
 321.59822732 -554.088131729 321.59822732 -554.088131729 176.3359375 -689 c 0,5,6
 150.550010257 -713.020639268 150.550010257 -713.020639268 134.686915326 -713.020639268 c 0,7,8
 111.567939519 -713.020639268 111.567939519 -713.020639268 109.525390625 -662 c 2,9,-1
 95.9599609375 -323.150390625 l 2,10,11
 91.5986172535 -213.132254555 91.5986172535 -213.132254555 91.5986172535 -125.690334403 c 0,12,13
 91.5986172535 66.7552934275 91.5986172535 66.7552934275 112.723632812 149.848632812 c 0,14,15
 160 333 160 333 334.247070312 398.030273438 c 1,16,17
 394 627 394 627 482.455078125 739.1953125 c 0,18,19
 579.581694229 862.469083431 579.581694229 862.469083431 700.817577939 862.469083431 c 0,20,21
 959.591431517 862.469083431 959.591431517 862.469083431 1076.22779627 500 c 0,22,23
 1097.06834518 435.234138351 1097.06834518 435.234138351 1088.31691518 376 c 0,24,25
 1078.82504787 311.754204622 1078.82504787 311.754204622 1045.60093147 235 c 0,26,27
 984 95 984 95 904.52734375 56.3525390625 c 0,28,29
 889 49 889 49 860.794921875 53.873046875 c 0,30,31
 569.484255803 103.731065324 569.484255803 103.731065324 421.804527056 103.731065324 c 0,32,33
 343.995796021 103.731065324 343.995796021 103.731065324 306.05859375 89.890625 c 1,0,-1
910.658203125 368.154296875 m 0,34,35
 904.52734375 458.6640625 904.52734375 458.6640625 814.306640625 547.971679688 c 0,36,37
 749.8807121 611.393350745 749.8807121 611.393350745 678.35219093 611.393350745 c 0,38,39
 604.620174171 611.393350745 604.620174171 611.393350745 547.470703125 532.576171875 c 0,40,41
 494.930664062 460.796875 494.930664062 460.796875 478.250976562 406.674804688 c 1,42,43
 634.651367188 396.934570312 634.651367188 396.934570312 724.057617188 382.14453125 c 0,44,45
 840.528320312 362.6640625 840.528320312 362.6640625 857.720703125 360.508789062 c 0,46,47
 888.52734375 356.264648438 888.52734375 356.264648438 889.594726562 356.442382812 c 0,48,49
 910.927734375 357.331054688 910.927734375 357.331054688 910.658203125 368.154296875 c 0,34,35
EndSplineSet
Substitution2: "'init' Initial Forms in Arabic lookup 13 subtable" uniFEE3
Substitution2: "'medi' Medial Forms in Arabic lookup 11 subtable" uniFEE4
Substitution2: "'fina' Terminal Forms in Arabic lookup 9 subtable" uniFEE2
EndChar

StartChar: uni0647
Encoding: 1607 1607 39
Width: 895
VWidth: 3746
GlyphClass: 2
Flags: W
AnchorPoint: "Anchor-10" 388.569 1263.48 basechar 0
AnchorPoint: "Anchor-7" 436.886 -216.833 basechar 0
LayerCount: 2
Fore
SplineSet
376.999023438 630.21484375 m 1,0,1
 263.671325477 479.440645247 263.671325477 479.440645247 263.671325477 403.942253583 c 0,2,3
 263.671325477 376.181008022 263.671325477 376.181008022 278.994140625 358.59765625 c 0,4,5
 320.544948352 310.526460924 320.544948352 310.526460924 446.665858541 310.526460924 c 0,6,7
 641.57828712 310.526460924 641.57828712 310.526460924 641.57828712 426.234255797 c 4,8,9
 641.57828712 492.445847355 641.57828712 492.445847355 548 548.615973113 c 0,10,11
 496.150031542 579.738783099 496.150031542 579.738783099 410.23828125 616.73046875 c 0,12,13
 398 622 398 622 376.999023438 630.21484375 c 1,0,1
814.813462034 420.231072867 m 0,14,15
 814.813462034 232.78050026 814.813462034 232.78050026 716.874023438 120.763671875 c 0,16,17
 616.298113131 5.77087565037 616.298113131 5.77087565037 456.424950982 5.77087565037 c 0,18,19
 275.868115744 5.77087565037 275.868115744 5.77087565037 184.440429688 105.731445312 c 0,20,21
 92.2635061831 205.799544326 92.2635061831 205.799544326 92.2635061831 397.367841327 c 0,22,23
 92.2635061831 600.583810546 92.2635061831 600.583810546 320.274414062 886.396484375 c 0,24,25
 343.23751196 915.061657279 343.23751196 915.061657279 372.06216166 915.061657279 c 0,26,27
 383.061359128 915.061657279 383.061359128 915.061657279 394.9140625 910.887695312 c 0,28,29
 663 814 663 814 769.157226562 604.279296875 c 0,30,31
 814.813462034 514.465423618 814.813462034 514.465423618 814.813462034 420.231072867 c 0,14,15
EndSplineSet
Substitution2: "'fina' Terminal Forms in Arabic lookup 9 subtable" uniFEEA
Substitution2: "'medi' Medial Forms in Arabic lookup 11 subtable" uniFEEC
Substitution2: "'init' Initial Forms in Arabic lookup 13 subtable" uniFEEB
EndChar

StartChar: uni0648
Encoding: 1608 1608 40
Width: 845
VWidth: 3781
GlyphClass: 2
Flags: W
AnchorPoint: "Anchor-7" 371.78 -711.673 basechar 0
AnchorPoint: "Anchor-10" 418.254 1175.47 basechar 0
LayerCount: 2
Fore
SplineSet
564 -1.42578125 m 8,0,1
 478.74609375 -2.5302734375 l 2,2,3
 473.301578481 -2.58983798525 473.301578481 -2.58983798525 467.939356696 -2.58983798525 c 0,4,5
 250.967621831 -2.58983798525 250.967621831 -2.58983798525 168.731445312 94.9326171875 c 0,6,7
 110.92120773 162.961597023 110.92120773 162.961597023 110.92120773 281.719100526 c 0,8,9
 110.92120773 376.053395209 110.92120773 376.053395209 147.3984375 502.396484375 c 0,10,11
 193 660 193 660 271.130859375 732.795898438 c 0,12,13
 336.667901293 793.469936701 336.667901293 793.469936701 433.742917542 793.469936701 c 0,14,15
 607.049152042 793.469936701 607.049152042 793.469936701 695.708007812 597.471679688 c 0,16,17
 774.433447577 424.658239463 774.433447577 424.658239463 774.433447577 229.246615517 c 0,18,19
 774.433447577 156.835282104 774.433447577 156.835282104 762.348632812 68 c 8,20,21
 719 -249 719 -249 507.24609375 -456 c 0,22,23
 458 -504 458 -504 420 -512.116210938 c 0,24,25
 397.776989644 -517.145268832 397.776989644 -517.145268832 350.714756751 -517.145268832 c 0,26,27
 342.716129948 -517.145268832 342.716129948 -517.145268832 334 -517 c 0,28,29
 165 -514 165 -514 40 -485 c 0,30,31
 8.48899107861 -477.647431252 8.48899107861 -477.647431252 8.48899107861 -454.0484583 c 0,32,33
 8.48899107861 -439.682167368 8.48899107861 -439.682167368 65.7890625 -402.438476562 c 0,34,35
 496 -124 496 -124 564 -1.42578125 c 8,0,1
588.087890625 320.495117188 m 1,36,37
 536.432525073 528.160148911 536.432525073 528.160148911 403.465028815 528.160148911 c 0,38,39
 317.112486709 528.160148911 317.112486709 528.160148911 288.198242188 442.6640625 c 0,40,41
 280.65591119 419.807930632 280.65591119 419.807930632 280.65591119 401.212621194 c 0,42,43
 280.65591119 333.028100191 280.65591119 333.028100191 382.063476562 322.130859375 c 0,44,45
 434.029680171 316.174661443 434.029680171 316.174661443 478.716086308 316.174661443 c 0,46,47
 493.170522185 316.174661443 493.170522185 316.174661443 506.86328125 316.797851562 c 2,48,-1
 588.087890625 320.495117188 l 1,36,37
EndSplineSet
Substitution2: "'fina' Terminal Forms in Arabic lookup 9 subtable" uniFEEE
EndChar

StartChar: uni0649
Encoding: 1609 1609 41
Width: 1523
VWidth: 3753
GlyphClass: 2
Flags: W
AnchorPoint: "Anchor-10" 657.179 1081.74 basechar 0
AnchorPoint: "Anchor-7" 662.738 -683.22 basechar 0
LayerCount: 2
Fore
SplineSet
714.475585938 -201.248046875 m 24,0,1
 461 -202 461 -202 355.508789062 -73.2294921875 c 0,2,3
 293 3 293 3 293.072265625 138.423828125 c 0,4,5
 293 261 293 261 345.061523438 432.513671875 c 1,6,-1
 206.590820312 471.579101562 l 1,7,8
 97 228 97 228 96.8525390625 30.7529296875 c 0,9,10
 97 -202 97 -202 231.717773438 -347.383789062 c 0,11,12
 373 -502 373 -502 706.14453125 -502.083984375 c 0,13,14
 1022 -502 1022 -502 1197 -329 c 0,15,16
 1352.8163401 -176.219043147 1352.8163401 -176.219043147 1391.31074414 24 c 0,17,18
 1404 90 1404 90 1400 142 c 0,19,20
 1388.9756315 286.319005795 1388.9756315 286.319005795 1236 314 c 2,21,-1
 915.291992188 372.032226562 l 1,22,-1
 926.287109375 389 l 2,23,24
 1044.67153237 571.493655867 1044.67153237 571.493655867 1356.86621094 541.569335938 c 2,25,-1
 1411.14941406 536.366210938 l 1,26,27
 1430 614 1430 614 1452.12109375 826.237304688 c 1,28,29
 1233 898 1233 898 1048.67675781 811.546875 c 0,30,31
 834 711 834 711 756.38671875 422.965820312 c 0,32,33
 716 274 716 274 726.146484375 188 c 0,34,35
 735 114 735 114 820 92.2275390625 c 0,36,37
 873 79 873 79 997.959960938 58.421875 c 8,38,-1
 1193.88378906 22.4697265625 l 2,39,40
 1222 17 1222 17 1199.95214844 -11.20703125 c 0,41,42
 1053 -200 1053 -200 714.475585938 -201.248046875 c 24,0,1
EndSplineSet
Substitution2: "'fina' Terminal Forms in Arabic lookup 9 subtable" uniFEF0
Substitution2: "'medi' Medial Forms in Arabic lookup 11 subtable" uniFBE9
Substitution2: "'init' Initial Forms in Arabic lookup 13 subtable" uniFBE8
EndChar

StartChar: uni064B
Encoding: 1611 1611 43
Width: -25
VWidth: 2410
GlyphClass: 4
Flags: W
AnchorPoint: "Anchor-10" 637 1160.96 mark 0
AnchorPoint: "Anchor-9" 637 1160.96 mark 0
AnchorPoint: "Anchor-1" 595.196 1694.67 basemark 0
AnchorPoint: "Anchor-1" 637 1160.96 mark 0
LayerCount: 2
Fore
SplineSet
316.614257812 1106.1953125 m 5,0,-1
 316.614257812 1223.98730469 l 5,1,-1
 841.026367188 1438.42578125 l 5,2,-1
 841.026367188 1320.62890625 l 5,3,-1
 316.614257812 1106.1953125 l 5,0,-1
316.614257812 1352.03222656 m 5,4,-1
 316.614257812 1469.82421875 l 5,5,-1
 841.026367188 1684.25878906 l 5,6,-1
 841.026367188 1566.46582031 l 5,7,-1
 316.614257812 1352.03222656 l 5,4,-1
EndSplineSet
EndChar

StartChar: uni064C
Encoding: 1612 1612 44
Width: -25
VWidth: 2410
GlyphClass: 4
Flags: W
AnchorPoint: "Anchor-10" 706.932 1270 mark 0
AnchorPoint: "Anchor-9" 706.932 1270 mark 0
AnchorPoint: "Anchor-1" 593.593 1993.41 basemark 0
AnchorPoint: "Anchor-1" 706.932 1270 mark 0
LayerCount: 2
Fore
SplineSet
682.081054688 1805.66210938 m 0,0,1
 660.557617188 1805.66210938 660.557617188 1805.66210938 644.879882812 1801.59765625 c 128,-1,2
 629.202148438 1797.53515625 629.202148438 1797.53515625 619.087890625 1788.40917969 c 0,3,4
 599.491210938 1770.72753906 599.491210938 1770.72753906 599.491210938 1732.44335938 c 0,5,6
 599.491210938 1704.45019531 599.491210938 1704.45019531 618.01953125 1683.49121094 c 0,7,8
 621.099609375 1680.00683594 621.099609375 1680.00683594 624.765625 1676.73535156 c 128,-1,9
 628.432617188 1673.46289062 628.432617188 1673.46289062 632.646484375 1670.43457031 c 128,-1,10
 636.860351562 1667.40527344 636.860351562 1667.40527344 641.594726562 1664.58105469 c 128,-1,11
 646.329101562 1661.75683594 646.329101562 1661.75683594 651.655273438 1659.11132812 c 128,-1,12
 656.98046875 1656.46582031 656.98046875 1656.46582031 662.752929688 1654.02148438 c 128,-1,13
 668.526367188 1651.578125 668.526367188 1651.578125 674.92578125 1649.25097656 c 0,14,15
 690.80859375 1643.47363281 690.80859375 1643.47363281 719.922851562 1634.2421875 c 2,16,-1
 729.141601562 1631.31933594 l 1,17,-1
 741.2421875 1659.5546875 l 2,18,19
 743.208984375 1664.13964844 743.208984375 1664.13964844 744.838867188 1668.59082031 c 128,-1,20
 746.469726562 1673.04199219 746.469726562 1673.04199219 747.783203125 1677.4296875 c 128,-1,21
 749.096679688 1681.81835938 749.096679688 1681.81835938 750.069335938 1686.0859375 c 0,22,23
 753.012695312 1699.00683594 753.012695312 1699.00683594 753.012695312 1710.78710938 c 0,24,25
 753.012695312 1750.50292969 753.012695312 1750.50292969 739.448242188 1772.296875 c 0,26,27
 725.354492188 1794.9453125 725.354492188 1794.9453125 696.6484375 1803.45605469 c 2,28,-1
 689.288085938 1805.11230469 l 2,29,30
 687.474609375 1805.38574219 687.474609375 1805.38574219 685.671875 1805.52441406 c 128,-1,31
 683.8671875 1805.66210938 683.8671875 1805.66210938 682.081054688 1805.66210938 c 0,0,1
340.79296875 1577.25292969 m 2,32,33
 343.0234375 1544.6171875 343.0234375 1544.6171875 345.484375 1520.01660156 c 128,-1,34
 347.944335938 1495.41601562 347.944335938 1495.41601562 350.864257812 1477.29394531 c 128,-1,35
 353.78515625 1459.171875 353.78515625 1459.171875 357.178710938 1448.05175781 c 0,36,37
 372.751953125 1397.02539062 372.751953125 1397.02539062 397.809570312 1374.20800781 c 0,38,39
 423.864257812 1350.48339844 423.864257812 1350.48339844 461.12109375 1351.37207031 c 0,40,41
 474.05859375 1351.6796875 474.05859375 1351.6796875 487.071289062 1354.04589844 c 128,-1,42
 500.083984375 1356.41113281 500.083984375 1356.41113281 513.017578125 1360.77441406 c 128,-1,43
 525.950195312 1365.13867188 525.950195312 1365.13867188 538.892578125 1371.5 c 0,44,45
 577.370117188 1390.41210938 577.370117188 1390.41210938 616.481445312 1428.26074219 c 0,46,47
 639.139648438 1450.30664062 639.139648438 1450.30664062 656.97265625 1474.29589844 c 128,-1,48
 674.806640625 1498.28515625 674.806640625 1498.28515625 687.754882812 1524.18359375 c 2,49,-1
 695.950195312 1540.58203125 l 1,50,-1
 678.014648438 1544.38574219 l 2,51,52
 546.6640625 1572.22753906 546.6640625 1572.22753906 503.244140625 1678.71679688 c 0,53,54
 499.188476562 1688.66015625 499.188476562 1688.66015625 497.427734375 1701.27050781 c 0,55,56
 496.514648438 1707.80957031 496.514648438 1707.80957031 496.049804688 1715.44726562 c 128,-1,57
 495.584960938 1723.08496094 495.584960938 1723.08496094 495.584960938 1731.76171875 c 0,58,59
 495.584960938 1736.55078125 495.584960938 1736.55078125 495.771484375 1741.20800781 c 128,-1,60
 495.95703125 1745.86035156 495.95703125 1745.86035156 496.33203125 1750.43164062 c 128,-1,61
 496.708007812 1754.99902344 496.708007812 1754.99902344 497.271484375 1759.43359375 c 128,-1,62
 497.833007812 1763.86328125 497.833007812 1763.86328125 498.58984375 1768.20800781 c 128,-1,63
 499.345703125 1772.54394531 499.345703125 1772.54394531 500.290039062 1776.75195312 c 128,-1,64
 501.233398438 1780.95410156 501.233398438 1780.95410156 502.376953125 1785.06738281 c 128,-1,65
 503.517578125 1789.17089844 503.517578125 1789.17089844 504.850585938 1793.14941406 c 0,66,67
 514.295898438 1821.33105469 514.295898438 1821.33105469 529.915039062 1842.81933594 c 128,-1,68
 545.404296875 1864.12792969 545.404296875 1864.12792969 566.268554688 1878.28710938 c 0,69,70
 573.241210938 1883.01855469 573.241210938 1883.01855469 580.795898438 1886.97851562 c 128,-1,71
 588.3515625 1890.94042969 588.3515625 1890.94042969 596.559570312 1894.15527344 c 128,-1,72
 604.76953125 1897.36914062 604.76953125 1897.36914062 613.6015625 1899.81738281 c 0,73,74
 640.26953125 1907.20703125 640.26953125 1907.20703125 671.807617188 1907.20703125 c 0,75,76
 687.68359375 1907.20703125 687.68359375 1907.20703125 702.268554688 1905.42285156 c 128,-1,77
 716.853515625 1903.63867188 716.853515625 1903.63867188 730.112304688 1900.08398438 c 128,-1,78
 743.370117188 1896.52832031 743.370117188 1896.52832031 755.3359375 1891.25585938 c 128,-1,79
 767.302734375 1885.984375 767.302734375 1885.984375 778.094726562 1878.95996094 c 0,80,81
 799.659179688 1864.92675781 799.659179688 1864.92675781 815.517578125 1844.34960938 c 128,-1,82
 831.375976562 1823.77441406 831.375976562 1823.77441406 841.69921875 1796.21972656 c 0,83,84
 854.559570312 1761.88964844 854.559570312 1761.88964844 854.559570312 1717.96484375 c 0,85,86
 854.559570312 1696.23144531 854.559570312 1696.23144531 851.177734375 1674.6328125 c 128,-1,87
 847.79296875 1653.0078125 847.79296875 1653.0078125 841.048828125 1631.609375 c 2,88,-1
 835.53125 1614.15527344 l 1,89,-1
 853.821289062 1613.19140625 l 2,90,91
 857.268554688 1613.00976562 857.268554688 1613.00976562 861.227539062 1612.83203125 c 128,-1,92
 865.186523438 1612.65332031 865.186523438 1612.65332031 869.668945312 1612.47851562 c 0,93,94
 878.608398438 1612.12988281 878.608398438 1612.12988281 889.692382812 1611.79199219 c 128,-1,95
 900.767578125 1611.45410156 900.767578125 1611.45410156 913.823242188 1611.13378906 c 2,96,-1
 924.229492188 1610.87890625 l 1,97,-1
 924.229492188 1509.22167969 l 1,98,-1
 913.392578125 1509.39550781 l 2,99,100
 907.142578125 1509.49609375 907.142578125 1509.49609375 901.515625 1509.62207031 c 128,-1,101
 895.88671875 1509.74804688 895.88671875 1509.74804688 890.912109375 1509.8984375 c 128,-1,102
 885.9375 1510.05078125 885.9375 1510.05078125 881.59765625 1510.22851562 c 0,103,104
 868.719726562 1510.75195312 868.719726562 1510.75195312 860.600585938 1511.56738281 c 2,105,-1
 788.852539062 1518.46386719 l 1,106,-1
 785.657226562 1511.66210938 l 2,107,108
 754.583007812 1445.5078125 754.583007812 1445.5078125 709.958007812 1392.48339844 c 0,109,110
 698.8046875 1379.22949219 698.8046875 1379.22949219 686.720703125 1366.67285156 c 128,-1,111
 674.63671875 1354.11523438 674.63671875 1354.11523438 661.608398438 1342.2421875 c 128,-1,112
 648.581054688 1330.37109375 648.581054688 1330.37109375 634.608398438 1319.18554688 c 128,-1,113
 620.634765625 1307.99902344 620.634765625 1307.99902344 605.717773438 1297.50195312 c 0,114,115
 584.107421875 1282.29589844 584.107421875 1282.29589844 561.845703125 1272.17773438 c 128,-1,116
 539.583007812 1262.05859375 539.583007812 1262.05859375 516.700195312 1256.99511719 c 128,-1,117
 493.817382812 1251.93164062 493.817382812 1251.93164062 470.083984375 1251.82128906 c 0,118,119
 419.283203125 1251.58496094 419.283203125 1251.58496094 381.7734375 1271.68554688 c 128,-1,120
 344.264648438 1291.78808594 344.264648438 1291.78808594 318.620117188 1332.84863281 c 0,121,122
 266.134765625 1416.88867188 266.134765625 1416.88867188 263.116210938 1576.32324219 c 2,123,-1
 262.911132812 1587.19238281 l 1,124,-1
 340.112304688 1587.19238281 l 1,125,-1
 340.79296875 1577.25292969 l 2,32,33
EndSplineSet
EndChar

StartChar: uni064D
Encoding: 1613 1613 45
Width: -24
VWidth: 2238
GlyphClass: 4
Flags: W
AnchorPoint: "Anchor-7" 534.761 78.3467 mark 0
AnchorPoint: "Anchor-6" 534.761 78.3467 mark 0
AnchorPoint: "Anchor-0" 614.975 -447.912 basemark 0
AnchorPoint: "Anchor-0" 534.761 78.3467 mark 0
LayerCount: 2
Fore
SplineSet
265.3984375 -489.23046875 m 1,0,-1
 265.3984375 -371.438476562 l 1,1,-1
 789.810546875 -157 l 1,2,-1
 789.810546875 -274.796875 l 1,3,-1
 265.3984375 -489.23046875 l 1,0,-1
265.3984375 -243.393554688 m 1,4,-1
 265.3984375 -125.6015625 l 1,5,-1
 789.810546875 88.8330078125 l 1,6,-1
 789.810546875 -28.9599609375 l 1,7,-1
 265.3984375 -243.393554688 l 1,4,-1
EndSplineSet
EndChar

StartChar: uni064E
Encoding: 1614 1614 46
Width: -24
VWidth: 2238
GlyphClass: 4
Flags: W
AnchorPoint: "Anchor-10" 541.027 1322.21 mark 0
AnchorPoint: "Anchor-9" 541.027 1322.21 mark 0
AnchorPoint: "Anchor-1" 520.452 1636.68 basemark 0
AnchorPoint: "Anchor-1" 541.027 1322.21 mark 0
LayerCount: 2
Fore
SplineSet
257.552734375 1284.96972656 m 1,0,-1
 257.552734375 1406.95019531 l 1,1,-1
 755.068359375 1610.38769531 l 1,2,-1
 755.068359375 1488.40917969 l 1,3,-1
 257.552734375 1284.96972656 l 1,0,-1
EndSplineSet
EndChar

StartChar: uni064F
Encoding: 1615 1615 47
Width: -24
VWidth: 2238
GlyphClass: 4
Flags: W
AnchorPoint: "Anchor-10" 597.961 1269.3 mark 0
AnchorPoint: "Anchor-9" 597.961 1269.3 mark 0
AnchorPoint: "Anchor-1" 528.853 1866.09 basemark 0
AnchorPoint: "Anchor-1" 597.961 1269.3 mark 0
LayerCount: 2
Fore
SplineSet
801.198242188 1416.79785156 m 1,0,-1
 670.861328125 1425.10449219 l 1,1,2
 535.331538268 1245.37305247 535.331538268 1245.37305247 295.880859375 1232.47363281 c 1,3,-1
 295.880859375 1328.54003906 l 1,4,5
 454.280933268 1335.9662314 454.280933268 1335.9662314 547.580078125 1437.87109375 c 1,6,-1
 562.380859375 1453.45898438 l 1,7,8
 539.162447365 1460.99461171 539.162447365 1460.99461171 521 1468.28640081 c 0,9,10
 402.975357832 1515.67047749 402.975357832 1515.67047749 402.634670426 1609.62521824 c 0,11,12
 402.282826597 1706.65667625 402.282826597 1706.65667625 470.28515625 1762.04296875 c 0,13,14
 506.891601562 1792.03027344 506.891601562 1792.03027344 569.723632812 1792.21679688 c 0,15,16
 636.022708567 1792.04140235 636.022708567 1792.04140235 688.162109375 1740.90429688 c 0,17,18
 736.407302764 1692.86458954 736.407302764 1692.86458954 736.688476562 1611.32128906 c 0,19,20
 736.409462639 1577.25368859 736.409462639 1577.25368859 717.333984375 1515.98339844 c 1,21,-1
 801.198242188 1512.89746094 l 1,22,-1
 801.198242188 1416.79785156 l 1,0,-1
618.934570312 1531.99316406 m 1,23,24
 640 1588 640 1588 640.2265625 1614 c 0,25,26
 640 1690 640 1690 570 1691.86606559 c 0,27,28
 528 1693 528 1693 509.283203125 1658 c 0,29,30
 500.168402283 1641.73072824 500.168402283 1641.73072824 500.090820312 1620.20214844 c 4,31,32
 501 1595 501 1595 516.119140625 1578.47705078 c 0,33,34
 535.308386159 1560.29776554 535.308386159 1560.29776554 563.426269531 1550.41308594 c 0,35,36
 588 1542 588 1542 592.151367188 1540.58203125 c 0,37,38
 600 1538 600 1538 618.934570312 1531.99316406 c 1,23,24
EndSplineSet
EndChar

StartChar: uni0650
Encoding: 1616 1616 48
Width: -24
VWidth: 2238
GlyphClass: 4
Flags: W
AnchorPoint: "Anchor-7" 549.05 -10.6104 mark 0
AnchorPoint: "Anchor-6" 549.05 -10.6104 mark 0
AnchorPoint: "Anchor-0" 595.143 -311.309 basemark 0
AnchorPoint: "Anchor-0" 549.05 -10.6104 mark 0
LayerCount: 2
Fore
SplineSet
302.514648438 -343.879882812 m 1,0,-1
 302.514648438 -221.899414062 l 1,1,-1
 800.029296875 -18.4638671875 l 1,2,-1
 800.029296875 -140.440429688 l 1,3,-1
 302.514648438 -343.879882812 l 1,0,-1
EndSplineSet
EndChar

StartChar: uni0651
Encoding: 1617 1617 49
Width: -24
VWidth: 2238
GlyphClass: 4
Flags: W
AnchorPoint: "Anchor-10" 589.815 1350.35 mark 0
AnchorPoint: "Anchor-9" 589.815 1350.35 mark 0
AnchorPoint: "Anchor-1" 560.134 1785.91 basemark 0
AnchorPoint: "Anchor-1" 589.815 1350.35 mark 0
LayerCount: 2
Fore
SplineSet
332.797851562 1621.32324219 m 1,0,1
 334.483398438 1542.14941406 l 2,2,3
 337.064453125 1439.99121094 337.064453125 1439.99121094 420.564453125 1442.71484375 c 0,4,5
 502.158203125 1445.31640625 502.158203125 1445.31640625 502.795898438 1560.97363281 c 2,6,7
 503.463867188 1682.12304688 l 1,8,9
 538.663085938 1693.85644531 538.663085938 1693.85644531 597.237304688 1699.6484375 c 1,10,11
 598.9296875 1612.25683594 l 2,12,13
 600.529296875 1518.92382812 600.529296875 1518.92382812 684.334960938 1518.70898438 c 0,14,15
 769.318359375 1518.92480469 769.318359375 1518.92480469 765.328125 1625.05664062 c 2,16,17
 762.662109375 1695.98925781 l 1,18,19
 840.528320312 1747.18945312 840.528320312 1747.18945312 856.057617188 1757.20019531 c 1,20,21
 860.794921875 1699.18945312 l 6,22,23
 886.39453125 1380.2578125 886.39453125 1380.2578125 699.999023438 1380.79101562 c 0,24,25
 622.9296875 1381.32421875 622.9296875 1381.32421875 569.970703125 1434.99414062 c 1,26,27
 521.596679688 1319.45800781 521.596679688 1319.45800781 406.82421875 1319.9921875 c 0,28,29
 224.926757812 1320.52539062 224.926757812 1320.52539062 243.830078125 1581.76074219 c 2,30,-1
 249.16015625 1655.42285156 l 1,31,32
 312.53125 1629.85644531 312.53125 1629.85644531 332.797851562 1621.32324219 c 1,0,1
EndSplineSet
EndChar

StartChar: uni0652
Encoding: 1618 1618 50
Width: -31
VWidth: 2796
GlyphClass: 4
Flags: W
AnchorPoint: "Anchor-10" 711.878 1496.59 mark 0
AnchorPoint: "Anchor-9" 711.878 1496.59 mark 0
AnchorPoint: "Anchor-1" 702.956 2089.12 basemark 0
AnchorPoint: "Anchor-1" 711.878 1496.59 mark 0
LayerCount: 2
Fore
SplineSet
810.8359375 1670.25585938 m 0,0,1
 820.818359375 1680.23925781 820.818359375 1680.23925781 828.318359375 1691.26269531 c 128,-1,2
 835.818359375 1702.28515625 835.818359375 1702.28515625 840.735351562 1714.27636719 c 0,3,4
 850.532226562 1738.17285156 850.532226562 1738.17285156 850.532226562 1767.15136719 c 0,5,6
 850.532226562 1824.35253906 850.532226562 1824.35253906 810.837890625 1864.04980469 c 128,-1,7
 771.143554688 1903.74511719 771.143554688 1903.74511719 713.099609375 1903.74511719 c 0,8,9
 698.7578125 1903.74511719 698.7578125 1903.74511719 685.422851562 1901.27246094 c 128,-1,10
 672.0859375 1898.79882812 672.0859375 1898.79882812 659.879882812 1893.88769531 c 128,-1,11
 647.672851562 1888.97753906 647.672851562 1888.97753906 636.609375 1881.60351562 c 128,-1,12
 625.544921875 1874.22851562 625.544921875 1874.22851562 615.787109375 1864.46972656 c 0,13,14
 596.267578125 1844.95019531 596.267578125 1844.95019531 586.388671875 1820.42089844 c 128,-1,15
 576.510742188 1795.89160156 576.510742188 1795.89160156 576.510742188 1767.15136719 c 0,16,17
 576.510742188 1709.10839844 576.510742188 1709.10839844 615.787109375 1669.83398438 c 0,18,19
 635.306640625 1650.31445312 635.306640625 1650.31445312 659.8359375 1640.4375 c 128,-1,20
 684.364257812 1630.55957031 684.364257812 1630.55957031 713.103515625 1630.55957031 c 128,-1,21
 741.85546875 1630.55957031 741.85546875 1630.55957031 766.48828125 1640.54785156 c 128,-1,22
 791.119140625 1650.53613281 791.119140625 1650.53613281 810.8359375 1670.25585938 c 0,0,1
947.844726562 1767.70703125 m 0,23,24
 947.844726562 1743 947.844726562 1743 943.629882812 1720.32421875 c 128,-1,25
 939.413085938 1697.6484375 939.413085938 1697.6484375 930.939453125 1676.8671875 c 128,-1,26
 922.463867188 1656.0859375 922.463867188 1656.0859375 909.7421875 1637.19335938 c 128,-1,27
 897.020507812 1618.30175781 897.020507812 1618.30175781 879.977539062 1601.1484375 c 0,28,29
 846.299804688 1567.25878906 846.299804688 1567.25878906 804.490234375 1550.08105469 c 0,30,31
 783.567382812 1541.48535156 783.567382812 1541.48535156 760.956054688 1537.18457031 c 128,-1,32
 738.344726562 1532.88378906 738.344726562 1532.88378906 713.916015625 1532.88378906 c 0,33,34
 681.438476562 1532.88378906 681.438476562 1532.88378906 651.956054688 1540.53710938 c 128,-1,35
 622.572265625 1548.16601562 622.572265625 1548.16601562 596.466796875 1563.34375 c 128,-1,36
 570.3125 1578.54980469 570.3125 1578.54980469 547.857421875 1601.14941406 c 0,37,38
 479.987304688 1669.45214844 479.987304688 1669.45214844 479.987304688 1767.70703125 c 128,-1,39
 479.987304688 1865.93847656 479.987304688 1865.93847656 547.831054688 1933.79492188 c 128,-1,40
 615.672851562 2001.63671875 615.672851562 2001.63671875 713.916015625 2001.63671875 c 0,41,42
 738.348632812 2001.63671875 738.348632812 2001.63671875 760.96484375 1997.36230469 c 128,-1,43
 783.580078125 1993.08886719 783.580078125 1993.08886719 804.505859375 1984.546875 c 0,44,45
 846.315429688 1967.48046875 846.315429688 1967.48046875 880.000976562 1933.79394531 c 0,46,47
 884.827148438 1928.96679688 884.827148438 1928.96679688 889.314453125 1923.96777344 c 128,-1,48
 893.80078125 1918.96972656 893.80078125 1918.96972656 897.950195312 1913.79882812 c 0,49,50
 906.23828125 1903.46972656 906.23828125 1903.46972656 913.138671875 1892.51269531 c 0,51,52
 915.439453125 1888.86132812 915.439453125 1888.86132812 917.587890625 1885.140625 c 128,-1,53
 919.737304688 1881.41796875 919.737304688 1881.41796875 921.736328125 1877.62792969 c 128,-1,54
 923.733398438 1873.83691406 923.733398438 1873.83691406 925.58203125 1869.97460938 c 0,55,56
 928.353515625 1864.18359375 928.353515625 1864.18359375 930.778320312 1858.24316406 c 128,-1,57
 933.202148438 1852.30371094 933.202148438 1852.30371094 935.282226562 1846.2109375 c 128,-1,58
 937.365234375 1840.11230469 937.365234375 1840.11230469 939.104492188 1833.86816406 c 128,-1,59
 940.84375 1827.62304688 940.84375 1827.62304688 942.241210938 1821.23046875 c 2,60,-1
 946.439453125 1795.0546875 l 2,61,62
 946.719726562 1792.37402344 946.719726562 1792.37402344 946.9453125 1789.67382812 c 128,-1,63
 947.169921875 1786.97363281 947.169921875 1786.97363281 947.338867188 1784.24902344 c 128,-1,64
 947.5078125 1781.52539062 947.5078125 1781.52539062 947.620117188 1778.78027344 c 128,-1,65
 947.732421875 1776.03515625 947.732421875 1776.03515625 947.7890625 1773.265625 c 128,-1,66
 947.844726562 1770.49707031 947.844726562 1770.49707031 947.844726562 1767.70703125 c 0,23,24
EndSplineSet
EndChar

StartChar: uni0653
Encoding: 1619 1619 51
Width: -3
VWidth: 2763
GlyphClass: 4
Flags: W
AnchorPoint: "Anchor-10" 485.314 1570.07 mark 0
AnchorPoint: "Anchor-9" 485.314 1570.07 mark 0
AnchorPoint: "Anchor-1" 455.074 2045.65 basemark 0
AnchorPoint: "Anchor-1" 485.314 1570.07 mark 0
LayerCount: 2
Fore
SplineSet
361.947265625 1668.20605469 m 1,0,1
 276.264648438 1667.18945312 276.264648438 1667.18945312 178.052734375 1578.7578125 c 1,2,3
 145.065429688 1599.99023438 145.065429688 1599.99023438 127.016601562 1624.33496094 c 1,4,5
 186.665039062 1779.18847656 186.665039062 1779.18847656 224.00390625 1814.39550781 c 0,6,7
 270.931640625 1860.25488281 270.931640625 1860.25488281 326.908203125 1859.84277344 c 0,8,9
 382.930664062 1860.25488281 382.930664062 1860.25488281 494.076171875 1845.51660156 c 0,10,11
 652.795898438 1825.05566406 652.795898438 1825.05566406 768.463867188 1853.99023438 c 0,12,13
 831.293945312 1869.67578125 831.293945312 1869.67578125 838.114257812 1855.06347656 c 4,14,15
 842.661132812 1845.32226562 842.661132812 1845.32226562 824.912109375 1816.68847656 c 0,16,17
 774.395507812 1738.65625 774.395507812 1738.65625 717.329101562 1692.25585938 c 128,-1,18
 660.262695312 1645.85644531 660.262695312 1645.85644531 361.947265625 1668.20605469 c 1,0,1
EndSplineSet
EndChar

StartChar: uni0657
Encoding: 1623 1623 54
Width: -34
VWidth: 3019
GlyphClass: 4
Flags: W
AnchorPoint: "Anchor-10" 743.995 1766.13 mark 0
AnchorPoint: "Anchor-9" 743.995 1766.13 mark 0
AnchorPoint: "Anchor-1" 743.995 2725.59 basemark 0
AnchorPoint: "Anchor-1" 743.995 1766.13 mark 0
LayerCount: 2
Fore
SplineSet
331.073242188 2367.95800781 m 1,0,-1
 506.10546875 2356.64648438 l 1,1,2
 578.007550855 2455.44858726 578.007550855 2455.44858726 683.27037699 2519.46794597 c 128,-1,3
 788.533203125 2583.48730469 788.533203125 2583.48730469 845.87109375 2608.62988282 c 128,-1,4
 903.208984375 2633.77246094 903.208984375 2633.77246094 928.913085938 2642.68945312 c 0,5,6
 979.916694295 2660.38375206 979.916694295 2660.38375206 1030.55957031 2664.78710938 c 1,7,-1
 1030.55957031 2538.50976562 l 1,8,9
 901.873024595 2531.21619587 901.873024595 2531.21619587 734.336914062 2400.359375 c 0,10,11
 699.703125 2373.5546875 699.703125 2373.5546875 670.383789062 2342.49804688 c 2,12,-1
 648.336914062 2319.29003906 l 1,13,-1
 679.380859375 2312.37988281 l 2,14,15
 692.34460752 2309.83120801 692.34460752 2309.83120801 741.739198291 2283.49031103 c 0,16,17
 839.111532047 2231.56408649 839.111532047 2231.56408649 861.866210938 2136.63574219 c 0,18,19
 866.072265625 2119.09765625 866.072265625 2119.09765625 866.131835938 2101.39746094 c 0,20,21
 865.950467834 1869.25417826 865.950467834 1869.25417826 641.456054688 1871.32324219 c 0,22,23
 485.679924679 1872.33499763 485.679924679 1872.33499763 434.25 2009.56835938 c 0,24,25
 401.318719512 2097.49152609 401.318719512 2097.49152609 438.010742188 2215.40234375 c 2,26,-1
 444.87890625 2237.47460938 l 1,27,-1
 421.79296875 2238.83886719 l 2,28,29
 378.406015494 2241.40119697 378.406015494 2241.40119697 331.073242188 2241.75488281 c 1,30,-1
 331.073242188 2367.95800781 l 1,0,-1
627.271484375 1997.50878906 m 0,31,32
 736.995117188 1997.50878906 736.995117188 1997.50878906 736.995117188 2089.40332031 c 0,33,34
 736.995117188 2165.25933602 736.995117188 2165.25933602 574.364257812 2216.29296875 c 1,35,-1
 559.092773438 2180.66699219 l 2,36,37
 544.345703125 2146.25976562 544.345703125 2146.25976562 544.345703125 2109.05273437 c 0,38,39
 544.345703125 2032.50749529 544.345703125 2032.50749529 604.412109375 2003.51953125 c 0,40,41
 616.852063128 1997.50878906 616.852063128 1997.50878906 627.271484375 1997.50878906 c 0,31,32
EndSplineSet
EndChar

StartChar: uni065A
Encoding: 1626 1626 55
Width: 1473
VWidth: 3019
GlyphClass: 4
Flags: W
AnchorPoint: "Anchor-10" 743.995 1766.13 mark 0
AnchorPoint: "Anchor-9" 743.995 1766.13 mark 0
AnchorPoint: "Anchor-1" 741.044 2430.38 basemark 0
AnchorPoint: "Anchor-1" 743.995 1766.13 mark 0
LayerCount: 2
Fore
SplineSet
645.026367188 1875.75097656 m 1,0,-1
 378.834960938 2320.76855469 l 1,1,-1
 542.42578125 2320.76855469 l 1,2,-1
 743.995117188 2018.40429688 l 1,3,-1
 945.56640625 2320.76855469 l 1,4,-1
 1109.16015625 2320.76855469 l 1,5,-1
 842.963867188 1875.75097656 l 1,6,-1
 645.026367188 1875.75097656 l 1,0,-1
EndSplineSet
EndChar

StartChar: afii57392
Encoding: 1632 1632 56
Width: 973
VWidth: 3399
GlyphClass: 2
Flags: W
LayerCount: 2
Fore
SplineSet
490.950195312 894.813476562 m 5,0,-1
 758.455078125 627.309570312 l 5,1,-1
 485.200195312 354.053710938 l 5,2,-1
 217.6953125 621.559570312 l 5,3,-1
 490.950195312 894.813476562 l 5,0,-1
EndSplineSet
EndChar

StartChar: afii57393
Encoding: 1633 1633 57
Width: 810
VWidth: 3386
GlyphClass: 2
Flags: W
LayerCount: 2
Fore
SplineSet
522.421875 813 m 4,0,1
 470 1072 470 1072 347.094726562 1445.28320312 c 4,2,3
 335.956347051 1479.13266101 335.956347051 1479.13266101 305.46875 1453.65722656 c 6,4,-1
 110.797851562 1290.99023438 l 5,5,6
 390 521 390 521 419.086914062 -2.189453125 c 1,7,8
 568 22 568 22 585.262695312 25.06640625 c 0,9,10
 609 30 609 30 609.481445312 73 c 0,11,12
 612 368 612 368 522.421875 813 c 4,0,1
EndSplineSet
EndChar

StartChar: afii57394
Encoding: 1634 1634 58
Width: 1177
VWidth: 3386
GlyphClass: 2
Flags: W
LayerCount: 2
Fore
SplineSet
418.086914062 -2.189453125 m 1,0,1
 385 541 385 541 110.81640625 1294.609375 c 5,2,-1
 305.4765625 1457.29394531 l 6,3,4
 332 1480 332 1480 344.09375 1452.83203125 c 4,5,6
 350 1439 350 1439 362.915039062 1398.85253906 c 4,7,8
 381 1343 381 1343 410.681640625 1269.86035156 c 4,9,10
 473 1114 473 1114 660.874023438 1117.0859375 c 4,11,12
 895.671779002 1120.99453622 895.671779002 1120.99453622 931.294921875 1413.52050781 c 6,13,-1
 935.958984375 1451.8203125 l 5,14,-1
 1088.55273438 1431.82421875 l 5,15,-1
 1087.4765625 1403.59082031 l 6,16,17
 1064 790 1064 790 671.713867188 776.258789062 c 4,18,19
 608 774 608 774 530.091796875 782.215820312 c 5,20,21
 612 340 612 340 608.481445312 73 c 0,22,23
 608 30 608 30 584.262695312 25.06640625 c 0,24,25
 501 11 501 11 418.086914062 -2.189453125 c 1,0,1
EndSplineSet
EndChar

StartChar: afii57395
Encoding: 1635 1635 59
Width: 1364
VWidth: 3386
GlyphClass: 2
Flags: W
LayerCount: 2
Fore
SplineSet
526.990234375 788.376953125 m 5,0,1
 729 774 729 774 786.797851562 937.185546875 c 5,2,3
 863 792 863 792 995.314453125 792.552734375 c 4,4,5
 1288.13161425 794.000650804 1288.13161425 794.000650804 1278.02929688 1370.52441406 c 6,6,-1
 1277.01660156 1428.31738281 l 5,7,-1
 1124.90820312 1434.68261719 l 5,8,-1
 1121.05957031 1367.32421875 l 6,9,10
 1115 1253 1115 1253 1097.36621094 1188.12597656 c 4,11,12
 1075 1105 1075 1105 1013.70605469 1104.54980469 c 4,13,14
 900.015829665 1104.00007654 900.015829665 1104.00007654 894.767578125 1258.3359375 c 6,15,-1
 889.81640625 1403.93554688 l 5,16,-1
 736.223632812 1410.05761719 l 5,17,-1
 720.885742188 1267.47949219 l 6,18,19
 705 1116 705 1116 580.262695312 1114.89453125 c 4,20,21
 472 1114 472 1114 405.764648438 1270.93945312 c 4,22,23
 389.266707196 1310.03850456 389.266707196 1310.03850456 349.198242188 1432.92382812 c 4,24,25
 342 1455 342 1455 334.264648438 1465.45703125 c 4,26,27
 325.928568328 1476.09112328 325.928568328 1476.09112328 303.400390625 1457.26464844 c 6,28,-1
 108.764648438 1294.61035156 l 5,29,30
 384 543 384 543 416.086914062 -2.189453125 c 1,31,32
 565 22 565 22 582.262695312 25.06640625 c 0,33,34
 606 30 606 30 606.481445312 73 c 0,35,36
 610 340 610 340 526.990234375 788.376953125 c 5,0,1
EndSplineSet
EndChar

StartChar: afii57396
Encoding: 1636 1636 60
Width: 1002
VWidth: 3393
GlyphClass: 2
Flags: W
LayerCount: 2
Fore
SplineSet
439.280273438 978.71875 m 4,0,1
 594 885 594 885 731.106445312 825.463867188 c 5,2,3
 736 741 736 741 740.547851562 655.747070312 c 1,4,5
 542 570 542 570 431.685546875 481.75390625 c 0,6,7
 403 459 403 459 403.241234565 430.751658247 c 0,8,9
 403 407 403 407 452 391.238434733 c 0,10,11
 546 361 546 361 755.129403065 360.809745173 c 0,12,13
 816 361 816 361 885.999023438 363.360351562 c 1,14,-1
 881.11328125 109.096679688 l 2,15,16
 880 37 880 37 825.867956512 42.7858867524 c 0,17,18
 824 43 824 43 822.912109375 42.833984375 c 0,19,20
 339 62 339 62 202.255859375 168.819335938 c 0,21,22
 136 220 136 220 135.842513133 294.408987211 c 0,23,24
 136 518 136 518 445.93359375 707.176757812 c 1,25,26
 116 859 116 859 117.520507812 1005.06835938 c 4,27,28
 118 1072 118 1072 177.646484375 1141.08105469 c 4,29,30
 320 1305 320 1305 704.536132812 1476.37988281 c 4,31,32
 753 1498 753 1498 758.909179688 1476.12597656 c 4,33,34
 762 1464 762 1464 760.494140625 1452.03320312 c 4,35,36
 731 1291 731 1291 700.793945312 1130.42382812 c 5,37,38
 588 1123 588 1123 445.842773438 1079.88671875 c 4,39,40
 407 1068 407 1068 395.991210938 1049.55273438 c 4,41,42
 391 1042 391 1042 391.19140625 1033.59277344 c 4,43,44
 391 1008 391 1008 439.280273438 978.71875 c 4,0,1
EndSplineSet
EndChar

StartChar: afii57397
Encoding: 1637 1637 61
Width: 1236
VWidth: 3735
GlyphClass: 2
Flags: W
LayerCount: 2
Fore
SplineSet
583.6484375 1047.265625 m 1,0,1
 312.847743922 715.265324836 312.847743922 715.265324836 312.847743922 578.915074505 c 0,2,3
 312.847743922 473.99913762 312.847743922 473.99913762 370.005859375 424.436523438 c 0,4,5
 441.022528061 362.847707176 441.022528061 362.847707176 580.940942575 362.847707176 c 0,6,7
 582.8667767 362.847707176 582.8667767 362.847707176 584.805664062 362.859375 c 0,8,9
 768 365 768 365 835.470703125 417.536132812 c 0,10,11
 921.10352394 482.559943499 921.10352394 482.559943499 921.10352394 591.594247752 c 0,12,13
 921.10352394 736.060102535 921.10352394 736.060102535 583.6484375 1047.265625 c 1,0,1
180.818359375 241.360351562 m 0,14,15
 123 338 123 338 120.813476562 478.515625 c 0,16,17
 120.768705302 481.87903006 120.768705302 481.87903006 120.768705302 485.254626594 c 0,18,19
 120.768705302 769.536182227 120.768705302 769.536182227 438.306640625 1140.28515625 c 2,20,-1
 459.478515625 1165.00488281 l 1,21,-1
 377.282226562 1226.65332031 l 1,22,-1
 520.1015625 1487.57910156 l 5,23,24
 1103 979 1103 979 1102.90655652 512.521969616 c 0,25,26
 1102.90655652 258.438377431 1102.90655652 258.438377431 913.2109375 127.202148438 c 0,27,28
 788.414240602 41.2851861873 788.414240602 41.2851861873 579.16253961 41.2851861873 c 0,29,30
 578.467965533 41.2851861873 578.467965533 41.2851861873 577.772460938 41.2861328125 c 0,31,32
 300 42 300 42 180.818359375 241.360351562 c 0,14,15
EndSplineSet
EndChar

StartChar: afii57398
Encoding: 1638 1638 62
Width: 1308
VWidth: 3396
GlyphClass: 2
Flags: W
LayerCount: 2
Fore
SplineSet
1004.41992188 618.090820312 m 0,0,1
 1018 527 1018 527 1061 464.127929688 c 0,2,3
 1104.14817835 400.782460648 1104.14817835 400.782460648 1174.59570312 367.051757812 c 2,4,-1
 1180.125 364.404296875 l 1,5,-1
 1197.11425781 -5.1982421875 l 1,6,-1
 1184.43261719 -3.95703125 l 2,7,8
 884 25 884 25 821.237304688 342.612304688 c 0,9,10
 760.48292553 648.568013614 760.48292553 648.568013614 752.717773438 1099.82128906 c 6,11,-1
 752.500976562 1112.41992188 l 5,12,-1
 740.111328125 1110.125 l 6,13,14
 556 1076 556 1076 346.353515625 1081.57617188 c 4,15,16
 200 1085 200 1085 150.059570312 1134.95019531 c 4,17,18
 105 1180 105 1180 101.401367188 1443.58007812 c 4,19,20
 101 1477 101 1477 120.526367188 1479.89648438 c 4,21,22
 130 1481 130 1481 141.369140625 1477.02441406 c 4,23,24
 456 1356 456 1356 943.333007812 1428.44726562 c 5,25,26
 962 903 962 903 1004.41992188 618.090820312 c 0,0,1
EndSplineSet
EndChar

StartChar: afii57399
Encoding: 1639 1639 63
Width: 1376
VWidth: 3397
GlyphClass: 2
Flags: W
LayerCount: 2
Fore
SplineSet
1110.40332031 1452.47070312 m 6,0,-1
 1309.40136719 1273.88964844 l 5,1,2
 891 438 891 438 779.885742188 -2.5146484375 c 1,3,-1
 605.931640625 -2.5146484375 l 5,4,5
 460 553 460 553 66.4267578125 1274.20507812 c 5,6,-1
 244.259765625 1452.4609375 l 6,7,8
 267 1475 267 1475 282.734375 1448.38964844 c 4,9,10
 477.036295561 1106.93621657 477.036295561 1106.93621657 670.525390625 429.221679688 c 6,11,-1
 681.42578125 391.041992188 l 5,12,-1
 691.125976562 429.543945312 l 6,13,14
 829 975 829 975 1069.89160156 1442.71582031 c 4,15,16
 1086 1474 1086 1474 1110.40332031 1452.47070312 c 6,0,-1
EndSplineSet
EndChar

StartChar: afii57400
Encoding: 1640 1640 64
Width: 1376
VWidth: 3397
GlyphClass: 2
Flags: W
LayerCount: 2
Fore
SplineSet
1110.40332031 7.5244140625 m 2,0,1
 1086.13213258 -14.2565751081 1086.13213258 -14.2565751081 1069.89160156 17.279296875 c 0,2,3
 831.128626964 474.753548371 831.128626964 474.753548371 691.125976562 1030.45117188 c 2,4,-1
 681.42578125 1068.953125 l 1,5,-1
 670.525390625 1030.7734375 l 2,6,7
 521 507 521 507 282.734375 11.60546875 c 0,8,9
 268.91414268 -17.1788205782 268.91414268 -17.1788205782 244.259765625 7.5341796875 c 2,10,-1
 66.4267578125 185.790039062 l 5,11,12
 460 907 460 907 605.931640625 1462.50976562 c 5,13,-1
 779.885742188 1462.50976562 l 5,14,15
 891 1022 891 1022 1309.40136719 186.10546875 c 1,16,-1
 1110.40332031 7.5244140625 l 2,0,1
EndSplineSet
EndChar

StartChar: afii57401
Encoding: 1641 1641 65
Width: 1110
VWidth: 3397
GlyphClass: 2
Flags: W
LayerCount: 2
Fore
SplineSet
645.236328125 644.479492188 m 1,0,1
 546 630 546 630 464.583007812 629.701171875 c 0,2,3
 301 630 301 630 211.571289062 689.390625 c 0,4,5
 101 764 101 764 100.501953125 928.119140625 c 0,6,7
 101 1173 101 1173 222.642578125 1344.29882812 c 0,8,9
 317 1477 317 1477 466 1479 c 128,-1,10
 615 1481 615 1481 713.756835938 1368.50878906 c 0,11,12
 830 1236 830 1236 837.099609375 924.828125 c 0,13,14
 851 378 851 378 1019.26074219 214.3984375 c 1,15,-1
 834.995117188 0 l 1,16,17
 648 192 648 192 645.236328125 644.479492188 c 1,0,1
357.185546875 909.197265625 m 0,18,19
 399 895 399 895 461.765625 894.594726562 c 0,20,21
 534 895 534 895 633.571289062 914.078125 c 1,22,-1
 628.341796875 968.41015625 l 2,23,24
 603 1232 603 1232 454.341796875 1231.77441406 c 4,25,26
 344 1232 344 1232 309.271484375 1083.06542969 c 0,27,28
 299 1039 299 1039 298.776367188 1009.93652344 c 0,29,30
 299 929 299 929 357.185546875 909.197265625 c 0,18,19
EndSplineSet
EndChar

StartChar: afii57381
Encoding: 1642 1642 66
Width: 1206
VWidth: 3443
GlyphClass: 2
Flags: W
LayerCount: 2
Fore
SplineSet
140.865234375 1200.39160156 m 132,-1,1
 140.865234375 1275.05859375 140.865234375 1275.05859375 193.131835938 1327.32421875 c 132,-1,2
 245.397460938 1379.59082031 245.397460938 1379.59082031 320.063476562 1379.59082031 c 132,-1,3
 394.73046875 1379.59082031 394.73046875 1379.59082031 446.99609375 1327.32421875 c 132,-1,4
 499.262695312 1275.05859375 499.262695312 1275.05859375 499.262695312 1200.39160156 c 132,-1,5
 499.262695312 1125.72558594 499.262695312 1125.72558594 446.99609375 1073.45996094 c 132,-1,6
 394.73046875 1021.19335938 394.73046875 1021.19335938 320.063476562 1021.19335938 c 132,-1,7
 245.397460938 1021.19335938 245.397460938 1021.19335938 193.131835938 1073.45996094 c 132,-1,0
 140.865234375 1125.72558594 140.865234375 1125.72558594 140.865234375 1200.39160156 c 132,-1,1
707.234375 332.158203125 m 0,8,9
 707 407 707 407 759.5 459.090820312 c 128,-1,10
 812 511 812 511 886.432617188 511.356445312 c 0,11,12
 961 511 961 511 1013.36523438 459.090820312 c 0,13,14
 1066 407 1066 407 1065.63183594 332.158203125 c 0,15,16
 1066 257 1066 257 1013.36523438 205.225585938 c 0,17,18
 961 153 961 153 886.432617188 152.958984375 c 128,-1,19
 812 153 812 153 759.5 205.225585938 c 0,20,21
 707 257 707 257 707.234375 332.158203125 c 0,8,9
858 1500.54785156 m 1,22,-1
 1048.68554688 1398.83496094 l 1,23,-1
 338.758789062 18.892578125 l 1,24,-1
 150.305664062 121.880859375 l 1,25,-1
 858 1500.54785156 l 1,22,-1
EndSplineSet
EndChar

StartChar: uni066B
Encoding: 1643 1643 67
Width: 938
VWidth: 3443
GlyphClass: 2
Flags: W
LayerCount: 2
Fore
SplineSet
635.590820312 660.6875 m 1,0,-1
 771.888671875 576.329101562 l 1,1,-1
 188.09765625 -396.537109375 l 1,2,-1
 49.9765625 -304.865234375 l 1,3,-1
 635.590820312 660.6875 l 1,0,-1
EndSplineSet
EndChar

StartChar: uni066C
Encoding: 1644 1644 68
Width: 559
VWidth: 3395
GlyphClass: 2
Flags: W
LayerCount: 2
Fore
SplineSet
249.869140625 -1.298828125 m 1,0,-1
 231.046875 1.623046875 l 1,1,2
 158.841796875 7.564453125 158.841796875 7.564453125 124.071289062 58.40234375 c 0,3,4
 87.25 112.278320312 87.25 112.278320312 102.78125 189.2578125 c 0,5,6
 115.77734375 252.791992188 115.77734375 252.791992188 170.03125 291.109375 c 0,7,8
 223.163085938 327.215820312 223.163085938 327.215820312 291.188476562 315.150390625 c 0,9,10
 307.016601562 312.340820312 307.016601562 312.340820312 321.35546875 306.701171875 c 128,-1,11
 335.693359375 301.0625 335.693359375 301.0625 348.68359375 292.552734375 c 128,-1,12
 361.67578125 284.040039062 361.67578125 284.040039062 373.087890625 272.831054688 c 128,-1,13
 384.500976562 261.62109375 384.500976562 261.62109375 394.255859375 247.758789062 c 0,14,15
 430.950195312 194.889648438 430.950195312 194.889648438 422.697265625 95.8388671875 c 0,16,17
 400.405273438 -165.58203125 400.405273438 -165.58203125 121.823242188 -330.94140625 c 0,18,19
 82.54296875 -354.247070312 82.54296875 -354.247070312 63.4375 -339.1796875 c 0,20,21
 60.2744140625 -336.576171875 60.2744140625 -336.576171875 58.0009765625 -333.780273438 c 128,-1,22
 55.7275390625 -330.983398438 55.7275390625 -330.983398438 54.423828125 -328.227539062 c 0,23,24
 51.8388671875 -322.763671875 51.8388671875 -322.763671875 52.12890625 -318.052734375 c 0,25,26
 52.4677734375 -312.53125 52.4677734375 -312.53125 55.0146484375 -306.806640625 c 0,27,28
 55.9287109375 -304.752929688 55.9287109375 -304.752929688 57 -302.83984375 c 128,-1,29
 58.0712890625 -300.924804688 58.0712890625 -300.924804688 59.2978515625 -299.149414062 c 128,-1,30
 60.5244140625 -297.373046875 60.5244140625 -297.373046875 61.921875 -295.709960938 c 0,31,32
 66.3515625 -290.435546875 66.3515625 -290.435546875 71.8037109375 -286.185546875 c 0,33,34
 149.190429688 -229.180664062 149.190429688 -229.180664062 203.49609375 -143.7265625 c 0,35,36
 250.272460938 -70.3212890625 250.272460938 -70.3212890625 249.922851562 -10.3828125 c 2,37,-1
 249.869140625 -1.298828125 l 1,0,-1
EndSplineSet
EndChar

StartChar: afii63167
Encoding: 1645 1645 69
Width: 1734
VWidth: 3194
GlyphClass: 2
Flags: W
LayerCount: 2
Fore
SplineSet
188.93359375 1176.17675781 m 1,0,-1
 707.16015625 1176.17675781 l 1,1,-1
 868.931640625 1668.70507812 l 1,2,-1
 1030.70117188 1176.17675781 l 1,3,-1
 1548.93066406 1176.17675781 l 1,4,-1
 1130.27539062 870.12890625 l 1,5,-1
 1290.46972656 377.9921875 l 1,6,-1
 868.931640625 682.6015625 l 1,7,-1
 447.390625 377.993164062 l 1,8,-1
 607.583984375 870.12890625 l 1,9,-1
 188.93359375 1176.17675781 l 1,0,-1
EndSplineSet
EndChar

StartChar: uni066E
Encoding: 1646 1646 70
Width: 1792
VWidth: 3753
GlyphClass: 2
Flags: MW
AnchorPoint: "Anchor-10" 782.573 1279.21 basechar 0
AnchorPoint: "Anchor-7" 640.479 -204.823 basechar 0
LayerCount: 2
Fore
SplineSet
303.561523438 839.610351562 m 1,0,1
 273.398520322 718.782718224 273.398520322 718.782718224 273.398520322 632.335832616 c 0,2,3
 273.398520322 539.481975545 273.398520322 539.481975545 308.198242188 486.293945312 c 0,4,5
 416.384309914 320.697078952 416.384309914 320.697078952 893.716195468 320.697078952 c 0,6,7
 1340.32128736 320.697078952 1340.32128736 320.697078952 1489.63671875 454.18359375 c 0,8,9
 1512.53719709 475.087620129 1512.53719709 475.087620129 1512.53719709 500.460286161 c 0,10,11
 1512.53719709 509.546167232 1512.53719709 509.546167232 1509.60058594 519.205078125 c 0,12,13
 1470 647 1470 647 1411.32324219 772.26171875 c 1,14,-1
 1556.38964844 953.59375 l 2,15,16
 1569.82870609 970.455490606 1569.82870609 970.455490606 1582.56489318 970.455490606 c 0,17,18
 1598.83811839 970.455490606 1598.83811839 970.455490606 1613.96386719 942.927734375 c 0,19,20
 1711.96598789 767.847259318 1711.96598789 767.847259318 1711.96598789 590.407649266 c 0,21,22
 1711.96598789 409.150538844 1711.96598789 409.150538844 1651.32226562 303.998046875 c 0,23,24
 1476 0 1476 0 857.4609375 0 c 0,25,26
 479 0 479 0 297.043945312 99.7861328125 c 0,27,28
 86.4346498562 215.760654869 86.4346498562 215.760654869 86.4346498562 489.533380688 c 0,29,30
 86.4346498562 684.87865126 86.4346498562 684.87865126 185.948242188 882.259765625 c 1,31,-1
 303.561523438 839.610351562 l 1,0,1
EndSplineSet
Substitution2: "'init' Initial Forms in Arabic lookup 13 subtable" uni066E.init
Substitution2: "'medi' Medial Forms in Arabic lookup 11 subtable" uni066E.medi
Substitution2: "'fina' Terminal Forms in Arabic lookup 9 subtable" uni066E.fina
EndChar

StartChar: uni066F
Encoding: 1647 1647 71
Width: 1386
VWidth: 3781
GlyphClass: 2
Flags: W
AnchorPoint: "Anchor-10" 541.965 1173.97 basechar 0
AnchorPoint: "Anchor-7" 562.603 -688.546 basechar 0
LayerCount: 2
Fore
SplineSet
688.911132812 -133.294921875 m 0,0,1
 1041 -132 1041 -132 1124.984375 37.609375 c 0,2,3
 1136 60 1136 60 1138.73925781 98.60546875 c 1,4,5
 1022 80 1022 80 947.72265625 80.2568359375 c 0,6,7
 711 81 711 81 684.135742188 247.040039062 c 0,8,9
 679 279 679 279 679.028320312 317.942382812 c 0,10,11
 679 375 679 375 690.211914062 446.451171875 c 0,12,13
 716 614 716 614 802.069335938 713.95703125 c 0,14,15
 876 801 876 801 988.321289062 800.637695312 c 0,16,17
 1155 801 1155 801 1246.70996094 585.977539062 c 0,18,19
 1305 450 1305 450 1305.49804688 222 c 0,20,21
 1306 1 1306 1 1248.87597656 -134.638671875 c 0,22,23
 1123 -434 1123 -434 689.077148438 -434.131835938 c 0,24,25
 368 -434 368 -434 224.650390625 -279.431640625 c 0,26,27
 90 -134 90 -134 89.78515625 98.705078125 c 0,28,29
 90 296 90 296 199.5234375 539.53125 c 1,30,-1
 337.994140625 500.465820312 l 1,31,32
 286 329 286 329 286.004882812 206.375976562 c 0,33,34
 286 71 286 71 348.44140625 -5.27734375 c 0,35,36
 454 -134 454 -134 688.911132812 -133.294921875 c 0,0,1
1138.61230469 372.79296875 m 1,37,38
 1095 558 1095 558 957.634765625 558.427734375 c 0,39,40
 880 558 880 558 850.114257812 478.1640625 c 0,41,42
 839 450 839 450 839.44921875 428.296875 c 0,43,44
 839 405 839 405 851.451171875 387.860351562 c 0,45,46
 877 353 877 353 978.212890625 352.830078125 c 0,47,48
 1081 353 1081 353 1138.61230469 372.79296875 c 1,37,38
EndSplineSet
Substitution2: "'init' Initial Forms in Arabic lookup 13 subtable" uni066F.init
Substitution2: "'medi' Medial Forms in Arabic lookup 11 subtable" uni066F.medi
Substitution2: "'fina' Terminal Forms in Arabic lookup 9 subtable" uni066F.fina
EndChar

StartChar: uni0670
Encoding: 1648 1648 72
Width: 0
VWidth: 2983
GlyphClass: 4
Flags: W
AnchorPoint: "Anchor-10" 756.062 1757.67 mark 0
AnchorPoint: "Anchor-9" 756.062 1757.67 mark 0
AnchorPoint: "Anchor-1" 744.304 2295.04 basemark 0
AnchorPoint: "Anchor-1" 756.062 1757.67 mark 0
LayerCount: 2
Fore
SplineSet
730.2890625 1804.25976562 m 1,0,-1
 674.0234375 2172.31933594 l 5,1,-1
 814.170898438 2255.7734375 l 5,2,-1
 814.170898438 1832.16113281 l 1,3,-1
 730.2890625 1804.25976562 l 1,0,-1
EndSplineSet
EndChar

StartChar: uni0674
Encoding: 1652 1652 73
Width: 802
VWidth: 2763
GlyphClass: 2
Flags: W
LayerCount: 2
Fore
SplineSet
193.499023438 1765.28027344 m 1,0,-1
 217.942382812 1932.86523438 l 1,1,2
 225.065429688 1935.98828125 225.065429688 1935.98828125 280.864257812 1962.21972656 c 2,3,-1
 302.837890625 1972.36230469 l 1,4,-1
 280.525390625 1981.73828125 l 2,5,6
 153.598632812 2035.1875 153.598632812 2035.1875 208.264648438 2214.41699219 c 0,7,8
 262.3984375 2393.58496094 262.3984375 2393.58496094 431.634765625 2393.06640625 c 0,9,10
 531.196289062 2392.51855469 531.196289062 2392.51855469 599.3984375 2330.49121094 c 1,11,-1
 615.150390625 2315.04394531 l 1,12,-1
 572.3515625 2219.36230469 l 1,13,14
 339.499023438 2281.87011719 339.499023438 2281.87011719 306.993164062 2156.45605469 c 0,15,16
 302.931640625 2140.78613281 302.931640625 2140.78613281 307.954101562 2128.69433594 c 0,17,18
 351.266601562 2029.39648438 351.266601562 2029.39648438 548.057617188 2077.32617188 c 0,19,20
 599.462890625 2089.58691406 599.462890625 2089.58691406 607.770507812 2083.61425781 c 28,21,22
 616.606445312 2077.80273438 616.606445312 2077.80273438 616.260742188 2039.9453125 c 2,23,-1
 615.344726562 1939.75585938 l 1,24,25
 421.331054688 1875.18847656 421.331054688 1875.18847656 193.499023438 1765.28027344 c 1,0,-1
EndSplineSet
EndChar

StartChar: uni06A1
Encoding: 1697 1697 77
Width: 1724
VWidth: 3781
GlyphClass: 2
Flags: W
AnchorPoint: "Anchor-10" 744.373 1455.85 basechar 0
AnchorPoint: "Anchor-7" 617.96 -190.295 basechar 0
LayerCount: 2
Fore
SplineSet
850.345703125 0 m 2,0,1
 479 0 479 0 297.043945312 99.7861328125 c 0,2,3
 87 215 87 215 86.4306640625 489.08203125 c 0,4,5
 86 686 86 686 185.948242188 882.258789062 c 1,6,-1
 303.756835938 839.514648438 l 1,7,8
 271 721 271 721 271.442382812 634.133789062 c 0,9,10
 271 542 271 542 308.154296875 486.359375 c 0,11,12
 418 321 418 321 867.231445312 320.80078125 c 0,13,14
 1245.16093343 320.996458987 1245.16093343 320.996458987 1348.29394531 348.80078125 c 0,15,16
 1455.66454121 377.909056788 1455.66454121 377.909056788 1463.36425781 441.358398438 c 2,17,-1
 1465.08203125 455.513671875 l 1,18,19
 1350 437 1350 437 1275.3928374 437.163580831 c 0,20,21
 1039 437 1039 437 1010.47851562 603.948242188 c 0,22,23
 1005 636 1005 636 1004.98731798 675.173453434 c 0,24,25
 1005 732 1005 732 1016.5546875 803.359375 c 0,26,27
 1044 971 1044 971 1128.41210938 1070.86523438 c 0,28,29
 1203 1158 1203 1158 1313.50722184 1157.54825271 c 0,30,31
 1466.40144397 1158.14629487 1466.40144397 1158.14629487 1556.86202937 978 c 0,32,33
 1643.04179549 806.378674662 1643.04179549 806.378674662 1643.18331938 530.000326404 c 0,34,35
 1643 244 1643 244 1466.65527344 118.322265625 c 0,36,37
 1301 0 1301 0 901.59375 0 c 2,38,-1
 850.345703125 0 l 2,0,1
1464.95507812 729.701171875 m 1,39,40
 1421 915 1421 915 1283.97753906 915.3359375 c 0,41,42
 1206 915 1206 915 1176.45703125 835.072265625 c 0,43,44
 1166 807 1166 807 1165.79199219 785.205078125 c 0,45,46
 1166 762 1166 762 1177.79394531 744.768554688 c 0,47,48
 1203 710 1203 710 1304.55566406 709.73828125 c 0,49,50
 1407 710 1407 710 1464.95507812 729.701171875 c 1,39,40
EndSplineSet
Substitution2: "'init' Initial Forms in Arabic lookup 13 subtable" uni06A1.init
Substitution2: "'medi' Medial Forms in Arabic lookup 11 subtable" uni06A1.medi
Substitution2: "'fina' Terminal Forms in Arabic lookup 9 subtable" uni06A1.fina
EndChar

StartChar: uni06A9
Encoding: 1705 1705 78
Width: 1896
VWidth: 3732
GlyphClass: 2
Flags: W
AnchorPoint: "Anchor-10" 990.151 1449.71 basechar 0
AnchorPoint: "Anchor-7" 763.197 -230.921 basechar 0
LayerCount: 2
Fore
SplineSet
1225.07421875 1071.52050781 m 1,0,1
 1628 748 1628 748 1627.96321246 481.691068432 c 0,2,3
 1628 319 1628 319 1521.40234375 208.561523438 c 0,4,5
 1319 0 1319 0 812.74609375 0 c 0,6,7
 482 0 482 0 300.232421875 99.791015625 c 0,8,9
 90 214 90 214 89.9846464504 490.210543071 c 0,10,11
 90 688 90 688 189.262695312 881.0859375 c 1,12,-1
 306.768554688 838.486328125 l 1,13,14
 277 717 277 717 276.500578211 631.006286858 c 0,15,16
 277 538 277 538 311.3984375 486.293945312 c 0,17,18
 420 322 420 322 812.657226562 322.076171875 c 0,19,20
 1217 322 1217 322 1410 423.188823269 c 0,21,22
 1444 441 1444 441 1443.84979243 463.055410581 c 0,23,24
 1444 478 1444 478 1419.59082031 512.530273438 c 0,25,26
 1315 659 1315 659 945.403320312 959.029296875 c 1,27,-1
 1006.64160156 1245.984375 l 1,28,-1
 1801.015625 1540.671875 l 2,29,30
 1850.27702952 1559.10365411 1850.27702952 1559.10365411 1841.52929688 1501.359375 c 2,31,-1
 1808.07421875 1280.52050781 l 1,32,-1
 1225.07421875 1071.52050781 l 1,0,1
EndSplineSet
Substitution2: "'init' Initial Forms in Arabic lookup 13 subtable" uniFB90
Substitution2: "'medi' Medial Forms in Arabic lookup 11 subtable" uniFB91
Substitution2: "'fina' Terminal Forms in Arabic lookup 9 subtable" uniFB8F
EndChar

StartChar: afii57509
Encoding: 1711 1711 79
Width: 1903
VWidth: 3742
GlyphClass: 2
Flags: W
AnchorPoint: "Anchor-10" 1048.82 1579.04 basechar 0
AnchorPoint: "Anchor-7" 702.531 -209.588 basechar 0
LayerCount: 2
Fore
SplineSet
1236.07421875 1009.52050781 m 1,0,1
 1588 735 1588 735 1587.69305204 476.626034896 c 0,2,3
 1588 324 1588 324 1478.06933594 211.161132812 c 0,4,5
 1273 0 1273 0 808.079101562 0 c 0,6,7
 483 0 483 0 301.298828125 99.791015625 c 0,8,9
 90 214 90 214 90.333339899 488.499066617 c 0,10,11
 90 687 90 687 190.329101562 881.0859375 c 1,12,-1
 307.8359375 838.486328125 l 1,13,14
 278 717 278 717 277.534085096 630.998417907 c 0,15,16
 278 538 278 538 312.46484375 486.293945312 c 0,17,18
 423 322 423 322 782.74900623 322.102475105 c 0,19,20
 1213 322 1213 322 1382 430.958007812 c 0,21,22
 1406 446 1406 446 1406.20346976 465 c 0,23,24
 1406 474 1406 474 1401 483.918945312 c 0,25,26
 1322 628 1322 628 957.860351562 899.9296875 c 1,27,-1
 1017.64160156 1183.984375 l 1,28,-1
 1812.015625 1478.671875 l 2,29,30
 1861.27702952 1497.10365411 1861.27702952 1497.10365411 1852.52929688 1439.359375 c 2,31,-1
 1819.07421875 1218.52050781 l 1,32,-1
 1236.07421875 1009.52050781 l 1,0,1
EndSplineSet
Refer: 270 -1 N 1.1342 0 0 1.1342 1028.95 -603.254 2
Substitution2: "'init' Initial Forms in Arabic lookup 13 subtable" uniFB94
Substitution2: "'medi' Medial Forms in Arabic lookup 11 subtable" uniFB95
Substitution2: "'fina' Terminal Forms in Arabic lookup 9 subtable" uniFB93
EndChar

StartChar: afii57514
Encoding: 1722 1722 80
Width: 1406
VWidth: 3753
GlyphClass: 2
Flags: W
LayerCount: 2
Fore
SplineSet
1090.51660156 -280.879882812 m 0,0,1
 932 -399 932 -399 681.224609375 -398.930664062 c 0,2,3
 368 -399 368 -399 224.620117188 -244.232421875 c 0,4,5
 90 -98 90 -98 89.7550680954 133.90412246 c 0,6,7
 90 331 90 331 199.493164062 574.73046875 c 1,8,-1
 337.963867188 535.665039062 l 1,9,10
 286 365 286 365 285.974269585 241.575314519 c 0,11,12
 286 107 286 107 348.411132812 29.921875 c 0,13,14
 452 -98 452 -98 683.77863929 -98.0808193383 c 0,15,16
 990 -98 990 -98 1099.60351562 72.1884765625 c 0,17,18
 1143.94096327 139.033148388 1143.94096327 139.033148388 1121.36914062 215.448242188 c 4,19,20
 1083 351 1083 351 996.793945312 495.997070312 c 1,21,-1
 1138.75976562 706.12890625 l 2,22,23
 1159 736 1159 736 1185.52734375 693.329101562 c 0,24,25
 1328 466 1328 466 1328.16965594 200.620746586 c 0,26,27
 1328 -105 1328 -105 1090.51660156 -280.879882812 c 0,0,1
EndSplineSet
Substitution2: "'init' Initial Forms in Arabic lookup 13 subtable" uni06BA.init
Substitution2: "'medi' Medial Forms in Arabic lookup 11 subtable" uni06BA.medi
Substitution2: "'fina' Terminal Forms in Arabic lookup 9 subtable" uniFB9F
EndChar

StartChar: uni06F4
Encoding: 1780 1780 87
Width: 1240
VWidth: 3103
GlyphClass: 2
Flags: W
LayerCount: 2
Fore
SplineSet
527.033203125 812.421875 m 1,0,1
 673 718 673 718 861.328125 733.86328125 c 0,2,3
 863 734 863 734 864.311523438 733.85546875 c 0,4,5
 1023 734 1023 734 1159.99316406 825.061523438 c 1,6,-1
 1130.74707031 1020.53125 l 1,7,8
 1010 966 1010 966 908.265625 966.440429688 c 0,9,10
 825 966 825 966 753.595703125 1002.95214844 c 0,11,12
 705 1028 705 1028 705.393554688 1064.9375 c 0,13,14
 705 1139 705 1139 753.768554688 1190.81933594 c 0,15,16
 817 1258 817 1258 915.404296875 1257.92285156 c 0,17,18
 986 1258 986 1258 1074.89453125 1223.47851562 c 1,19,-1
 1123.51269531 1346.18652344 l 1,20,21
 1015 1478 1015 1478 858.958984375 1478.33203125 c 0,22,23
 726 1478 726 1478 643.729492188 1390.10449219 c 0,24,25
 580 1321 580 1321 562.663085938 1232.92578125 c 0,26,27
 550 1171 550 1171 549.444335938 1122.12792969 c 0,28,29
 549 1092 549 1092 556.193359375 1074.31738281 c 1,30,-1
 527.064453125 1095.67675781 l 2,31,32
 432.015561395 1164.98865226 432.015561395 1164.98865226 374.73828125 1352.44628906 c 2,33,-1
 346.727539062 1444.12011719 l 2,34,35
 336.133114527 1478.56718693 336.133114527 1478.56718693 304.931640625 1452.49511719 c 2,36,-1
 110.375 1289.92285156 l 1,37,38
 388 539 388 539 418.086914062 -2.189453125 c 1,39,40
 567 22 567 22 584.262695312 25.06640625 c 0,41,42
 610.622447299 30.7860071192 610.622447299 30.7860071192 608.62109375 97.6611328125 c 4,43,44
 609 368 609 368 527.033203125 812.421875 c 1,0,1
EndSplineSet
EndChar

StartChar: uni06F5
Encoding: 1781 1781 88
Width: 1290
VWidth: 3183
GlyphClass: 2
Flags: W
LayerCount: 2
Fore
SplineSet
680.916015625 560.608398438 m 1,0,1
 743 292 743 292 914.654296875 301.751953125 c 0,2,3
 919 302 919 302 923.888671875 303.247070312 c 0,4,5
 1025 323 1025 323 1000.1640625 459.260742188 c 0,6,7
 966 650 966 650 594.9453125 1036.75585938 c 5,8,9
 313 628 313 628 278.56640625 439.109375 c 0,10,11
 253 298 253 298 388.485351562 299.44921875 c 0,12,13
 532 301 532 301 596.400390625 562.147460938 c 1,14,-1
 680.916015625 560.608398438 l 1,0,1
365.862304688 9.302734375 m 0,15,16
 101 9 101 9 97.1396484375 322.049804688 c 0,17,18
 93 638 93 638 470.022460938 1210.40429688 c 5,19,-1
 427.796875 1258.53613281 l 5,20,-1
 553.440429688 1453 l 6,21,22
 567 1474 567 1474 589.5625 1451 c 4,23,24
 1187 834 1187 834 1186.77832031 379.869140625 c 0,25,26
 1186 9 1186 9 918.938476562 9.98046875 c 0,27,28
 740.143706691 10.9991812076 740.143706691 10.9991812076 654.360351562 174.780273438 c 2,29,-1
 644.299804688 193.98828125 l 1,30,-1
 635.224609375 174.295898438 l 2,31,32
 559 9 559 9 365.862304688 9.302734375 c 0,15,16
EndSplineSet
EndChar

StartChar: uni06F6
Encoding: 1782 1782 89
Width: 1074
VWidth: 3397
GlyphClass: 2
Flags: W
LayerCount: 2
Fore
SplineSet
438.129882812 651.431640625 m 2,0,1
 119.999807691 707.959499002 119.999807691 707.959499002 121.563476562 1037.27441406 c 0,2,3
 122 1107 122 1107 156.8984375 1189.95996094 c 0,4,5
 279 1478 279 1478 553.752929688 1477.70703125 c 0,6,7
 711 1478 711 1478 843.348632812 1360.80273438 c 1,8,-1
 785.998046875 1194.28222656 l 1,9,10
 678 1223 678 1223 578.663085938 1223.19238281 c 0,11,12
 411 1223 411 1223 339.301757812 1132.46386719 c 0,13,14
 293 1074 293 1074 292.80859375 1037.93359375 c 0,15,16
 293 1011 293 1011 308.265625 989.266601562 c 0,17,18
 390.850339287 869.217553892 390.850339287 869.217553892 678.35546875 868.127929688 c 2,19,-1
 681.962890625 868.114257812 l 1,20,21
 775 923 775 923 949.327148438 1006.31054688 c 0,22,23
 957 1010 957 1010 963.643554688 1010.02832031 c 0,24,25
 984 1010 984 1010 982.296875 975.772460938 c 0,26,27
 982 970 982 970 981.84765625 964.315429688 c 2,28,-1
 966.546875 745.15234375 l 1,29,30
 829 667 829 667 520.86328125 338.583007812 c 4,31,32
 331 137 331 137 233.245117188 -8.6826171875 c 1,33,-1
 123.732421875 93.6376953125 l 2,34,35
 111 106 111 106 110.648981134 123.573765472 c 0,36,37
 111 141 111 141 122.877929688 164.265625 c 0,38,39
 211 331 211 331 456.958984375 648.0859375 c 1,40,-1
 438.129882812 651.431640625 l 2,0,1
EndSplineSet
EndChar

StartChar: uniFB8F
Encoding: 64399 64399 104
Width: 2133
VWidth: 3732
GlyphClass: 2
Flags: W
AnchorPoint: "Anchor-7" 769.998 -222.921 basechar 0
AnchorPoint: "Anchor-10" 1016.28 1443.71 basechar 0
LayerCount: 2
Fore
SplineSet
1410 423.188476562 m 0,0,1
 1448 444 1448 444 1447.33730201 465.365809863 c 0,2,3
 1447 480 1447 480 1423.796875 513.235351562 c 0,4,5
 1327 653 1327 653 949.609375 959.734375 c 1,6,-1
 1013.56738281 1244.46386719 l 1,7,-1
 1852 1550.3125 l 2,8,9
 1901.15725213 1568.05676321 1901.15725213 1568.05676321 1892.51367188 1511 c 2,10,-1
 1859.05859375 1290.16113281 l 1,11,-1
 1229.07421875 1068.52050781 l 1,12,13
 1495 813 1495 813 1681.14355469 592.311523438 c 0,14,15
 1906.77722703 324.264648438 1906.77722703 324.264648438 2120.54101562 324.264648438 c 2,16,-1
 2138 324.264648438 l 2,17,18
 2163.0078125 323.999917297 2163.0078125 323.999917297 2163.0078125 197 c 2,19,-1
 2163.0078125 124 l 2,20,21
 2163 0 2163 0 2138 0 c 2,22,-1
 2120.984375 0 l 2,23,24
 1816 0 1816 0 1582 309 c 1,25,26
 1568 270 1568 270 1517.63769531 215.978515625 c 0,27,28
 1317 0 1317 0 812.74609375 0 c 0,29,30
 485 0 485 0 300.232421875 99.791015625 c 0,31,32
 89 214 89 214 89.2895928082 489 c 0,33,34
 89 687 89 687 189.262695312 881.0859375 c 1,35,-1
 306.768554688 838.486328125 l 1,36,37
 277 717 277 717 276.500578211 631.006286858 c 0,38,39
 277 538 277 538 311.3984375 486.293945312 c 0,40,41
 422 322 422 322 802.706054688 322.076171875 c 0,42,43
 1225 322 1225 322 1410 423.188476562 c 0,0,1
EndSplineSet
EndChar

StartChar: uniFB93
Encoding: 64403 64403 108
Width: 2076
VWidth: 3742
GlyphClass: 2
Flags: W
AnchorPoint: "Anchor-7" 764.531 -199.588 basechar 0
AnchorPoint: "Anchor-10" 1012.82 1613.04 basechar 0
LayerCount: 2
Fore
SplineSet
1236.07421875 1009.52050781 m 1,0,1
 1450 807 1450 807 1651.41015625 574.645507812 c 0,2,3
 1869.76919809 324.264648438 1869.76919809 324.264648438 2052.94140625 324.264648438 c 2,4,-1
 2081 324.264648438 l 2,5,6
 2106.0078125 323.999917297 2106.0078125 323.999917297 2106.0078125 197 c 2,7,-1
 2106.0078125 124 l 2,8,9
 2106 0 2106 0 2081 0 c 2,10,-1
 2053.38476562 0 l 2,11,12
 1789 0 1789 0 1556 308 c 1,13,14
 1541 276 1541 276 1478.73632812 211.161132812 c 0,15,16
 1274 0 1274 0 798.079101562 0 c 0,17,18
 485 0 485 0 300.232421875 99.791015625 c 0,19,20
 89 214 89 214 89.2894666396 488.575735823 c 0,21,22
 89 686 89 686 189.262695312 881.0859375 c 1,23,-1
 307.8359375 838.486328125 l 1,24,25
 278 717 278 717 277.534085096 630.998417907 c 0,26,27
 278 538 278 538 312.46484375 486.293945312 c 0,28,29
 423 322 423 322 782.74900623 322.102475105 c 0,30,31
 1204 322 1204 322 1382 430.958007812 c 0,32,33
 1405 445 1405 445 1405.59134287 466 c 0,34,35
 1406 475 1406 475 1401 483.918945312 c 0,36,37
 1332 628 1332 628 957.860351562 899.9296875 c 1,38,-1
 1017.64160156 1183.984375 l 1,39,-1
 1812.015625 1478.671875 l 2,40,41
 1861.27702952 1497.10365411 1861.27702952 1497.10365411 1852.52929688 1439.359375 c 2,42,-1
 1819.07421875 1218.52050781 l 1,43,-1
 1236.07421875 1009.52050781 l 1,0,1
EndSplineSet
Refer: 270 -1 N 1.1342 0 0 1.1342 1027.89 -603.254 2
EndChar

StartChar: uniFB94
Encoding: 64404 64404 109
Width: 980
VWidth: 3742
GlyphClass: 2
Flags: W
AnchorPoint: "Anchor-10" 250.998 1710.84 basechar 0
AnchorPoint: "Anchor-7" 334.15 -245.139 basechar 0
LayerCount: 2
Fore
SplineSet
307.07421875 1008.52050781 m 1,0,1
 673 743 673 743 673.555701361 456.741976879 c 0,2,3
 674 295 674 295 559.787109375 178.072265625 c 0,4,5
 387 0 387 0 99.2197265625 0 c 2,6,-1
 -4.9921875 0 l 2,7,8
 -60 0 -60 0 -60 144 c 2,9,-1
 -60 177 l 2,10,11
 -60 324.265233381 -60 324.265233381 -4.9921875 324.264648438 c 2,12,-1
 95.680887868 324.263577898 l 2,13,14
 347 324 347 324 435.119140625 389.159179688 c 0,15,16
 481 423 481 423 480.827936792 453.658758811 c 0,17,18
 481 557 481 557 27 897 c 1,19,-1
 88.6416015625 1182.984375 l 1,20,-1
 883.015625 1477.671875 l 2,21,22
 932.277029525 1496.10365411 932.277029525 1496.10365411 923.529296875 1438.359375 c 2,23,-1
 890.07421875 1217.52050781 l 1,24,-1
 307.07421875 1008.52050781 l 1,0,1
EndSplineSet
Refer: 270 -1 N 1.1342 0 0 1.1342 105.231 -603.254 2
EndChar

StartChar: uniFB95
Encoding: 64405 64405 110
Width: 1135
VWidth: 3742
GlyphClass: 2
Flags: W
AnchorPoint: "Anchor-10" 244.55 1714.33 basechar 0
AnchorPoint: "Anchor-7" 367.424 -218.488 basechar 0
LayerCount: 2
Fore
SplineSet
307.07421875 1008.52050781 m 1,0,1
 546 790 546 790 725.329101562 588.795898438 c 0,2,3
 959.765459786 324.264648438 959.765459786 324.264648438 1127.82617188 324.264648438 c 2,4,-1
 1140 324.264648438 l 2,5,6
 1165.0078125 323.999917297 1165.0078125 323.999917297 1165.0078125 197 c 2,7,-1
 1165.0078125 124 l 2,8,9
 1165 0 1165 0 1140 0 c 2,10,-1
 1128.25878906 0 l 2,11,12
 866 0 866 0 628.529296875 314.931640625 c 1,13,14
 603 223 603 223 539.787109375 158.072265625 c 0,15,16
 388 0 388 0 99.2197265625 0 c 2,17,-1
 -4.9921875 0 l 2,18,19
 -60 0 -60 0 -60 144 c 2,20,-1
 -60 177 l 2,21,22
 -60 324.265233288 -60 324.265233288 -4.9921875 324.264648438 c 2,23,-1
 95.6970029689 324.263577898 l 2,24,25
 347 324 347 324 435.119140625 389.159179688 c 0,26,27
 481 423 481 423 480.641427762 453.941495368 c 0,28,29
 481 558 481 558 27.06640625 893.596679688 c 1,30,-1
 88.6416015625 1182.984375 l 1,31,-1
 883.015625 1477.671875 l 2,32,33
 932.277029525 1496.10365411 932.277029525 1496.10365411 923.529296875 1438.359375 c 2,34,-1
 890.07421875 1217.52050781 l 1,35,-1
 307.07421875 1008.52050781 l 1,0,1
EndSplineSet
Refer: 270 -1 N 1.1342 0 0 1.1342 105.231 -603.254 2
EndChar

StartChar: uniFB9F
Encoding: 64415 64415 112
Width: 1503
VWidth: 3752
GlyphClass: 2
Flags: W
AnchorPoint: "Anchor-10" 575.322 1014.17 basechar 0
AnchorPoint: "Anchor-7" 450.537 -999.98 basechar 0
LayerCount: 2
Fore
SplineSet
1099.61328125 -64.3388671875 m 4,0,1
 1144 4 1144 4 1121.35839844 79.0244140625 c 0,2,3
 1078 222 1078 222 998.926757812 360.258789062 c 1,4,-1
 1137.91113281 568.529296875 l 2,5,6
 1157.11044733 598.170516168 1157.11044733 598.170516168 1178.14648438 557.86328125 c 2,7,-1
 1198.54003906 518.787109375 l 2,8,9
 1261 399 1261 399 1303.99121094 363.197265625 c 0,10,11
 1350.68261045 324.264648438 1350.68261045 324.264648438 1475.49414062 324.264648438 c 2,12,-1
 1508 324.264648438 l 2,13,14
 1533.0078125 323.999917297 1533.0078125 323.999917297 1533.0078125 197 c 2,15,-1
 1533.0078125 124 l 2,16,17
 1533 0 1533 0 1508 0 c 2,18,-1
 1475.265625 0 l 2,19,20
 1396 0 1396 0 1311.94921875 46.9755859375 c 1,21,22
 1301 -261 1301 -261 1090.52734375 -417.408203125 c 0,23,24
 931 -535 931 -535 679.056842518 -535.459893493 c 0,25,26
 368 -535 368 -535 224.629882812 -380.759765625 c 0,27,28
 90 -235 90 -235 89.7646484375 -2.623046875 c 0,29,30
 90 195 90 195 199.502929688 438.203125 c 1,31,-1
 337.973632812 399.137695312 l 1,32,33
 286 228 286 228 285.984375 105.047851562 c 0,34,35
 286 -30 286 -30 348.420898438 -106.60546875 c 0,36,37
 452 -235 452 -235 678.891073331 -234.623205473 c 0,38,39
 989 -235 989 -235 1099.61328125 -64.3388671875 c 4,0,1
EndSplineSet
EndChar

StartChar: uniFBE8
Encoding: 64488 64488 115
Width: 635
VWidth: 3752
GlyphClass: 2
Flags: W
AnchorPoint: "Anchor-10" 323.261 1281.2 basechar 0
AnchorPoint: "Anchor-7" 350.876 -249.875 basechar 0
LayerCount: 2
Fore
SplineSet
334.096097762 432.633967146 m 0,0,1
 334 499 334 499 244.131835938 710.12890625 c 1,2,-1
 390.040039062 895.727539062 l 2,3,4
 405 915 405 915 419.176025391 915.363769531 c 0,5,6
 433 915 433 915 444.6640625 895.727539062 c 0,7,8
 555 711 555 711 554.9296875 527.596679688 c 0,9,10
 555 292 555 292 443 146.5 c 0,11,12
 330 0 330 0 84.748046875 0 c 2,13,-1
 -4.9921875 0 l 2,14,15
 -60 0 -60 0 -60 144 c 2,16,-1
 -60 177 l 2,17,18
 -60 324.265140238 -60 324.265140238 -4.9921875 324.264648438 c 2,19,-1
 98.9231195679 324.263719378 l 2,20,21
 275 324 275 324 326.576171875 399.122070312 c 0,22,23
 334 410 334 410 334.096097762 432.633967146 c 0,0,1
EndSplineSet
EndChar

StartChar: uniFBE9
Encoding: 64489 64489 116
Width: 728
VWidth: 3731
GlyphClass: 2
Flags: W
AnchorPoint: "Anchor-10" 396.951 1169.04 basechar 0
AnchorPoint: "Anchor-7" 371.317 -208.84 basechar 0
LayerCount: 2
Fore
SplineSet
733 0 m 2,0,-1
 712.389648438 0 l 2,1,2
 519 0 519 0 412.943359375 168.827148438 c 1,3,4
 302 0 302 0 88.5009765625 0 c 2,5,-1
 -4.9921875 0 l 2,6,7
 -60 0 -60 0 -60 144 c 6,8,-1
 -60 177 l 6,9,10
 -60 324.264648438 -60 324.264648438 -4.9921875 324.264648438 c 2,11,-1
 63.849609375 324.264648438 l 2,12,13
 319.680383715 324.00033022 319.680383715 324.00033022 334.16796875 472.487304688 c 2,14,-1
 352.883789062 664.310546875 l 1,15,-1
 496.211914062 664.374023438 l 1,16,-1
 515.724609375 475.174804688 l 2,17,18
 530.973258717 324.264648438 530.973258717 324.264648438 712.548828125 324.264648438 c 2,19,-1
 733 324.264648438 l 2,20,21
 758.0078125 323.999917297 758.0078125 323.999917297 758.0078125 197 c 2,22,-1
 758.0078125 124 l 2,23,24
 758 0 758 0 733 0 c 2,0,-1
EndSplineSet
EndChar

StartChar: uniFE73
Encoding: 65139 65139 124
Width: 895
VWidth: 3443
GlyphClass: 2
Flags: W
AnchorPoint: "Anchor-10" 331.315 2023.42 basechar 0
AnchorPoint: "Anchor-7" 331.315 -162.932 basechar 0
LayerCount: 2
Fore
SplineSet
460.806640625 563.60546875 m 2,0,1
 460.806640625 550.740234375 460.806640625 550.740234375 462.133789062 538.1640625 c 128,-1,2
 463.4609375 525.588867188 463.4609375 525.588867188 466.116210938 513.32421875 c 0,3,4
 471.424804688 488.806640625 471.424804688 488.806640625 482.107421875 465.235351562 c 0,5,6
 503.55859375 417.905273438 503.55859375 417.905273438 546.400390625 375.064453125 c 0,7,8
 589.458007812 332.005859375 589.458007812 332.005859375 655.2265625 310.737304688 c 128,-1,9
 720.993164062 289.46875 720.993164062 289.46875 808.9453125 289.46875 c 2,10,-1
 909.849609375 289.46875 l 1,11,-1
 909.849609375 30.4833984375 l 1,12,-1
 716.446289062 30.4833984375 l 2,13,14
 488.0859375 30.4833984375 488.0859375 30.4833984375 344.952148438 173.616210938 c 128,-1,15
 201.822265625 316.748046875 201.822265625 316.748046875 201.822265625 543.426757812 c 2,16,-1
 201.822265625 590.508789062 l 1,17,-1
 460.806640625 590.508789062 l 1,18,-1
 460.806640625 563.60546875 l 2,0,1
EndSplineSet
EndChar

StartChar: uniFE8E
Encoding: 65166 65166 150
Width: 589
VWidth: 3713
GlyphClass: 2
Flags: W
AnchorPoint: "Anchor-10" 248.829 1627.84 basechar 0
AnchorPoint: "Anchor-7" 341.406 -219.797 basechar 0
LayerCount: 2
Fore
SplineSet
594 0 m 2,0,-1
 541.87109375 0 l 2,1,2
 255 0 255 0 191.364257812 236.998046875 c 0,3,4
 166.867443498 327.489665812 166.867443498 327.489665812 164.875976562 541.935546875 c 2,5,6
 163.590820312 680.32421875 l 2,7,8
 159 1175 159 1175 117.19921875 1375.12402344 c 1,9,-1
 329.864257812 1496.52050781 l 2,10,11
 386 1529 386 1529 388.595703125 1444 c 0,12,13
 400.818192101 1059.71617089 400.818192101 1059.71617089 399.20703125 933.107421875 c 2,14,-1
 395.452148438 638.040039062 l 2,15,16
 393 455 393 455 429.31640625 396.045898438 c 0,17,18
 473.835862366 324.264648438 473.835862366 324.264648438 577.482421875 324.264648438 c 2,19,-1
 594 324.264648438 l 2,20,21
 619.0078125 323.999917297 619.0078125 323.999917297 619.0078125 197 c 2,22,-1
 619.0078125 124 l 2,23,24
 619 0 619 0 594 0 c 2,0,-1
EndSplineSet
EndChar

StartChar: uniFEA2
Encoding: 65186 65186 170
Width: 1351
VWidth: 3747
GlyphClass: 2
Flags: W
AnchorPoint: "Anchor-10" 604.639 1260.69 basechar 0
AnchorPoint: "Anchor-7" 627.069 -846.974 basechar 0
LayerCount: 2
Fore
SplineSet
1356 0 m 2,0,-1
 1325.58007812 0 l 2,1,2
 930 0 930 0 872.528320312 427.568359375 c 1,3,4
 739 391 739 391 644.262695312 343.46484375 c 0,5,6
 313 176 313 176 312.967773438 -83.244140625 c 0,7,8
 313 -358 313 -358 775.9453125 -357.999023438 c 0,9,10
 941 -358 941 -358 1062.21582031 -342.524414062 c 0,11,12
 1210 -324 1210 -324 1213.11816406 -323.709960938 c 0,13,14
 1238 -322 1238 -322 1222.84765625 -354.931640625 c 0,15,16
 1111 -587 1111 -587 1051.47753906 -625.091796875 c 0,17,18
 1014 -649 1014 -649 780.87109375 -649.381835938 c 0,19,20
 445 -649 445 -649 287.336914062 -501.037109375 c 0,21,22
 127 -351 127 -351 127.255859375 -105.077148438 c 0,23,24
 127 311 127 311 456.290039062 512.55859375 c 0,25,26
 595 597 595 597 718.928710938 619.729492188 c 1,27,28
 715 620 715 620 620.262695312 641.595703125 c 0,29,30
 471 676 471 676 400.891601562 676.16796875 c 0,31,32
 303 676 303 676 202.727539062 557.0390625 c 1,33,34
 146 592 146 592 89.8544921875 628.354492188 c 1,35,36
 131 734 131 734 196.84375 812.190429688 c 0,37,38
 300 935 300 935 428.663085938 935.099609375 c 0,39,40
 505 935 505 935 995.850585938 787.891601562 c 0,41,42
 1089 760 1089 760 1233.22851562 757.337890625 c 0,43,44
 1251.46025719 756.991249094 1251.46025719 756.991249094 1245.35253906 740.26171875 c 2,45,-1
 1153.05957031 487.463867188 l 1,46,47
 1079 485 1079 485 1013.32714844 464.171875 c 1,48,-1
 1014.22070312 454.07421875 l 2,49,50
 1025.97603389 324.264648438 1025.97603389 324.264648438 1326.56054688 324.264648438 c 2,51,-1
 1356 324.264648438 l 2,52,53
 1381.0078125 323.999917297 1381.0078125 323.999917297 1381.0078125 197 c 2,54,-1
 1381.0078125 124 l 2,55,56
 1381 0 1381 0 1356 0 c 2,0,-1
EndSplineSet
EndChar

StartChar: uniFEA3
Encoding: 65187 65187 171
Width: 1364
VWidth: 3753
GlyphClass: 2
Flags: W
AnchorPoint: "Anchor-10" 475.917 1323.01 basechar 0
AnchorPoint: "Anchor-7" 551.367 -217.229 basechar 0
LayerCount: 2
Fore
SplineSet
-4.9921875 0 m 2,0,1
 -60 0 -60 0 -60 144 c 2,2,-1
 -60 177 l 2,3,4
 -60 324.264648438 -60 324.264648438 -4.9921875 324.264648438 c 2,5,-1
 125.759765625 324.264648438 l 2,6,7
 405.778968769 324.000208734 405.778968769 324.000208734 630.795898438 417.064453125 c 2,8,-1
 880.043945312 520.150390625 l 5,9,10
 783 549 783 549 669.870117188 590.841796875 c 4,11,12
 526 644 526 644 446.8984375 643.755859375 c 4,13,14
 322 644 322 644 211 510 c 5,15,-1
 104.788085938 564.721679688 l 5,16,-1
 113.690429688 587.771484375 l 6,17,18
 239 911 239 911 459.73046875 922.857421875 c 4,19,20
 586 930 586 930 791.712890625 834.32421875 c 4,21,22
 1080 700 1080 700 1230.16601562 688.251953125 c 4,23,24
 1257 686 1257 686 1302.52441406 686.206054688 c 0,25,26
 1319.22280283 685.997213479 1319.22280283 685.997213479 1313.07421875 667.0625 c 2,27,-1
 1233.19238281 421.064453125 l 1,28,29
 1048 378 1048 378 609.659179688 139.504882812 c 0,30,31
 352 0 352 0 102.451171875 0 c 2,32,-1
 -4.9921875 0 l 2,0,1
EndSplineSet
EndChar

StartChar: uniFEA4
Encoding: 65188 65188 172
Width: 1397
VWidth: 3753
GlyphClass: 2
Flags: W
AnchorPoint: "Anchor-10" 490.742 1340.34 basechar 0
AnchorPoint: "Anchor-7" 535.822 -213.864 basechar 0
LayerCount: 2
Fore
SplineSet
1230.16601562 688.251953125 m 4,0,1
 1255 686 1255 686 1302.52441406 686.206054688 c 0,2,3
 1319.76887819 686.002725158 1319.76887819 686.002725158 1313.07421875 667.0625 c 2,4,-1
 1233.19238281 441.064453125 l 1,5,6
 1173 434 1173 434 1039 366.807617188 c 1,7,8
 1075.77125585 324.264648438 1075.77125585 324.264648438 1199.57128906 324.264648438 c 2,9,-1
 1402 324.264648438 l 2,10,11
 1427.0078125 323.999917297 1427.0078125 323.999917297 1427.0078125 197 c 2,12,-1
 1427.0078125 124 l 2,13,14
 1427 0 1427 0 1402 0 c 2,15,-1
 1326.93945312 0 l 2,16,17
 929 0 929 0 876 292.213867188 c 1,18,19
 751 211 751 211 619.659179688 139.504882812 c 0,20,21
 362 0 362 0 102.451171875 0 c 2,22,-1
 -4.9921875 0 l 2,23,24
 -60 0 -60 0 -60 144 c 2,25,-1
 -60 177 l 2,26,27
 -60 324.264648438 -60 324.264648438 -4.9921875 324.264648438 c 2,28,-1
 125.759765625 324.264648438 l 2,29,30
 405.778968768 324.000208734 405.778968768 324.000208734 630.795898438 417.064453125 c 2,31,-1
 880.043945312 520.150390625 l 5,32,33
 783 549 783 549 669.870117188 590.841796875 c 4,34,35
 526 644 526 644 446.8984375 643.755859375 c 4,36,37
 322 644 322 644 211 510 c 5,38,-1
 104.788085938 564.721679688 l 5,39,-1
 113.690429688 587.771484375 l 6,40,41
 239 911 239 911 459.73046875 922.857421875 c 4,42,43
 586 930 586 930 791.712890625 834.32421875 c 4,44,45
 1075 702 1075 702 1230.16601562 688.251953125 c 4,0,1
EndSplineSet
EndChar

StartChar: uniFEAA
Encoding: 65194 65194 178
Width: 1142
VWidth: 3745
GlyphClass: 2
Flags: W
AnchorPoint: "Anchor-10" 639.988 1429.41 basechar 0
AnchorPoint: "Anchor-7" 466.785 -253.689 basechar 0
LayerCount: 2
Fore
SplineSet
696 451 m 2,0,-1
 539.196289062 970.66015625 l 1,1,-1
 680 1104.63422572 l 2,2,3
 701 1125 701 1125 717.094121059 1124.65842125 c 0,4,5
 740.925602686 1124.99893698 740.925602686 1124.99893698 753.690146389 1080 c 2,6,-1
 913.870117188 515.31640625 l 2,7,8
 967.925122005 324.264648438 967.925122005 324.264648438 1125.69726562 324.264648438 c 2,9,-1
 1147 324.264648438 l 2,10,11
 1172.0078125 323.999917297 1172.0078125 323.999917297 1172.0078125 197 c 2,12,-1
 1172.0078125 124 l 2,13,14
 1172 0 1172 0 1147 0 c 2,15,-1
 1115.92675781 0 l 2,16,17
 878 0 878 0 806.359375 223.583984375 c 1,18,19
 653 -0 653 -0 415.060546875 -0.2041015625 c 0,20,21
 89 -0 89 -0 87.2616071464 319.41596311 c 0,22,23
 87 365 87 365 109.764648438 459.969726562 c 1,24,-1
 223.926757812 447.481445312 l 1,25,-1
 225.02734375 418.547851562 l 2,26,27
 229 327 229 327 432.374677217 326.626480751 c 0,28,29
 733 327 733 327 696 451 c 2,0,-1
EndSplineSet
EndChar

StartChar: uniFEAE
Encoding: 65198 65198 182
Width: 880
VWidth: 3752
GlyphClass: 2
Flags: W
AnchorPoint: "Anchor-7" 371.78 -711.673 basechar 0
AnchorPoint: "Anchor-10" 486.712 1095.48 basechar 0
LayerCount: 2
Fore
SplineSet
717 46 m 1,0,1
 675 -243 675 -243 467.24609375 -456 c 0,2,3
 421 -503 421 -503 380 -512.116210938 c 0,4,5
 357.776989644 -517.145268832 357.776989644 -517.145268832 310.714756751 -517.145268832 c 0,6,7
 138.557193243 -517.145268832 138.557193243 -517.145268832 0 -485 c 0,8,9
 -31.5110089214 -477.647431252 -31.5110089214 -477.647431252 -31.5110089214 -454.0484583 c 0,10,11
 -31.5110089214 -439.682167368 -31.5110089214 -439.682167368 25.7890625 -402.438476562 c 0,12,13
 460 -120 460 -120 547.921875 70.3623046875 c 0,14,15
 550.901399067 76.8537919165 550.901399067 76.8537919165 550.901399067 85.9900368442 c 0,16,17
 550.901399067 153.751943149 550.901399067 153.751943149 387 367 c 1,18,-1
 548.434570312 592 l 2,19,20
 557 604 557 604 565.248046875 590 c 0,21,22
 670 406 670 406 719 368.727539062 c 0,23,24
 776.656819719 324.264648438 776.656819719 324.264648438 868.493164062 324.264648438 c 2,25,-1
 885 324.264648438 l 2,26,27
 910.0078125 323.999917297 910.0078125 323.999917297 910.0078125 197 c 2,28,-1
 910.0078125 124 l 2,29,30
 910 0 910 0 885 0 c 2,31,-1
 863.270507812 0 l 2,32,33
 757 0 757 0 717 46 c 1,0,1
EndSplineSet
PairPos2: "'kern' Horizontal Kerning lookup 15-1" uniFBFE dx=53 dy=0 dh=53 dv=0 dx=0 dy=0 dh=0 dv=0
PairPos2: "'kern' Horizontal Kerning lookup 15-1" uniFEF3 dx=53 dy=0 dh=53 dv=0 dx=0 dy=0 dh=0 dv=0
PairPos2: "'kern' Horizontal Kerning lookup 15-1" uniFB58 dx=53 dy=0 dh=53 dv=0 dx=0 dy=0 dh=0 dv=0
PairPos2: "'kern' Horizontal Kerning lookup 15-4" uni0621 dx=-196 dy=0 dh=-196 dv=0 dx=0 dy=0 dh=0 dv=0
PairPos2: "'kern' Horizontal Kerning lookup 15-3" uni0648 dx=-43 dy=0 dh=-43 dv=0 dx=0 dy=0 dh=0 dv=0
PairPos2: "'kern' Horizontal Kerning lookup 15-1" uni0644 dx=-43 dy=0 dh=-43 dv=0 dx=0 dy=0 dh=0 dv=0
PairPos2: "'kern' Horizontal Kerning lookup 15-1" uni0642 dx=-43 dy=0 dh=-43 dv=0 dx=0 dy=0 dh=0 dv=0
PairPos2: "'kern' Horizontal Kerning lookup 15-1" uni0632 dx=-43 dy=0 dh=-43 dv=0 dx=0 dy=0 dh=0 dv=0
PairPos2: "'kern' Horizontal Kerning lookup 15-1" uni0631 dx=-43 dy=0 dh=-43 dv=0 dx=0 dy=0 dh=0 dv=0
PairPos2: "'kern' Horizontal Kerning lookup 15-1" uniFB8A dx=-43 dy=0 dh=-43 dv=0 dx=0 dy=0 dh=0 dv=0
PairPos2: "'kern' Horizontal Kerning lookup 15-1" afii57508 dx=-43 dy=0 dh=-43 dv=0 dx=0 dy=0 dh=0 dv=0
PairPos2: "'kern' Horizontal Kerning lookup 15-1" uniFB7C dx=-128 dy=0 dh=-128 dv=0 dx=0 dy=0 dh=0 dv=0
PairPos2: "'kern' Horizontal Kerning lookup 15-1" uni06CC dx=-43 dy=0 dh=-43 dv=0 dx=0 dy=0 dh=0 dv=0
PairPos2: "'kern' Horizontal Kerning lookup 15-1" uniFEEB dx=-128 dy=0 dh=-128 dv=0 dx=0 dy=0 dh=0 dv=0
PairPos2: "'kern' Horizontal Kerning lookup 15-1" uniFEDF dx=-128 dy=0 dh=-128 dv=0 dx=0 dy=0 dh=0 dv=0
PairPos2: "'kern' Horizontal Kerning lookup 15-1" uniFB90 dx=-196 dy=0 dh=-196 dv=0 dx=0 dy=0 dh=0 dv=0
PairPos2: "'kern' Horizontal Kerning lookup 15-1" uni06A9 dx=-196 dy=0 dh=-196 dv=0 dx=0 dy=0 dh=0 dv=0
PairPos2: "'kern' Horizontal Kerning lookup 15-1" uni0649 dx=-43 dy=0 dh=-43 dv=0 dx=0 dy=0 dh=0 dv=0
PairPos2: "'kern' Horizontal Kerning lookup 15-1" uni0647 dx=-128 dy=0 dh=-128 dv=0 dx=0 dy=0 dh=0 dv=0
PairPos2: "'kern' Horizontal Kerning lookup 15-1" uniFEE7 dx=-128 dy=0 dh=-128 dv=0 dx=0 dy=0 dh=0 dv=0
PairPos2: "'kern' Horizontal Kerning lookup 15-1" uniFEE3 dx=-128 dy=0 dh=-128 dv=0 dx=0 dy=0 dh=0 dv=0
PairPos2: "'kern' Horizontal Kerning lookup 15-1" uni0645 dx=-128 dy=0 dh=-128 dv=0 dx=0 dy=0 dh=0 dv=0
PairPos2: "'kern' Horizontal Kerning lookup 15-1" uniFEDB dx=-196 dy=0 dh=-196 dv=0 dx=0 dy=0 dh=0 dv=0
PairPos2: "'kern' Horizontal Kerning lookup 15-1" uniFED7 dx=-128 dy=0 dh=-128 dv=0 dx=0 dy=0 dh=0 dv=0
PairPos2: "'kern' Horizontal Kerning lookup 15-1" uniFED3 dx=-128 dy=0 dh=-128 dv=0 dx=0 dy=0 dh=0 dv=0
PairPos2: "'kern' Horizontal Kerning lookup 15-1" uni0641 dx=-128 dy=0 dh=-128 dv=0 dx=0 dy=0 dh=0 dv=0
PairPos2: "'kern' Horizontal Kerning lookup 15-1" uniFECF dx=-128 dy=0 dh=-128 dv=0 dx=0 dy=0 dh=0 dv=0
PairPos2: "'kern' Horizontal Kerning lookup 15-1" uniFECB dx=-128 dy=0 dh=-128 dv=0 dx=0 dy=0 dh=0 dv=0
PairPos2: "'kern' Horizontal Kerning lookup 15-1" uniFEC7 dx=-128 dy=0 dh=-128 dv=0 dx=0 dy=0 dh=0 dv=0
PairPos2: "'kern' Horizontal Kerning lookup 15-1" uni0638 dx=-128 dy=0 dh=-128 dv=0 dx=0 dy=0 dh=0 dv=0
PairPos2: "'kern' Horizontal Kerning lookup 15-1" uniFEC3 dx=-128 dy=0 dh=-128 dv=0 dx=0 dy=0 dh=0 dv=0
PairPos2: "'kern' Horizontal Kerning lookup 15-1" uni0637 dx=-128 dy=0 dh=-128 dv=0 dx=0 dy=0 dh=0 dv=0
PairPos2: "'kern' Horizontal Kerning lookup 15-1" uniFEBF dx=-128 dy=0 dh=-128 dv=0 dx=0 dy=0 dh=0 dv=0
PairPos2: "'kern' Horizontal Kerning lookup 15-1" uni0636 dx=-128 dy=0 dh=-128 dv=0 dx=0 dy=0 dh=0 dv=0
PairPos2: "'kern' Horizontal Kerning lookup 15-1" uniFEBB dx=-128 dy=0 dh=-128 dv=0 dx=0 dy=0 dh=0 dv=0
PairPos2: "'kern' Horizontal Kerning lookup 15-1" uni0635 dx=-128 dy=0 dh=-128 dv=0 dx=0 dy=0 dh=0 dv=0
PairPos2: "'kern' Horizontal Kerning lookup 15-1" uniFEB7 dx=-128 dy=0 dh=-128 dv=0 dx=0 dy=0 dh=0 dv=0
PairPos2: "'kern' Horizontal Kerning lookup 15-1" uni0634 dx=-128 dy=0 dh=-128 dv=0 dx=0 dy=0 dh=0 dv=0
PairPos2: "'kern' Horizontal Kerning lookup 15-1" uniFEB3 dx=-128 dy=0 dh=-128 dv=0 dx=0 dy=0 dh=0 dv=0
PairPos2: "'kern' Horizontal Kerning lookup 15-1" uni0633 dx=-128 dy=0 dh=-128 dv=0 dx=0 dy=0 dh=0 dv=0
PairPos2: "'kern' Horizontal Kerning lookup 15-1" uni0630 dx=-128 dy=0 dh=-128 dv=0 dx=0 dy=0 dh=0 dv=0
PairPos2: "'kern' Horizontal Kerning lookup 15-1" uni062F dx=-128 dy=0 dh=-128 dv=0 dx=0 dy=0 dh=0 dv=0
PairPos2: "'kern' Horizontal Kerning lookup 15-1" uniFEA7 dx=-128 dy=0 dh=-128 dv=0 dx=0 dy=0 dh=0 dv=0
PairPos2: "'kern' Horizontal Kerning lookup 15-1" uniFEA3 dx=-128 dy=0 dh=-128 dv=0 dx=0 dy=0 dh=0 dv=0
PairPos2: "'kern' Horizontal Kerning lookup 15-1" uniFE9F dx=-128 dy=0 dh=-128 dv=0 dx=0 dy=0 dh=0 dv=0
PairPos2: "'kern' Horizontal Kerning lookup 15-1" uniFE9B dx=-128 dy=0 dh=-128 dv=0 dx=0 dy=0 dh=0 dv=0
PairPos2: "'kern' Horizontal Kerning lookup 15-1" uni062B dx=-128 dy=0 dh=-128 dv=0 dx=0 dy=0 dh=0 dv=0
PairPos2: "'kern' Horizontal Kerning lookup 15-1" uniFE97 dx=-128 dy=0 dh=-128 dv=0 dx=0 dy=0 dh=0 dv=0
PairPos2: "'kern' Horizontal Kerning lookup 15-1" uni062A dx=-128 dy=0 dh=-128 dv=0 dx=0 dy=0 dh=0 dv=0
PairPos2: "'kern' Horizontal Kerning lookup 15-1" uni0629 dx=-128 dy=0 dh=-128 dv=0 dx=0 dy=0 dh=0 dv=0
PairPos2: "'kern' Horizontal Kerning lookup 15-1" uni0628 dx=-128 dy=0 dh=-128 dv=0 dx=0 dy=0 dh=0 dv=0
PairPos2: "'kern' Horizontal Kerning lookup 15-1" uni0627 dx=-196 dy=0 dh=-196 dv=0 dx=0 dy=0 dh=0 dv=0
PairPos2: "'kern' Horizontal Kerning lookup 15-1" uni0622 dx=-196 dy=0 dh=-196 dv=0 dx=0 dy=0 dh=0 dv=0
PairPos2: "'kern' Horizontal Kerning lookup 15-1" uniFB94 dx=-210 dy=0 dh=-210 dv=0 dx=0 dy=0 dh=0 dv=0
PairPos2: "'kern' Horizontal Kerning lookup 15-1" afii57509 dx=-210 dy=0 dh=-210 dv=0 dx=0 dy=0 dh=0 dv=0
PairPos2: "'kern' Horizontal Kerning lookup 15-1" uniFB56 dx=-128 dy=0 dh=-128 dv=0 dx=0 dy=0 dh=0 dv=0
PairPos2: "'kern' Horizontal Kerning lookup 15-1" afii57506 dx=-128 dy=0 dh=-128 dv=0 dx=0 dy=0 dh=0 dv=0
EndChar

StartChar: uniFEB2
Encoding: 65202 65202 186
Width: 2519
VWidth: 3752
GlyphClass: 2
Flags: W
AnchorPoint: "Anchor-10" 1662.87 1121.42 basechar 0
AnchorPoint: "Anchor-7" 636.28 -763.066 basechar 0
LayerCount: 2
Fore
SplineSet
1777.69824219 492.244140625 m 2,0,1
 1794.84762247 328.00240131 1794.84762247 328.00240131 1953.45410156 325.502929688 c 0,2,3
 2083.75985299 323.004604289 2083.75985299 323.004604289 2097.31640625 501.639648438 c 2,4,-1
 2109.74511719 665.413085938 l 1,5,-1
 2261.2890625 665.413085938 l 1,6,-1
 2273.01953125 505.234375 l 2,7,8
 2285.9810452 324.264648438 2285.9810452 324.264648438 2484.95117188 324.264648438 c 2,9,-1
 2524 324.264648438 l 2,10,11
 2549.0078125 323.999917297 2549.0078125 323.999917297 2549.0078125 197 c 2,12,-1
 2549.0078125 124 l 2,13,14
 2549 0 2549 0 2524 0 c 2,15,-1
 2484.14746094 0 l 2,16,17
 2274 0 2274 0 2185.70703125 160.311523438 c 1,18,19
 2082 1 2082 1 1946.51757812 0.802734375 c 0,20,21
 1759 1 1759 1 1679.7578125 164.436523438 c 1,22,23
 1591 -1 1591 -1 1455.56933594 -0.3955078125 c 0,24,25
 1387 0 1387 0 1311.94921875 46.9755859375 c 1,26,27
 1301 -261 1301 -261 1090.52734375 -417.408203125 c 0,28,29
 931 -535 931 -535 679.056640625 -535.459960938 c 0,30,31
 368 -535 368 -535 224.629882812 -380.759765625 c 0,32,33
 90 -235 90 -235 89.7646484375 -2.623046875 c 0,34,35
 90 195 90 195 199.502929688 438.203125 c 1,36,-1
 337.973632812 399.137695312 l 1,37,38
 286 228 286 228 285.984375 105.047851562 c 0,39,40
 286 -30 286 -30 348.420898438 -106.60546875 c 0,41,42
 452 -235 452 -235 676.248046875 -234.625 c 0,43,44
 990 -235 990 -235 1099.61328125 -64.3388671875 c 0,45,46
 1143.78487261 4.65531069054 1143.78487261 4.65531069054 1121.35839844 79.0244140625 c 0,47,48
 1078 222 1078 222 998.926757812 360.258789062 c 1,49,-1
 1137.91113281 568.529296875 l 2,50,51
 1157.11044732 598.170516158 1157.11044732 598.170516158 1178.14648438 557.86328125 c 2,52,-1
 1198.54003906 518.787109375 l 2,53,54
 1258 405 1258 405 1303.99121094 363.197265625 c 0,55,56
 1345 326 1345 326 1415.58984375 326.375976562 c 0,57,58
 1590.20261713 325.999563218 1590.20261713 325.999563218 1606.07421875 483.458007812 c 2,59,-1
 1620.86425781 630.186523438 l 1,60,-1
 1763.29492188 630.186523438 l 1,61,-1
 1777.69824219 492.244140625 l 2,0,1
EndSplineSet
EndChar

StartChar: uniFEB3
Encoding: 65203 65203 187
Width: 1559
VWidth: 3752
GlyphClass: 2
Flags: W
AnchorPoint: "Anchor-10" 813.082 1220.07 basechar 0
AnchorPoint: "Anchor-7" 899.453 -257.922 basechar 0
LayerCount: 2
Fore
SplineSet
-4.9921875 0 m 2,0,1
 -60 0 -60 0 -60 144 c 2,2,-1
 -60 177 l 2,3,4
 -60 324.269101791 -60 324.269101791 -4.9921875 324.264648438 c 2,5,-1
 55.3203125 324.259765625 l 6,6,7
 291.495709438 324.000553479 291.495709438 324.000553479 308.318359375 488.001953125 c 6,8,-1
 323.109375 632.197265625 l 5,9,-1
 465.540039062 632.197265625 l 5,10,-1
 479.942382812 492.12109375 l 6,11,12
 497 325 497 325 642.78125 325.583007812 c 4,13,14
 778.817444412 325.999441162 778.817444412 325.999441162 794.452148438 484.067382812 c 6,15,-1
 809.2421875 633.595703125 l 5,16,-1
 951.672851562 633.595703125 l 5,17,-1
 966.076171875 491.38671875 l 6,18,19
 984 319 984 319 1141.57910156 322.255859375 c 4,20,21
 1241 324 1241 324 1260.47558594 397.11328125 c 4,22,23
 1272 440 1272 440 1257.36035156 492.689453125 c 4,24,25
 1237 569 1237 569 1178.03125 688.120117188 c 5,26,-1
 1323.93945312 873.71875 l 6,27,28
 1355 913 1355 913 1378.56347656 873.71875 c 4,29,30
 1479 706 1479 706 1478.82910156 535.587890625 c 4,31,32
 1479 292 1479 292 1360.05664062 137.500976562 c 4,33,34
 1254 -1 1254 -1 1138.64746094 -2.0087890625 c 20,35,36
 960 -3 960 -3 876.2578125 162.930664062 c 5,37,38
 768 -3 768 -3 637.87890625 -2.966796875 c 4,39,40
 468 -2 468 -2 380.771484375 159.748046875 c 5,41,42
 261 0 261 0 61.7783203125 0 c 6,43,-1
 -4.9921875 0 l 2,0,1
EndSplineSet
EndChar

StartChar: uniFEB4
Encoding: 65204 65204 188
Width: 1696
VWidth: 3752
GlyphClass: 2
Flags: W
AnchorPoint: "Anchor-7" 780.587 -272.922 basechar 0
AnchorPoint: "Anchor-10" 792.603 1169.8 basechar 0
LayerCount: 2
Fore
SplineSet
1701 0 m 6,0,-1
 1671.44726562 0 l 6,1,2
 1439 0 1439 0 1351.0078125 159.266601562 c 5,3,4
 1254 0 1254 0 1135.81738281 -0.2412109375 c 4,5,6
 963 0 963 0 878.033203125 162.546875 c 5,7,8
 775 0 775 0 644.662109375 0 c 4,9,10
 466 0 466 0 380.336914062 158.028320312 c 5,11,12
 260 0 260 0 69.44921875 0 c 6,13,-1
 -4.9921875 0 l 2,14,15
 -60 0 -60 0 -60 144 c 2,16,-1
 -60 177 l 2,17,18
 -60 324.264648438 -60 324.264648438 -4.9921875 324.264648438 c 2,19,-1
 55.720703125 324.264648438 l 6,20,21
 292.687673613 324.000348352 292.687673613 324.000348352 309.385742188 488.001953125 c 6,22,-1
 324.17578125 633.263671875 l 5,23,-1
 466.606445312 633.263671875 l 5,24,-1
 481.009765625 484.654296875 l 6,25,26
 496 326 496 326 643.84765625 325.583007812 c 4,27,28
 779.564672887 325.001864082 779.564672887 325.001864082 795.518554688 485.134765625 c 6,29,-1
 810.309570312 633.595703125 l 5,30,-1
 952.739257812 633.595703125 l 5,31,-1
 967.142578125 491.38671875 l 6,32,33
 984 326 984 326 1122.52636719 324.618164062 c 4,34,35
 1256.13750191 322.998332999 1256.13750191 322.998332999 1269.61621094 500.594726562 c 6,36,-1
 1282.04589844 664.369140625 l 5,37,-1
 1433.58984375 664.369140625 l 5,38,-1
 1445.31933594 508.856445312 l 6,39,40
 1458.98041417 324.264648438 1458.98041417 324.264648438 1672.25195312 324.264648438 c 6,41,-1
 1701 324.264648438 l 6,42,43
 1726.0078125 323.999917297 1726.0078125 323.999917297 1726.0078125 197 c 6,44,-1
 1726.0078125 124 l 6,45,46
 1726 0 1726 0 1701 0 c 6,0,-1
EndSplineSet
EndChar

StartChar: uniFEBA
Encoding: 65210 65210 194
Width: 2686
VWidth: 3753
GlyphClass: 2
Flags: W
AnchorPoint: "Anchor-7" 614.003 -733.041 basechar 0
AnchorPoint: "Anchor-10" 2128.87 1269.42 basechar 0
LayerCount: 2
Fore
SplineSet
1606.83984375 326.057617188 m 1,0,-1
 1906.9453125 326.057617188 l 2,1,-1
 1907.66490877 326.057556732 l 0,2,3
 2250.06240445 326.057556732 2250.06240445 326.057556732 2309.47460938 380.854492188 c 0,4,5
 2338.86259006 407.595520255 2338.86259006 407.595520255 2338.86259006 448.306410577 c 0,6,7
 2338.86259006 459.579087231 2338.86259006 459.579087231 2336.609375 471.922851562 c 0,8,9
 2312.47217439 610.29318536 2312.47217439 610.29318536 2123.75968176 610.29318536 c 0,10,11
 1891.29573808 610.29318536 1891.29573808 610.29318536 1606.83984375 326.057617188 c 1,0,-1
2312 135.868164062 m 1,12,13
 2126.04339777 0.0317009448456 2126.04339777 0.0317009448456 1816.41601562 0.013671875 c 2,14,-1
 1581.61816406 0 l 2,15,16
 1415 -0 1415 -0 1311.87890625 44.2880859375 c 1,17,18
 1301 -261 1301 -261 1090.52734375 -417.408203125 c 0,19,20
 931 -535 931 -535 676.908902663 -535.461833076 c 0,21,22
 369 -536 369 -536 224.629882812 -380.759765625 c 0,23,24
 90 -235 90 -235 89.7646484375 -2.623046875 c 0,25,26
 90 195 90 195 199.502929688 438.203125 c 1,27,-1
 337.973632812 399.137695312 l 1,28,29
 286 228 286 228 285.984375 105.047851562 c 0,30,31
 286 -30 286 -30 348.420898438 -106.60546875 c 0,32,33
 452 -235 452 -235 677.563326552 -234.624150331 c 0,34,35
 988 -235 988 -235 1099.61328125 -64.3388671875 c 0,36,37
 1144.12105863 3.61251070041 1144.12105863 3.61251070041 1121.37597656 78.9365234375 c 0,38,39
 1076 229 1076 229 997.860351562 360.258789062 c 1,40,-1
 1138.49707031 569.596679688 l 2,41,42
 1157.11421008 598.175320647 1157.11421008 598.175320647 1176.48535156 559.99609375 c 2,43,-1
 1202.79199219 508.147460938 l 2,44,45
 1292.13795255 332.729149437 1292.13795255 332.729149437 1427.72460938 327.46484375 c 2,46,-1
 1444.92871094 326.796875 l 1,47,48
 1560 483 1560 483 1642.6640625 574.223632812 c 0,49,50
 1932 892 1932 892 2193.92595602 891.555310661 c 0,51,-1
 2194.66113281 891.5546875 l 0,52,53
 2409 891 2409 891 2498.09570312 725.489257812 c 0,54,55
 2521 683 2521 683 2529.1484375 627.595703125 c 0,56,57
 2535 589 2535 589 2534.90749095 549.243557347 c 0,58,59
 2534 429 2534 429 2477.09375 324 c 1,60,-1
 2691 324.264648438 l 2,61,62
 2716.0078125 323.999917297 2716.0078125 323.999917297 2716.0078125 197 c 2,63,-1
 2716.0078125 124 l 2,64,65
 2716 0 2716 0 2691 0 c 2,66,-1
 2663.73925781 0 l 2,67,68
 2476 0 2476 0 2312 135.868164062 c 1,12,13
EndSplineSet
EndChar

StartChar: uniFEBB
Encoding: 65211 65211 195
Width: 1739
VWidth: 3753
GlyphClass: 2
Flags: W
AnchorPoint: "Anchor-10" 1188.36 1295.58 basechar 0
AnchorPoint: "Anchor-7" 692.342 -237.901 basechar 0
LayerCount: 2
Fore
SplineSet
1658.29785156 545.315429688 m 0,0,1
 1658 412 1658 412 1587.87207031 299.88671875 c 0,2,3
 1399.96663087 -0.0532647510392 1399.96663087 -0.0532647510392 939.479492188 -0.080078125 c 2,4,-1
 704.681640625 -0.09375 l 2,5,6
 501 -0 501 -0 353.959960938 173.228515625 c 1,7,8
 214 0 214 0 28.1640625 0 c 2,9,-1
 -4.9921875 0 l 2,10,11
 -60 0 -60 0 -60 144 c 2,12,-1
 -60 177 l 2,13,14
 -60 324.264648438 -60 324.264648438 -4.9921875 324.264648438 c 2,15,-1
 9.40234375 324.264648438 l 2,16,17
 256.903790499 324.000102835 256.903790499 324.000102835 269.703125 487.697265625 c 2,18,-1
 282.5078125 651.462890625 l 1,19,-1
 419.755859375 651.462890625 l 1,20,-1
 434.744140625 487.909179688 l 2,21,22
 448 344 448 344 567.9921875 324.703125 c 1,23,24
 667 464 667 464 765.727539062 572.129882812 c 0,25,26
 1056 890 1056 890 1316.83496094 889.461914062 c 0,27,28
 1532 889 1532 889 1621.15917969 723.395507812 c 0,29,30
 1658 654 1658 654 1658.29785156 545.315429688 c 0,0,1
729.903320312 323.963867188 m 5,31,-1
 1030.00878906 323.963867188 l 2,32,33
 1371 324 1371 324 1432.53808594 378.760742188 c 0,34,35
 1461.90453365 405.600945082 1461.90453365 405.600945082 1461.90453365 446.322639485 c 0,36,37
 1461.90453365 457.548413538 1461.90453365 457.548413538 1459.67285156 469.829101562 c 0,38,39
 1435.48883634 608.203020286 1435.48883634 608.203020286 1247.0614976 608.203020286 c 0,40,41
 1015.21510753 608.203020286 1015.21510753 608.203020286 729.903320312 323.963867188 c 5,31,-1
EndSplineSet
EndChar

StartChar: uniFEBC
Encoding: 65212 65212 196
Width: 1810
VWidth: 3753
GlyphClass: 2
Flags: W
AnchorPoint: "Anchor-10" 1188.36 1295.58 basechar 0
AnchorPoint: "Anchor-7" 709.471 -226.746 basechar 0
LayerCount: 2
Fore
SplineSet
729.903320312 323.963867188 m 1,0,-1
 1030.00878906 323.963867188 l 2,1,2
 1371 324 1371 324 1432.53808594 378.760742188 c 0,3,4
 1461.90453365 405.600945082 1461.90453365 405.600945082 1461.90453365 446.322639485 c 0,5,6
 1461.90453365 457.548413538 1461.90453365 457.548413538 1459.67285156 469.829101562 c 0,7,8
 1435.48883634 608.203020286 1435.48883634 608.203020286 1247.0614976 608.203020286 c 0,9,10
 1015.21510753 608.203020286 1015.21510753 608.203020286 729.903320312 323.963867188 c 1,0,-1
1439 138.118164062 m 1,11,12
 1251.91621244 -0.0618854722294 1251.91621244 -0.0618854722294 939.479492188 -0.080078125 c 2,13,-1
 704.681640625 -0.09375 l 2,14,15
 501 -0 501 -0 353.959960938 173.228515625 c 1,16,17
 214 0 214 0 28.1640625 0 c 2,18,-1
 -4.9921875 0 l 2,19,20
 -60 0 -60 0 -60 144 c 2,21,-1
 -60 177 l 2,22,23
 -60 324.264648438 -60 324.264648438 -4.9921875 324.264648438 c 2,24,-1
 9.40234375 324.264648438 l 2,25,26
 256.903790499 324.000102835 256.903790499 324.000102835 269.703125 487.697265625 c 2,27,-1
 282.5078125 651.462890625 l 1,28,-1
 419.755859375 651.462890625 l 1,29,-1
 434.744140625 487.909179688 l 2,30,31
 448 343 448 343 567.9921875 324.703125 c 5,32,33
 667 464 667 464 765.727539062 572.129882812 c 4,34,35
 1056 890 1056 890 1316.83495476 889.461850126 c 4,36,37
 1532 889 1532 889 1621.15917969 723.395507812 c 4,38,39
 1658 654 1658 654 1658.2976145 545.315739584 c 4,40,41
 1658 427 1658 427 1602.703125 324 c 1,42,-1
 1815 324.264648438 l 2,43,44
 1840.0078125 323.999917297 1840.0078125 323.999917297 1840.0078125 197 c 2,45,-1
 1840.0078125 124 l 2,46,47
 1840 0 1840 0 1815 0 c 2,48,-1
 1786.80273438 0 l 2,49,50
 1608 0 1608 0 1439 138.118164062 c 1,11,12
EndSplineSet
EndChar

StartChar: uniFEC2
Encoding: 65218 65218 202
Width: 1713
VWidth: 3753
GlyphClass: 2
Flags: W
AnchorPoint: "Anchor-10" 506.374 1609.59 basechar 0
AnchorPoint: "Anchor-7" 823.839 -226.802 basechar 0
LayerCount: 2
Fore
SplineSet
622.962890625 326.057617188 m 1,0,-1
 923.068359375 326.057617188 l 2,1,2
 1263.9921875 326.3984375 1263.9921875 326.3984375 1325.59765625 380.854492188 c 0,3,4
 1355.00888659 407.513767736 1355.00888659 407.513767736 1355.00888659 448.199054975 c 0,5,6
 1355.00888659 459.518138155 1355.00888659 459.518138155 1352.73242188 471.922851562 c 0,7,8
 1328.52105865 610.306264983 1328.52105865 610.306264983 1140.71923862 610.306264983 c 0,9,10
 907.912244896 610.306264983 907.912244896 610.306264983 622.962890625 326.057617188 c 1,0,-1
1336 142.416992188 m 1,11,12
 1148.04229885 0.032042952456 1148.04229885 0.032042952456 832.540039062 0.013671875 c 2,13,-1
 597.741210938 0 l 2,14,-1
 292.168945312 -0.7431640625 l 1,15,16
 162 132 162 132 99.9697265625 228.2421875 c 0,17,18
 79 261 79 261 79.3309162696 282.090393942 c 0,19,20
 79.0007816555 323.901005554 79.0007816555 323.901005554 157.869140625 323.922851562 c 2,21,-1
 464.594726562 324.0078125 l 1,22,23
 463 623 463 623 438.698242188 1005.86035156 c 0,24,25
 425 1231 425 1231 396.797851562 1367.85839844 c 5,26,-1
 616.529296875 1496.36328125 l 6,27,28
 635 1507 635 1507 647.987304688 1507.44921875 c 4,29,30
 675.1953125 1508.00398237 675.1953125 1508.00398237 675.1953125 1456.92382812 c 6,31,-1
 675.1953125 570.93359375 l 1,32,33
 971 892 971 892 1210.11984205 891.555304284 c 0,34,35
 1426 891 1426 891 1514.21875 725.489257812 c 0,36,37
 1552 655 1552 655 1551.3362764 547.822613955 c 0,38,39
 1551 428 1551 428 1493.88964844 324.259765625 c 1,40,-1
 1718 324.264648438 l 2,41,42
 1743.0078125 323.999917297 1743.0078125 323.999917297 1743.0078125 197 c 2,43,-1
 1743.0078125 124 l 2,44,45
 1743 0 1743 0 1718 0 c 2,46,-1
 1689.0625 0 l 2,47,48
 1519 0 1519 0 1336 142.416992188 c 1,11,12
EndSplineSet
EndChar

StartChar: uniFEC3
Encoding: 65219 65219 203
Width: 1356
VWidth: 3753
GlyphClass: 2
Flags: W
AnchorPoint: "Anchor-7" 513.441 -220.401 basechar 0
AnchorPoint: "Anchor-10" 265.31 1606.39 basechar 0
LayerCount: 2
Fore
SplineSet
346.698242188 326.057617188 m 1,0,-1
 646.803710938 326.057617188 l 2,1,2
 987.727539062 326.3984375 987.727539062 326.3984375 1049.33300781 380.854492188 c 0,3,4
 1078.74414062 407.513671875 1078.74414062 407.513671875 1078.74414062 448.19921875 c 0,5,6
 1078.74414062 459.518554688 1078.74414062 459.518554688 1076.46777344 471.922851562 c 0,7,8
 1052.25683594 610.306640625 1052.25683594 610.306640625 864.455078125 610.306640625 c 0,9,10
 631.647460938 610.306640625 631.647460938 610.306640625 346.698242188 326.057617188 c 1,0,-1
-4.9921875 0 m 2,11,12
 -60 -0.00133993119474 -60 -0.00133993119474 -60 144 c 2,13,-1
 -60 177 l 2,14,15
 -60 324.338133757 -60 324.338133757 -4.9921875 324.264648438 c 2,16,-1
 187.263671875 324.0078125 l 1,17,18
 186 567 186 567 161.3671875 973.860351562 c 0,19,20
 145 1248 145 1248 119.465820312 1367.85839844 c 5,21,-1
 340.264648438 1497.17285156 l 6,22,23
 397.788142184 1530.87587248 397.788142184 1530.87587248 397.864257812 1466.92382812 c 6,24,-1
 398.930664062 570.93359375 l 1,25,26
 694 892 694 892 933.85546875 891.555664062 c 0,27,28
 1149 891 1149 891 1237.95410156 725.489257812 c 0,29,30
 1275 656 1275 656 1275.07128906 547.822265625 c 0,31,32
 1275 415 1275 415 1204.66699219 301.98046875 c 0,33,34
 1016.01553833 0.024870650908 1016.01553833 0.024870650908 556.275390625 0.013671875 c 2,35,-1
 -4.9921875 0 l 2,11,12
EndSplineSet
EndChar

StartChar: uniFEC4
Encoding: 65220 65220 204
Width: 1436
VWidth: 3753
GlyphClass: 2
Flags: W
AnchorPoint: "Anchor-7" 517.708 -216.135 basechar 0
AnchorPoint: "Anchor-10" 258.909 1610.66 basechar 0
LayerCount: 2
Fore
SplineSet
346.698242188 326.057617188 m 1,0,-1
 646.803710938 326.057617188 l 2,1,2
 987.727539062 326.3984375 987.727539062 326.3984375 1049.33300781 380.854492188 c 0,3,4
 1078.74414062 407.513671875 1078.74414062 407.513671875 1078.74414062 448.19921875 c 0,5,6
 1078.74414062 459.518554688 1078.74414062 459.518554688 1076.46777344 471.922851562 c 0,7,8
 1052.25683594 610.306640625 1052.25683594 610.306640625 864.455078125 610.306640625 c 0,9,10
 631.647460938 610.306640625 631.647460938 610.306640625 346.698242188 326.057617188 c 1,0,-1
556.275390625 0.013671875 m 2,11,-1
 -4.9921875 0 l 2,12,13
 -60 0 -60 0 -60 144 c 2,14,-1
 -60 177 l 2,15,16
 -60 324.338133757 -60 324.338133757 -4.9921875 324.264648438 c 2,17,-1
 187.263671875 324.0078125 l 1,18,19
 186 618 186 618 161.3671875 1038.52636719 c 0,20,21
 151 1221 151 1221 119.465820312 1367.85839844 c 5,22,-1
 340.264648438 1497.17285156 l 6,23,24
 397.788142184 1530.87587248 397.788142184 1530.87587248 397.864257812 1466.92382812 c 6,25,-1
 398.930664062 570.93359375 l 1,26,27
 695 892 695 892 933.85546875 891.555664062 c 0,28,29
 1149 891 1149 891 1237.95410156 725.489257812 c 0,30,31
 1276 655 1276 655 1275.07128906 547.822265625 c 0,32,33
 1275 428 1275 428 1217.625 324.259765625 c 1,34,-1
 1441.73535156 324.264648438 l 2,35,36
 1466.74316406 324.002690369 1466.74316406 324.002690369 1466.74316406 197 c 2,37,-1
 1466.74316406 124 l 2,38,39
 1467 0 1467 0 1441.73535156 0 c 2,40,-1
 1412.79785156 0 l 2,41,42
 1243 0 1243 0 1059.73535156 142.416992188 c 1,43,44
 872 0 872 0 556.275390625 0.013671875 c 2,11,-1
EndSplineSet
EndChar

StartChar: uniFECA
Encoding: 65226 65226 210
Width: 1297
VWidth: 3747
GlyphClass: 2
Flags: W
AnchorPoint: "Anchor-10" 660.262 1244.92 basechar 0
AnchorPoint: "Anchor-7" 577.191 -865.393 basechar 0
LayerCount: 2
Fore
SplineSet
1302 0 m 2,0,-1
 1273.16503906 0 l 2,1,2
 758.584281953 -7.38964445191e-13 758.584281953 -7.38964445191e-13 709.251953125 355.171875 c 2,3,-1
 707.407226562 368.453125 l 1,4,5
 281 207 281 207 281.967773438 -83.244140625 c 16,6,7
 283 -358 283 -358 744.9453125 -357.999023438 c 0,8,9
 910 -358 910 -358 1031.21582031 -342.524414062 c 0,10,11
 1179 -324 1179 -324 1182.11816406 -323.709960938 c 0,12,13
 1207 -322 1207 -322 1191.84765625 -354.931640625 c 0,14,15
 1087 -582 1087 -582 1020.47753906 -625.091796875 c 0,16,17
 983 -649 983 -649 749.87109375 -649.381835938 c 0,18,19
 417 -649 417 -649 256.336914062 -498.037109375 c 0,20,21
 97 -350 97 -350 96.255859375 -105.077148438 c 0,22,23
 96 330 96 330 611.196289062 582.396484375 c 1,24,25
 581 626 581 626 275.197265625 666.002929688 c 1,26,-1
 275.075195312 816.015625 l 1,27,28
 391 886 391 886 710.955078125 885.604492188 c 0,29,30
 1033 885 1033 885 1033.59375 727.461914062 c 0,31,32
 1035 574 1035 574 856.243164062 470.987304688 c 1,33,-1
 856.934570312 456.885742188 l 2,34,35
 862.987920401 324.264648438 862.987920401 324.264648438 1261.99414062 324.264648438 c 2,36,-1
 1302 324.264648438 l 2,37,38
 1327.0078125 323.999917297 1327.0078125 323.999917297 1327.0078125 197 c 2,39,-1
 1327.0078125 124 l 2,40,41
 1327 0 1327 0 1302 0 c 2,0,-1
EndSplineSet
EndChar

StartChar: uniFECB
Encoding: 65227 65227 211
Width: 1096
VWidth: 3747
GlyphClass: 2
Flags: W
AnchorPoint: "Anchor-10" 523.836 1350.84 basechar 0
AnchorPoint: "Anchor-7" 508.066 -222.76 basechar 0
LayerCount: 2
Fore
SplineSet
-4.9921875 0 m 2,0,1
 -60 0 -60 0 -60 144 c 2,2,-1
 -60 177 l 2,3,4
 -60 324.264648438 -60 324.264648438 -4.9921875 324.264648438 c 2,5,-1
 222.48828125 324.264648438 l 1,6,-1
 209.737304688 342.885742188 l 2,7,8
 139 446 139 446 138.848926223 563.840344325 c 0,9,10
 139 651 139 651 178.249023438 746.051757812 c 0,11,12
 240 892 240 892 355 961.10956989 c 0,13,14
 456 1021 456 1021 566.265625 1021.22363281 c 0,15,16
 760 1021 760 1021 892.260742188 850.39453125 c 1,17,-1
 859.34765625 700.287109375 l 1,18,19
 679 761 679 761 617.53580469 761.191366476 c 0,20,21
 490 761 490 761 381.787109375 662.553710938 c 0,22,23
 314 601 314 601 313.895507812 561.477539062 c 0,24,25
 314 495 314 495 471.541015625 399.327148438 c 0,26,27
 518 371 518 371 543.563102251 370.089303659 c 0,28,29
 581.367461882 369.99912344 581.367461882 369.99912344 857.571289062 434.368164062 c 2,30,-1
 966.009765625 459.639648438 l 2,31,32
 1033.07272103 475.016674379 1033.07272103 475.016674379 1015.73632812 425.690429688 c 2,33,-1
 931.727539062 186.665039062 l 1,34,35
 674 115 674 115 415.197265625 46.9326171875 c 0,36,37
 237 0 237 0 42.5625 0 c 2,38,-1
 -4.9921875 0 l 2,0,1
EndSplineSet
EndChar

StartChar: uniFECC
Encoding: 65228 65228 212
Width: 1019
VWidth: 3749
GlyphClass: 2
Flags: W
AnchorPoint: "Anchor-10" 486.071 1195.73 basechar 0
AnchorPoint: "Anchor-7" 500.445 -222.487 basechar 0
LayerCount: 2
Fore
SplineSet
1024 0 m 2,0,-1
 951.049804688 0 l 2,1,2
 704 0 704 0 550.266601562 200.462890625 c 1,3,4
 349 0 349 0 86.23046875 0 c 2,5,-1
 -4.9921875 0 l 2,6,7
 -60 0 -60 0 -60 144 c 2,8,-1
 -60 177 l 2,9,10
 -60 324.264648438 -60 324.264648438 -4.9921875 324.264648438 c 2,11,-1
 83.578125 324.264648438 l 2,12,13
 385 324 385 324 473.287109375 398.889648438 c 1,14,15
 369 551 369 551 121.739257812 583.344726562 c 1,16,-1
 121.618164062 733.356445312 l 1,17,18
 252 813 252 813 547.497070312 812.946289062 c 0,19,20
 895 813 895 813 880.135742188 634.13671875 c 0,21,22
 871 519 871 519 678.528320312 393.59765625 c 1,23,-1
 692.079101562 382.96484375 l 2,24,25
 766.663736941 324.264648438 766.663736941 324.264648438 953.732421875 324.264648438 c 2,26,-1
 1024 324.264648438 l 2,27,28
 1049.0078125 323.999917297 1049.0078125 323.999917297 1049.0078125 197 c 2,29,-1
 1049.0078125 124 l 2,30,31
 1049 0 1049 0 1024 0 c 2,0,-1
EndSplineSet
EndChar

StartChar: uniFEDA
Encoding: 65242 65242 226
Width: 2104
VWidth: 3713
GlyphClass: 2
Flags: W
AnchorPoint: "Anchor-10" 991.48 1595.14 basechar 0
AnchorPoint: "Anchor-7" 885.275 -195.886 basechar 0
LayerCount: 2
Fore
SplineSet
850.345703125 0 m 0,0,1
 1476.89787821 -5.68434188608e-14 1476.89787821 -5.68434188608e-14 1678.35742188 211.469726562 c 2,2,-1
 1689.00976562 222.651367188 l 1,3,-1
 1695.6953125 208.728515625 l 2,4,5
 1796 0 1796 0 2082.09570312 0 c 2,6,-1
 2109 0 l 2,7,8
 2134.0078125 0 2134.0078125 0 2134.0078125 124 c 2,9,-1
 2134.0078125 197 l 2,10,11
 2134 326 2134 326 2108.19726562 324.5234375 c 1,12,-1
 2071.67871094 324.5234375 l 2,13,14
 1842 325 1842 325 1840.36621094 629.6484375 c 1,15,-1
 1839.18652344 1471.58984375 l 2,16,17
 1839.00092257 1545.63195914 1839.00092257 1545.63195914 1785.45507812 1513.06542969 c 2,18,-1
 1579.58984375 1387.85839844 l 1,19,20
 1606.24434709 1169.82107817 1606.24434709 1169.82107817 1609.99023438 961.393554688 c 0,21,22
 1616 627 1616 627 1613.05664062 569.34765625 c 0,23,24
 1609 484 1609 484 1563.796875 457.926757812 c 0,25,26
 1326 320 1326 320 877.231445312 320.80078125 c 0,27,28
 418 321 418 321 308.154296875 486.359375 c 0,29,30
 271 542 271 542 271.442382812 634.133789062 c 0,31,32
 271 721 271 721 303.756835938 839.514648438 c 1,33,-1
 185.948242188 882.258789062 l 1,34,35
 86 686 86 686 86.4306640625 489.08203125 c 0,36,37
 87 215 87 215 297.043945312 99.7861328125 c 0,38,39
 479 0 479 0 850.345703125 0 c 0,0,1
1217.921875 969.807617188 m 0,40,41
 1221.68359375 794.208984375 1221.68359375 794.208984375 1068.55664062 737.955078125 c 0,42,43
 1007.35742188 715.471679688 1007.35742188 715.471679688 910.946289062 718.704101562 c 128,-1,44
 814.536132812 721.936523438 814.536132812 721.936523438 705.481445312 756.209960938 c 1,45,-1
 721.165039062 916.864257812 l 1,46,47
 896.036132812 853.842773438 896.036132812 853.842773438 1038.66894531 882.892578125 c 0,48,49
 1086.84960938 892.706054688 1086.84960938 892.706054688 1098.19042969 910.154296875 c 0,50,51
 1123.22167969 948.666992188 1123.22167969 948.666992188 1095.63867188 968.573242188 c 128,-1,52
 1068.05566406 988.479492188 1068.05566406 988.479492188 996.084960938 1003.66699219 c 128,-1,53
 924.115234375 1018.85253906 924.115234375 1018.85253906 884.2734375 1047.59277344 c 0,54,55
 804.390625 1105.09667969 804.390625 1105.09667969 807.146484375 1221.67578125 c 0,56,57
 812.533203125 1412.43261719 812.533203125 1412.43261719 1133.49414062 1453.40429688 c 0,58,59
 1172.61132812 1458.45898438 1172.61132812 1458.45898438 1183.51855469 1443.10742188 c 128,-1,60
 1194.42578125 1427.75683594 1194.42578125 1427.75683594 1186.75195312 1405.796875 c 2,61,-1
 1148.18359375 1295.41699219 l 1,62,63
 1027.72363281 1283.59570312 1027.72363281 1283.59570312 966.821289062 1262.65039062 c 128,-1,64
 905.918945312 1241.70507812 905.918945312 1241.70507812 904.635742188 1204.68164062 c 0,65,66
 903.076171875 1167.63867188 903.076171875 1167.63867188 1065.68066406 1139.00878906 c 0,67,68
 1135.85351562 1127.16601562 1135.85351562 1127.16601562 1175.9765625 1082.05175781 c 128,-1,69
 1216.10058594 1036.93847656 1216.10058594 1036.93847656 1217.921875 969.807617188 c 0,40,41
EndSplineSet
EndChar

StartChar: uniFEDB
Encoding: 65243 65243 227
Width: 980
VWidth: 3732
GlyphClass: 2
Flags: W
AnchorPoint: "Anchor-10" 271.253 1568.94 basechar 0
AnchorPoint: "Anchor-7" 305.081 -237.552 basechar 0
LayerCount: 2
Fore
SplineSet
-4.9921875 0 m 2,0,1
 -60 0 -60 0 -60 144 c 2,2,-1
 -60 177 l 2,3,4
 -60 324.26521461 -60 324.26521461 -4.9921875 324.264648438 c 2,5,-1
 99.0186839905 324.263577898 l 2,6,7
 400 324 400 324 486.318359375 389.159179688 c 0,8,9
 529 421 529 421 529.484591977 455.821872587 c 0,10,11
 529 560 529 560 28.7421875 959.029296875 c 1,12,-1
 90.5673828125 1244.46386719 l 1,13,-1
 884.94140625 1539.15136719 l 2,14,15
 934.177551962 1557.41641144 934.177551962 1557.41641144 925.455078125 1499.83886719 c 2,16,-1
 892 1279 l 1,17,-1
 309 1070 l 1,18,19
 725 748 725 748 724.629882388 473.3454673 c 0,20,21
 725 295 725 295 610.986328125 178.072265625 c 0,22,23
 438 0 438 0 104.15234375 0 c 2,24,-1
 -4.9921875 0 l 2,0,1
EndSplineSet
EndChar

StartChar: uniFEDC
Encoding: 65244 65244 228
Width: 1212
VWidth: 3732
GlyphClass: 2
Flags: W
AnchorPoint: "Anchor-10" 242.919 1594.78 basechar 0
AnchorPoint: "Anchor-7" 314.945 -220.715 basechar 0
LayerCount: 2
Fore
SplineSet
309 1070 m 1,0,1
 458 940 458 940 761.1640625 591.309570312 c 0,2,3
 992.770472046 324.264648438 992.770472046 324.264648438 1203.55957031 324.264648438 c 2,4,-1
 1217 324.264648438 l 2,5,6
 1242.0078125 323.999917297 1242.0078125 323.999917297 1242.0078125 197 c 2,7,-1
 1242.0078125 124 l 2,8,9
 1242 0 1242 0 1217 0 c 2,10,-1
 1203.99121094 0 l 2,11,12
 898 0 898 0 671.728515625 312.668945312 c 1,13,14
 643 244 643 244 609 202 c 0,15,16
 447 0 447 0 105.486328125 0 c 2,17,-1
 -4.9921875 0 l 2,18,19
 -60 0 -60 0 -60 144 c 2,20,-1
 -60 177 l 2,21,22
 -60 324.26531143 -60 324.26531143 -4.9921875 324.264648438 c 2,23,-1
 98.2652017796 324.263403909 l 2,24,25
 390 324 390 324 475.811523438 380.012695312 c 0,26,27
 527 413 527 413 526.719138677 458.584092122 c 0,28,29
 527 565 527 565 28.7431640625 959.01171875 c 1,30,-1
 90.5673828125 1244.46386719 l 1,31,-1
 884.94140625 1539.15136719 l 2,32,33
 934.12114651 1557.04407586 934.12114651 1557.04407586 925.455078125 1499.83886719 c 2,34,-1
 892 1279 l 1,35,-1
 309 1070 l 1,0,1
EndSplineSet
EndChar

StartChar: uniFEDE
Encoding: 65246 65246 230
Width: 1489
VWidth: 3753
GlyphClass: 2
Flags: W
AnchorPoint: "Anchor-10" 566.04 1026.76 basechar 0
AnchorPoint: "Anchor-7" 669.188 -721.519 basechar 0
LayerCount: 2
Fore
SplineSet
683.788085938 -208.20703125 m 24,0,1
 453 -208 453 -208 348.420898438 -80.2041015625 c 0,2,3
 286 -3 286 -3 285.984375 131.44921875 c 0,4,5
 286 254 286 254 337.973632812 425.5390625 c 1,6,-1
 199.502929688 464.604492188 l 1,7,8
 90 221 90 221 89.7646484375 23.7783203125 c 0,9,10
 90 -208 90 -208 224.629882812 -354.358398438 c 0,11,12
 368 -509 368 -509 681.234375 -509.056640625 c 0,13,14
 1001 -509 1001 -509 1145.51171875 -322.198242188 c 0,15,16
 1255 -180 1255 -180 1267.49902344 69.1328125 c 1,17,18
 1341 0 1341 0 1466.30566406 0 c 2,19,-1
 1494 0 l 2,20,21
 1519.0078125 0 1519.0078125 0 1519.0078125 124 c 2,22,-1
 1519.0078125 197 l 2,23,24
 1518.99998372 324.264648438 1518.99998372 324.264648438 1494 324.264648438 c 2,25,-1
 1471.53417969 324.264648438 l 2,26,27
 1403 324 1403 324 1344.07128906 364.956054688 c 0,28,29
 1267.49262156 418.654563808 1267.49262156 418.654563808 1264.55664062 593.099609375 c 2,30,-1
 1250.28613281 1441 l 2,31,32
 1248.99566993 1535.31647329 1248.99566993 1535.31647329 1169 1485.43847656 c 2,33,-1
 968.126953125 1360.19238281 l 1,34,35
 1046.50326213 402.409353174 1046.50326213 402.409353174 1061.38085938 94.5751953125 c 0,36,37
 1066 -1 1066 -1 1031.80078125 -58.12109375 c 0,38,39
 941 -208 941 -208 683.788085938 -208.20703125 c 24,0,1
EndSplineSet
EndChar

StartChar: uniFEDF
Encoding: 65247 65247 231
Width: 612
VWidth: 3713
GlyphClass: 2
Flags: W
AnchorPoint: "Anchor-10" 305.463 1607.69 basechar 0
AnchorPoint: "Anchor-7" 183.305 -241.562 basechar 0
LayerCount: 2
Fore
SplineSet
-4.9921875 0 m 2,0,1
 -60 0 -60 0 -60 144 c 2,2,-1
 -60 177 l 2,3,4
 -60 324.264648438 -60 324.264648438 -4.9921875 324.264648438 c 2,5,-1
 16.5546875 324.264648438 l 2,6,7
 195 324 195 324 235 388 c 0,8,9
 258 425 258 425 248.952148438 617.104492188 c 0,10,11
 239 825 239 825 187.465820312 1360.19238281 c 1,12,-1
 409.331054688 1498.52734375 l 2,13,14
 468.08549324 1535.05314848 468.08549324 1535.05314848 469.010742188 1479.92382812 c 2,15,-1
 483.89453125 593.099609375 l 2,16,17
 488 341 488 341 425.59765625 214.663085938 c 0,18,19
 320 0 320 0 10.892578125 0 c 2,20,-1
 -4.9921875 0 l 2,0,1
EndSplineSet
EndChar

StartChar: uniFEE0
Encoding: 65248 65248 232
Width: 689
VWidth: 3713
GlyphClass: 2
Flags: W
AnchorPoint: "Anchor-10" 332.934 1616.75 basechar 0
AnchorPoint: "Anchor-7" 295.028 -238.129 basechar 0
LayerCount: 2
Fore
SplineSet
694 0 m 2,0,-1
 653.404296875 0 l 2,1,2
 441 0 441 0 354.552734375 167.865234375 c 1,3,4
 243 0 243 0 36.5390625 0 c 2,5,-1
 -4.9921875 0 l 2,6,7
 -60 0 -60 0 -60 144 c 2,8,-1
 -60 177 l 2,9,10
 -60 324.270135923 -60 324.270135923 -4.9921875 324.264648438 c 2,11,-1
 9.96225841503 324.263156608 l 2,12,13
 147 324 147 324 202.44140625 370.68359375 c 0,14,15
 259 418 259 418 257.245551659 577.449963233 c 0,16,17
 257 597 257 597 256.413085938 618.908203125 c 0,18,19
 239 1094 239 1094 211.198242188 1370.85839844 c 1,20,-1
 437.331054688 1499.89648438 l 2,21,22
 453 1509 453 1509 464.3671875 1509.01757812 c 0,23,24
 489.51953125 1509.00032949 489.51953125 1509.00032949 489.51953125 1462 c 2,25,-1
 489.51953125 641.713867188 l 2,26,27
 490.010299989 460.190281116 490.010299989 460.190281116 516.271484375 391.397460938 c 0,28,29
 541.898972285 324.264648438 541.898972285 324.264648438 663.87109375 324.264648438 c 2,30,-1
 694 324.264648438 l 2,31,32
 719.0078125 323.999917297 719.0078125 323.999917297 719.0078125 197 c 2,33,-1
 719.0078125 124 l 2,34,35
 719 0 719 0 694 0 c 2,0,-1
EndSplineSet
EndChar

StartChar: uniFEE2
Encoding: 65250 65250 234
Width: 1306
VWidth: 3789
GlyphClass: 2
Flags: W
AnchorPoint: "Anchor-10" 635.051 1160.9 basechar 0
AnchorPoint: "Anchor-7" 247.183 -757.644 basechar 0
LayerCount: 2
Fore
SplineSet
1311 0 m 2,0,-1
 1290.0859375 0 l 2,1,2
 1218 0 1218 0 1123.2890625 83.4287109375 c 1,3,-1
 1118.21679688 68.080078125 l 2,4,5
 1032 -193 1032 -193 833.594726562 -193.065429688 c 24,6,7
 514.69986137 -191.99899629 514.69986137 -191.99899629 523.448242188 252.447265625 c 2,8,-1
 525.125976562 337.681640625 l 1,9,10
 370 286 370 286 305.797851562 182.833984375 c 1,11,-1
 320.3984375 -278.46484375 l 2,12,13
 326 -444 326 -444 165.676707746 -599 c 0,14,15
 146 -618 146 -618 132.758155257 -618.002588415 c 0,16,17
 111.420185739 -618.000049987 111.420185739 -618.000049987 109.570310342 -566 c 2,18,-1
 96.0966796875 -187.255859375 l 2,19,20
 93 -100 93 -100 93.093791238 -34.6453893799 c 0,21,22
 93 87 93 87 101.734375 181.771484375 c 0,23,24
 116 349 116 349 224.1328125 458.647460938 c 0,25,26
 357 594 357 594 564.356445312 618.623046875 c 1,27,28
 595 765 595 765 627.807617188 776.836914062 c 0,29,30
 639.263231819 781.097910937 639.263231819 781.097910937 654.704101562 769.551757812 c 2,31,-1
 1161.28222656 390.75 l 2,32,33
 1249.64825438 324.264648438 1249.64825438 324.264648438 1301.32519531 324.264648438 c 2,34,-1
 1311 324.264648438 l 2,35,36
 1336.0078125 323.999917297 1336.0078125 323.999917297 1336.0078125 197 c 2,37,-1
 1336.0078125 124 l 2,38,39
 1336 0 1336 0 1311 0 c 2,0,-1
693.454101562 426.301757812 m 2,40,41
 685.83203125 300.626953125 685.83203125 300.626953125 693.241210938 220.87109375 c 0,42,43
 701.288085938 138.42578125 701.288085938 138.42578125 744.2890625 104.649414062 c 0,44,45
 778.826598767 77.639460962 778.826598767 77.639460962 840.838389995 77.639460962 c 0,46,47
 926.897205966 77.639460962 926.897205966 77.639460962 962.483398438 147.583007812 c 0,48,49
 972.350364163 166.931853715 972.350364163 166.931853715 972.350364163 187.56754433 c 0,50,51
 972.350364163 294.149334265 972.350364163 294.149334265 709.134765625 435.059570312 c 2,52,-1
 694.4609375 442.915039062 l 1,53,-1
 693.454101562 426.301757812 l 2,40,41
EndSplineSet
EndChar

StartChar: uniFEE3
Encoding: 65251 65251 235
Width: 1022
VWidth: 3756
GlyphClass: 2
Flags: W
AnchorPoint: "Anchor-10" 543.686 1178.5 basechar 0
AnchorPoint: "Anchor-7" 532.424 -262.974 basechar 0
LayerCount: 2
Fore
SplineSet
-4.9921875 0 m 2,0,1
 -60 0 -60 0 -60 144 c 2,2,-1
 -60 177 l 2,3,4
 -60 324.264648438 -60 324.264648438 -4.9921875 324.264648438 c 2,5,-1
 21.216796875 324.264648438 l 2,6,7
 160 324 160 324 256.665039062 457.596679688 c 0,8,9
 372 618 372 618 456.130859375 697.595703125 c 0,10,11
 533 769 533 769 627.171562887 768.898739346 c 0,12,13
 690 769 690 769 750.528320312 734.928710938 c 0,14,15
 890.667332398 654.762350962 890.667332398 654.762350962 928.327148438 481.063476562 c 0,16,17
 942 418 942 418 941.576131646 360.571327865 c 0,18,19
 942 181 942 181 812.061523438 55.466796875 c 0,20,21
 729 -25 729 -25 656.803888963 -24.9073911398 c 0,22,23
 520 -25 520 -25 291.865234375 177.065429688 c 1,24,25
 148 0 148 0 16.71875 0 c 2,26,-1
 -4.9921875 0 l 2,0,1
453.376953125 409.591796875 m 1,27,28
 605 252 605 252 695.0625 250.499023438 c 0,29,30
 735 250 735 250 752.662109375 269.865234375 c 0,31,32
 765.972300757 283.696942907 765.972300757 283.696942907 765.972300757 315.51593917 c 0,33,34
 765.972300757 332.316173633 765.972300757 332.316173633 762.26171875 354.130859375 c 0,35,36
 752 414 752 414 718.528320312 465.063476562 c 0,37,38
 664.616803543 546.809143033 664.616803543 546.809143033 611 545.668094974 c 0,39,40
 594.133682502 545.309153793 594.133682502 545.309153793 580 535.172870106 c 0,41,42
 516.29411145 489.48478006 516.29411145 489.48478006 453.376953125 409.591796875 c 1,27,28
EndSplineSet
EndChar

StartChar: uniFEE4
Encoding: 65252 65252 236
Width: 1150
VWidth: 3756
GlyphClass: 2
Flags: W
AnchorPoint: "Anchor-10" 589.076 1119.9 basechar 0
AnchorPoint: "Anchor-7" 519.449 -274.993 basechar 0
LayerCount: 2
Fore
SplineSet
1155 0 m 2,0,-1
 1136.11425781 0 l 2,1,2
 987 0 987 0 894.52734375 109.866210938 c 1,3,4
 849 22 849 22 755.862304688 -48 c 0,5,6
 703 -88 703 -88 647.992048104 -88.1623872832 c 0,7,8
 512 -88 512 -88 281.198242188 117.333007812 c 1,9,10
 200 0 200 0 22.71875 0 c 2,11,-1
 -4.9921875 0 l 2,12,13
 -60 0 -60 0 -60 144 c 2,14,-1
 -60 177 l 2,15,16
 -60 324.264648438 -60 324.264648438 -4.9921875 324.264648438 c 2,17,-1
 21.216796875 324.264648438 l 2,18,19
 189 324 189 324 280.131835938 433.063476562 c 0,20,21
 424 606 424 606 456.130859375 633.595703125 c 0,22,23
 537 703 537 703 623.636107398 703.031311155 c 0,24,25
 703 703 703 703 752.662109375 673.0625 c 0,26,27
 863 607 863 607 948.662109375 423.463867188 c 0,28,29
 994.876706479 324.264648438 994.876706479 324.264648438 1137.01464844 324.264648438 c 2,30,-1
 1155 324.264648438 l 2,31,32
 1180.0078125 323.999917297 1180.0078125 323.999917297 1180.0078125 197 c 2,33,-1
 1180.0078125 124 l 2,34,35
 1180 0 1180 0 1155 0 c 2,0,-1
451.244140625 348.79296875 m 1,36,37
 602.8671875 191.201171875 602.8671875 191.201171875 692.9296875 189.700195312 c 0,38,39
 763.839488257 188.814169585 763.839488257 188.814169585 763.839488257 254.717111045 c 0,40,41
 763.839488257 271.517345508 763.839488257 271.517345508 760.12890625 293.33203125 c 0,42,43
 749.8671875 353.201171875 749.8671875 353.201171875 716.395507812 404.264648438 c 0,44,45
 663.162785013 484.981064225 663.162785013 484.981064225 610 484.882559832 c 0,46,47
 592.474150752 484.850086493 592.474150752 484.850086493 577.8671875 474.374023438 c 0,48,49
 514.161132812 428.685546875 514.161132812 428.685546875 451.244140625 348.79296875 c 1,36,37
EndSplineSet
EndChar

StartChar: uniFEEA
Encoding: 65258 65258 242
Width: 1036
VWidth: 3740
GlyphClass: 2
Flags: W
AnchorPoint: "Anchor-10" 653.045 1362.49 basechar 0
AnchorPoint: "Anchor-7" 463.202 -209.801 basechar 0
LayerCount: 2
Fore
SplineSet
1041 0 m 2,0,-1
 1020.58789062 0 l 2,1,2
 789.42069481 2.27373675443e-13 789.42069481 2.27373675443e-13 688.805664062 262.046875 c 2,3,-1
 683.14453125 276.791015625 l 1,4,-1
 518.663085938 123.739257812 l 1,5,6
 405 126 405 126 256 154.5 c 128,-1,7
 107 183 107 183 96.71484375 259.865234375 c 0,8,9
 83 370 83 370 82.9574525321 458.976237177 c 128,-1,10
 83 548 83 548 101.466796875 605.640625 c 0,11,12
 148 748 148 748 551.534179688 932.971679688 c 1,13,-1
 533.330078125 1018.66015625 l 1,14,-1
 646.75 1145.59277344 l 2,15,16
 670 1172 670 1172 686.75386755 1171.99718965 c 0,17,18
 709.604977353 1171.99995224 709.604977353 1171.99995224 719.7109375 1122.12597656 c 2,19,-1
 842.475585938 516.26953125 l 2,20,21
 880.946973262 324.264648438 880.946973262 324.264648438 1021.3125 324.264648438 c 2,22,-1
 1041 324.264648438 l 2,23,24
 1066.0078125 323.999917297 1066.0078125 323.999917297 1066.0078125 197 c 2,25,-1
 1066.0078125 124 l 2,26,27
 1066 0 1066 0 1041 0 c 2,0,-1
251.51171875 511.286132812 m 0,28,29
 307.760457835 455.249974773 307.760457835 455.249974773 551.888519409 455.249974773 c 0,30,31
 568.018740139 455.249974773 568.018740139 455.249974773 648.263671875 457.139648438 c 1,32,-1
 591.168945312 709.072265625 l 1,33,34
 298.885020012 617.833751331 298.885020012 617.833751331 251.108398438 548.75390625 c 0,35,36
 236 527 236 527 251.51171875 511.286132812 c 0,28,29
EndSplineSet
EndChar

StartChar: uniFEEB
Encoding: 65259 65259 243
Width: 1225
VWidth: 3747
GlyphClass: 2
Flags: W
AnchorPoint: "Anchor-10" 541.316 1438.63 basechar 0
AnchorPoint: "Anchor-7" 525.812 -225.537 basechar 0
LayerCount: 2
Fore
SplineSet
-4.9921875 0 m 2,0,1
 -60 0 -60 0 -60 144 c 2,2,-1
 -60 177 l 2,3,4
 -60 324.242719789 -60 324.242719789 -4.9921875 324.264648438 c 2,5,-1
 259.575195312 324.370117188 l 1,6,7
 95.6350015745 392.751062338 95.6350015745 392.751062338 139.665603429 609 c 0,8,9
 174.072494399 777.983691052 174.072494399 777.983691052 335.291015625 899.271484375 c 2,10,-1
 350.66015625 910.833984375 l 1,11,-1
 207.388671875 971.973632812 l 1,12,-1
 285 1207 l 1,13,-1
 682.987304688 1014.34667969 l 2,14,15
 1142 792 1142 792 1144.56907296 493.900254069 c 0,16,17
 1145 415 1145 415 1111.79003906 330.817382812 c 0,18,19
 1022 104 1022 104 942.741210938 99.0263671875 c 0,20,21
 926 98 926 98 907.834700832 97.976369616 c 0,22,23
 753 98 753 98 508.219726562 174.71484375 c 1,24,25
 301 0 301 0 47.8837890625 0 c 2,26,-1
 -4.9921875 0 l 2,0,1
669.40625 427.6796875 m 1,27,28
 862 358 862 358 917.513671875 353.026367188 c 1,29,30
 962 418 962 418 961.578469107 474.721138324 c 0,31,32
 961.999078983 590.745938329 961.999078983 590.745938329 777.044921875 673.127929688 c 2,33,-1
 762.78515625 679.479492188 l 1,34,35
 761 528 761 528 669.40625 427.6796875 c 1,27,28
515.747070312 479.302734375 m 1,36,37
 586 530 586 530 612.901367188 617 c 0,38,39
 631 676 631 676 611.026367188 723.224609375 c 0,40,41
 594 763 594 763 542.204101562 781.94921875 c 0,42,43
 517 791 517 791 492.19221897 791.069601212 c 0,44,45
 411 791 411 791 338.82421875 686.173828125 c 0,46,47
 314 650 314 650 313.994657795 618.350793428 c 0,48,49
 314 527 314 527 515.747070312 479.302734375 c 1,36,37
EndSplineSet
EndChar

StartChar: uniFEEC
Encoding: 65260 65260 244
Width: 1000
VWidth: 3775
GlyphClass: 2
Flags: W
AnchorPoint: "Anchor-7" 331.199 -671.918 basechar 0
AnchorPoint: "Anchor-10" 466.953 1294.17 basechar 0
LayerCount: 2
Fore
SplineSet
1005 0 m 2,0,-1
 985.534179688 0 l 2,1,2
 874 0 874 0 798.947265625 -101.33203125 c 0,3,4
 750 -167 750 -167 750.583007812 -272.099609375 c 0,5,6
 751 -347 751 -347 774.338867188 -441.317382812 c 1,7,-1
 579.059570312 -573.756835938 l 1,8,9
 208 -312 208 -312 152.346679688 0 c 1,10,-1
 -4.9921875 0 l 2,11,12
 -60 0 -60 0 -60 144 c 2,13,-1
 -60 177 l 2,14,15
 -60 324.264648438 -60 324.264648438 -4.9921875 324.264648438 c 2,16,-1
 144.189453125 324.264648438 l 1,17,18
 189 687 189 687 381.41015625 920.28515625 c 0,19,20
 432 981 432 981 472.638671875 981.204101562 c 0,21,22
 529.647366151 980.973059928 529.647366151 980.973059928 598.689304848 920 c 4,23,24
 806.148676661 736.786246898 806.148676661 736.786246898 807.502929688 498.012695312 c 0,25,26
 808 387 808 387 732 265 c 0,27,28
 589 34 589 34 322.004882812 -1.306640625 c 1,29,30
 384 -121 384 -121 564.331054688 -227.098632812 c 1,31,-1
 575.397460938 -190.850585938 l 2,32,33
 733.081012369 324.264648438 733.081012369 324.264648438 983.763671875 324.264648438 c 2,34,-1
 1005 324.264648438 l 2,35,36
 1030.0078125 323.999917297 1030.0078125 323.999917297 1030.0078125 197 c 2,37,-1
 1030.0078125 124 l 2,38,39
 1030 0 1030 0 1005 0 c 2,0,-1
308.79296875 326.995117188 m 1,40,41
 625 339 625 339 625.705078125 456.110351562 c 0,42,43
 626 524 626 524 455.966796875 721.51171875 c 1,44,45
 345 538 345 538 308.79296875 326.995117188 c 1,40,41
EndSplineSet
EndChar

StartChar: uniFEEE
Encoding: 65262 65262 246
Width: 872
VWidth: 3781
GlyphClass: 2
Flags: W
AnchorPoint: "Anchor-7" 371.78 -711.673 basechar 0
AnchorPoint: "Anchor-10" 389.424 1264.08 basechar 0
LayerCount: 2
Fore
SplineSet
752.053710938 0 m 17,0,1
 690 -269 690 -269 507.24609375 -456 c 0,2,3
 461 -503 461 -503 420 -512.116210938 c 0,4,5
 398 -517 398 -517 345.536021575 -517.055791329 c 0,6,7
 340 -517 340 -517 334 -517 c 0,8,9
 173 -514 173 -514 40 -485 c 0,10,11
 9 -478 9 -478 8.48488812286 -453.811051356 c 0,12,13
 8 -440 8 -440 65.7890625 -402.438476562 c 0,14,15
 488 -128 488 -128 560 -1.42578125 c 1,16,-1
 472.478515625 -0.5302734375 l 2,17,18
 253 2 253 2 166.798828125 94.9326171875 c 0,19,20
 108 158 108 158 107.468329504 279.791514004 c 0,21,22
 107 369 107 369 145.46484375 502.396484375 c 0,23,24
 191 660 191 660 269.198242188 732.795898438 c 0,25,26
 334 794 334 794 432.115775055 793.521531758 c 0,27,28
 610 793 610 793 694.774414062 596.471679688 c 0,29,30
 754 458 754 458 764.279296875 324.479492188 c 1,31,-1
 877 324.264648438 l 2,32,33
 902.0078125 323.999917297 902.0078125 323.999917297 902.0078125 197 c 2,34,-1
 902.0078125 124 l 2,35,36
 902 0 902 0 877 0 c 2,37,-1
 752.053710938 0 l 17,0,1
585.087890625 317.495117188 m 1,38,39
 533 528 533 528 400.465028815 528.160148911 c 0,40,41
 312 528 312 528 285.198242188 442.6640625 c 0,42,43
 278 420 278 420 277.65591119 401.212621194 c 0,44,45
 278.001520802 318.63663702 278.001520802 318.63663702 414.063476562 318.130859375 c 2,46,-1
 585.087890625 317.495117188 l 1,38,39
EndSplineSet
EndChar

StartChar: uniFEF0
Encoding: 65264 65264 248
Width: 1539
VWidth: 3753
GlyphClass: 2
Flags: W
AnchorPoint: "Anchor-10" 730.206 793.074 basechar 0
AnchorPoint: "Anchor-7" 642.979 -744.538 basechar 0
LayerCount: 2
Fore
SplineSet
717.387695312 -244.624023438 m 0,0,1
 460 -245 460 -245 348.420898438 -106.60546875 c 0,2,3
 286 -30 286 -30 285.984375 105.047851562 c 0,4,5
 286 228 286 228 337.973632812 399.137695312 c 1,6,-1
 199.502929688 438.203125 l 1,7,8
 90 195 90 195 89.7646484375 -2.623046875 c 0,9,10
 90 -235 90 -235 224.629882812 -380.759765625 c 0,11,12
 377 -545 377 -545 719.056640625 -545.459960938 c 24,13,14
 1001 -545 1001 -545 1199.6171875 -402.669921875 c 0,15,16
 1375 -277 1375 -277 1375.66091558 -110.70079153 c 0,17,18
 1376 -48 1376 -48 1333.75292969 0 c 1,19,-1
 1544 0 l 2,20,21
 1569.0078125 0 1569.0078125 0 1569.0078125 124 c 2,22,-1
 1569.0078125 197 l 2,23,24
 1568.99998372 324.264648438 1568.99998372 324.264648438 1544 324.264648438 c 2,25,-1
 979.348632812 324.264648438 l 2,26,27
 879 324 879 324 853.547851562 53.962890625 c 0,28,29
 853 48 853 48 852.990998622 42.8939560022 c 0,30,31
 853 6 853 6 881.594726562 3.1611328125 c 0,32,33
 1134 -19 1134 -19 1178.95214844 -61.611328125 c 0,34,35
 1192 -74 1192 -74 1193.81445312 -90.14453125 c 0,36,37
 1196 -107 1196 -107 1171.7265625 -128.350585938 c 0,38,39
 1039 -245 1039 -245 717.387695312 -244.624023438 c 0,0,1
EndSplineSet
EndChar

StartChar: uniFEFB
Encoding: 65275 65275 259
Width: 1294
VWidth: 3713
GlyphClass: 3
Flags: W
AnchorPoint: "Anchor-9" 968.898 1606.79 baselig 0
AnchorPoint: "Anchor-6" 937.449 -171.557 baselig 0
AnchorPoint: "Anchor-6" 300.544 -256.293 baselig 1
AnchorPoint: "Anchor-9" 170.384 1519.48 baselig 1
LayerCount: 2
Fore
SplineSet
172.838867188 256.627929688 m 0,0,1
 95 257 95 257 94.30078125 214.795898438 c 0,2,3
 94 204 94 204 114.939453125 170.947265625 c 0,4,5
 155 107 155 107 287.138671875 -28.0380859375 c 1,6,7
 778 -28 778 -28 947 109 c 4,8,9
 1162.04223647 284.034378525 1162.04223647 284.034378525 1159.05761719 658.549804688 c 6,10,-1
 1152.53515625 1477 l 6,11,12
 1152.00450034 1532.52907385 1152.00450034 1532.52907385 1092.66015625 1495.52734375 c 6,13,-1
 870.794921875 1357.19238281 l 5,14,15
 919 925 919 925 919.615234375 585.104492188 c 4,16,17
 920 445 920 445 766.928710938 351.998046875 c 1,18,-1
 297.168945312 1367.31640625 l 1,19,-1
 80.83984375 1218.5859375 l 1,20,-1
 551.30078125 286.65625 l 1,21,22
 415 256 415 256 172.838867188 256.627929688 c 0,0,1
EndSplineSet
LCarets2: 1 0
Ligature2: "'rlig' Required Ligatures in Arabic lookup 16 subtable" uniFEDF uniFE8E
EndChar

StartChar: uniFEFC
Encoding: 65276 65276 260
Width: 1358
VWidth: 3713
GlyphClass: 3
Flags: W
AnchorPoint: "Anchor-9" 979.549 1642.62 baselig 0
AnchorPoint: "Anchor-6" 945.296 -200.599 baselig 0
AnchorPoint: "Anchor-6" 272.531 -247.661 baselig 1
AnchorPoint: "Anchor-9" 151.439 1542.33 baselig 1
LayerCount: 2
Fore
SplineSet
287.138671875 -28.0380859375 m 1,0,1
 155 107 155 107 114.939453125 170.947265625 c 0,2,3
 94 204 94 204 94.30078125 214.795898438 c 0,4,5
 94 257 94 257 172.838867188 256.627929688 c 0,6,7
 420 257 420 257 551.30078125 286.65625 c 1,8,-1
 80.83984375 1218.5859375 l 1,9,-1
 297.168945312 1367.31640625 l 1,10,-1
 766.928710938 351.998046875 l 1,11,12
 918 444 918 444 919.615234375 585.104492188 c 4,13,14
 924 840 924 840 870.794921875 1357.19238281 c 5,15,-1
 1093.7265625 1496.37792969 l 6,16,17
 1151.8687463 1532.91751332 1151.8687463 1532.91751332 1152.33789062 1475.85644531 c 6,18,-1
 1159.05761719 658.549804688 l 6,19,20
 1161 400 1161 400 1258.31054688 345.1953125 c 4,21,22
 1295.52940279 324.264648438 1295.52940279 324.264648438 1334.61132812 324.264648438 c 6,23,-1
 1363 324.264648438 l 6,24,25
 1388.0078125 323.999917297 1388.0078125 323.999917297 1388.0078125 197 c 6,26,-1
 1388.0078125 124 l 6,27,28
 1388 0 1388 0 1363 0 c 6,29,-1
 1304.27929688 0 l 6,30,31
 1080 0 1080 0 987.327148438 183.465820312 c 5,32,33
 778 -28 778 -28 287.138671875 -28.0380859375 c 1,0,1
EndSplineSet
LCarets2: 1 0
Ligature2: "'rlig' Required Ligatures in Arabic lookup 16 subtable" uniFEE0 uniFE8E
EndChar

StartChar: arabic_dot
Encoding: 65536 -1 261
Width: 233
VWidth: 3240
GlyphClass: 2
Flags: W
LayerCount: 2
Fore
SplineSet
116.03125 305.044921875 m 1,0,-1
 293.885742188 127.189453125 l 1,1,-1
 116.03125 -50.6669921875 l 1,2,-1
 -61.82421875 127.189453125 l 1,3,-1
 116.03125 305.044921875 l 1,0,-1
EndSplineSet
EndChar

StartChar: arabic_2dots
Encoding: 65537 -1 262
Width: 612
VWidth: 3240
GlyphClass: 2
Flags: W
LayerCount: 2
Fore
SplineSet
133.5390625 292.612304688 m 5,0,-1
 303.833984375 122.318359375 l 5,1,-1
 133.5390625 -47.9775390625 l 5,2,-1
 -36.7548828125 122.318359375 l 5,3,-1
 133.5390625 292.612304688 l 5,0,-1
477.002929688 292.612304688 m 1,4,-1
 647.297851562 122.318359375 l 1,5,-1
 477.002929688 -47.9775390625 l 1,6,-1
 306.709960938 122.318359375 l 1,7,-1
 477.002929688 292.612304688 l 1,4,-1
EndSplineSet
EndChar

StartChar: arabic_3dots
Encoding: 65538 -1 263
Width: 590
VWidth: 3240
GlyphClass: 2
Flags: W
LayerCount: 2
Fore
SplineSet
295.639648438 516.36328125 m 5,0,-1
 457.8671875 354.1328125 l 5,1,-1
 295.639648438 191.90234375 l 5,2,-1
 133.409179688 354.1328125 l 5,3,-1
 295.639648438 516.36328125 l 5,0,-1
282.094726562 97.564453125 m 1,4,-1
 119.8671875 -64.666015625 l 1,5,-1
 -42.36328125 97.564453125 l 1,6,-1
 119.8671875 259.793945312 l 1,7,-1
 282.094726562 97.564453125 l 1,4,-1
309.481445312 97.564453125 m 1,8,-1
 471.709960938 259.793945312 l 1,9,-1
 633.9375 97.564453125 l 1,10,-1
 471.709960938 -64.666015625 l 1,11,-1
 309.481445312 97.564453125 l 1,8,-1
EndSplineSet
EndChar

StartChar: arabic_3dots_a
Encoding: 65539 -1 264
Width: 636
VWidth: 3240
GlyphClass: 2
Flags: W
LayerCount: 2
Fore
SplineSet
318.874023438 -282.247070312 m 5,0,-1
 156.646484375 -120.016601562 l 5,1,-1
 318.874023438 42.2138671875 l 5,2,-1
 481.104492188 -120.016601562 l 5,3,-1
 318.874023438 -282.247070312 l 5,0,-1
332.418945312 136.552734375 m 1,4,-1
 494.646484375 298.782226562 l 1,5,-1
 656.876953125 136.552734375 l 1,6,-1
 494.646484375 -25.677734375 l 1,7,-1
 332.418945312 136.552734375 l 1,4,-1
305.032226562 136.552734375 m 1,8,-1
 142.8046875 -25.677734375 l 1,9,-1
 -19.423828125 136.552734375 l 1,10,-1
 142.8046875 298.782226562 l 1,11,-1
 305.032226562 136.552734375 l 1,8,-1
EndSplineSet
EndChar

StartChar: uni066E.fina
Encoding: 65540 -1 265
Width: 1967
VWidth: 3753
GlyphClass: 2
Flags: W
AnchorPoint: "Anchor-10" 1044.57 1800.45 basechar 0
AnchorPoint: "Anchor-7" 975.416 -367.902 basechar 0
LayerCount: 2
Fore
SplineSet
1972 0 m 2,0,-1
 1953.80078125 0 l 2,1,2
 1677 0 1677 0 1590.83105469 242.145507812 c 1,3,4
 1367 0 1367 0 850.345703125 0 c 4,5,6
 479 0 479 0 297.043945312 99.7861328125 c 4,7,8
 87 215 87 215 86.4307107669 489.08236073 c 4,9,10
 86 686 86 686 185.948242188 882.258789062 c 5,11,-1
 303.756835938 839.514648438 l 5,12,13
 271 721 271 721 271.442728632 634.133939525 c 4,14,15
 271 542 271 542 308.154296875 486.359375 c 4,16,17
 418 321 418 321 877.231260755 320.800656076 c 4,18,19
 1228 321 1228 321 1420.43554688 417.731445312 c 0,20,21
 1570 493 1570 493 1606.65625 651.729492188 c 1,22,-1
 1723.5078125 633.090820312 l 1,23,24
 1719 600 1719 600 1719.18730917 571.500190402 c 0,25,26
 1719 406 1719 406 1813 352 c 0,27,28
 1860.54631696 324.264648438 1860.54631696 324.264648438 1956.6875 324.264648438 c 2,29,-1
 1972 324.264648438 l 2,30,31
 1997.0078125 323.999917297 1997.0078125 323.999917297 1997.0078125 197 c 2,32,-1
 1997.0078125 124 l 2,33,34
 1997 0 1997 0 1972 0 c 2,0,-1
EndSplineSet
EndChar

StartChar: uni06A1.fina
Encoding: 65543 -1 266
Width: 1955
VWidth: 3748
GlyphClass: 2
Flags: W
AnchorPoint: "Anchor-10" 750.929 1980.5 basechar 0
AnchorPoint: "Anchor-7" 888.113 -452.891 basechar 0
LayerCount: 2
Fore
SplineSet
1960 0 m 2,0,-1
 1910.41796875 0 l 2,1,2
 1662 0 1662 0 1464.71582031 189.546875 c 1,3,4
 1219 0 1219 0 818.3359375 0 c 0,5,6
 481 0 481 0 297.099609375 99.755859375 c 0,7,8
 86 214 86 214 85.8241167549 487.694553991 c 0,9,10
 86 685 86 685 186.021484375 882.223632812 c 1,11,-1
 303.756835938 839.513671875 l 1,12,13
 271 720 271 720 271.44295745 633.135464654 c 0,14,15
 271 541 271 541 308.155273438 486.357421875 c 0,16,17
 420 320 420 320 849.143554688 319.80859375 c 0,18,19
 1080 320 1080 320 1249.46191406 361.790039062 c 1,20,21
 1149 477 1149 477 1148.98421585 631.995829731 c 0,22,23
 1149 743 1149 743 1224.34179688 857.125976562 c 0,24,25
 1330 1016 1330 1016 1481.56127837 1015.80784987 c 0,26,27
 1613 1016 1613 1016 1719.24316406 859.649414062 c 0,28,29
 1792 753 1792 753 1792.22460938 645.3984375 c 0,30,31
 1792 473 1792 473 1675.61621094 355.041992188 c 1,32,33
 1761.26353519 324.264648438 1761.26353519 324.264648438 1909.29101562 324.264648438 c 2,34,-1
 1960 324.264648438 l 2,35,36
 1985.0078125 323.999917297 1985.0078125 323.999917297 1985.0078125 197 c 6,37,-1
 1985.0078125 124 l 6,38,39
 1985 0 1985 0 1960 0 c 2,0,-1
1345.85644531 499.868164062 m 0,40,41
 1425.59378485 430.354133364 1425.59378485 430.354133364 1471.99588046 430.354133364 c 0,42,43
 1516.37345238 430.354133364 1516.37345238 430.354133364 1573.57714844 484.598632812 c 0,44,45
 1630.6467182 539.659154945 1630.6467182 539.659154945 1630.6467182 580.801704932 c 0,46,47
 1630.6467182 623.395471906 1630.6467182 623.395471906 1574.34375 676.025390625 c 0,48,49
 1519.70843837 728.278850869 1519.70843837 728.278850869 1463.69786931 728.278850869 c 0,50,51
 1412.33632601 728.278850869 1412.33632601 728.278850869 1360.98144531 672.4765625 c 0,52,53
 1310 617 1310 617 1309.91796875 573.798828125 c 0,54,55
 1310 531 1310 531 1345.85644531 499.868164062 c 0,40,41
EndSplineSet
EndChar

StartChar: uni06A1.init
Encoding: 65544 -1 267
Width: 832
VWidth: 3781
GlyphClass: 2
Flags: W
AnchorPoint: "Anchor-10" 487.044 2042.04 basechar 0
AnchorPoint: "Anchor-7" 434.877 -364.243 basechar 0
LayerCount: 2
Fore
SplineSet
-4.9921875 0 m 2,0,1
 -60 0 -60 0 -60 144 c 2,2,-1
 -60 177 l 2,3,4
 -60 324.264648438 -60 324.264648438 -4.9921875 324.264648438 c 2,5,-1
 169.006835938 324.264648438 l 2,6,7
 560.437954713 323.999703565 560.437954713 323.999703565 572.137695312 463.165039062 c 2,8,-1
 573.26953125 476.627929688 l 1,9,10
 457 458 457 458 382.253181914 458.278962025 c 0,11,12
 143.073899852 457.997735294 143.073899852 457.997735294 118.666015625 625.0625 c 0,13,14
 114 657 114 657 113.558179587 695.965102201 c 0,15,16
 114 753 114 753 124.7421875 824.473632812 c 0,17,18
 150 990 150 990 236.599609375 1091.97949219 c 0,19,20
 311 1179 311 1179 422.851467671 1178.66050932 c 0,21,22
 590 1179 590 1179 681.239769416 964 c 0,23,24
 751 799 751 799 751.366385855 547.067914619 c 0,25,26
 751 219 751 219 601.431640625 105.279296875 c 0,27,28
 462 0 462 0 193.461914062 0 c 2,29,-1
 -4.9921875 0 l 2,0,1
573.142578125 750.815429688 m 1,30,31
 529.289784594 936.450270576 529.289784594 936.450270576 392.164551268 936.450270576 c 0,32,33
 314.632313957 936.450270576 314.632313957 936.450270576 284.64453125 856.186523438 c 0,34,35
 273.979148875 828.402602908 273.979148875 828.402602908 273.979148875 806.319625077 c 0,36,37
 273.979148875 782.893438615 273.979148875 782.893438615 285.981445312 765.8828125 c 0,38,39
 311.5922638 730.852481054 311.5922638 730.852481054 412.743091051 730.852481054 c 0,40,41
 515.04728238 730.852481054 515.04728238 730.852481054 573.142578125 750.815429688 c 1,30,31
EndSplineSet
EndChar

StartChar: uni06A1.medi
Encoding: 65545 -1 268
Width: 1007
VWidth: 3748
GlyphClass: 2
Flags: W
AnchorPoint: "Anchor-10" 758.142 1701.72 basechar 0
AnchorPoint: "Anchor-7" 697.662 -357.303 basechar 0
LayerCount: 2
Fore
SplineSet
1012 0 m 2,0,-1
 950.23046875 0 l 2,1,2
 697 0 697 0 515.729492188 180.129882812 c 1,3,4
 321 0 321 0 38.2158203125 0 c 2,5,-1
 -4.9921875 0 l 2,6,7
 -60 0 -60 0 -60 144 c 6,8,-1
 -60 177 l 6,9,10
 -60 324.264648438 -60 324.264648438 -4.9921875 324.264648438 c 2,11,-1
 37.4912109375 324.264648438 l 2,12,13
 221 324 221 324 300.135742188 361.790039062 c 1,14,15
 201 477 201 477 201.00390625 629.083984375 c 0,16,17
 201 743 201 743 276.34765625 857.125976562 c 0,18,19
 382 1016 382 1016 533.934570312 1015.80761719 c 0,20,21
 663 1015 663 1015 771.249023438 859.649414062 c 0,22,23
 844 754 844 754 844.23046875 645.3984375 c 0,24,25
 844 479 844 479 728.956054688 355.041992188 c 1,26,27
 813.274958026 324.264648438 813.274958026 324.264648438 959.178710938 324.264648438 c 2,28,-1
 1012 324.264648438 l 2,29,30
 1037.0078125 323.999917297 1037.0078125 323.999917297 1037.0078125 197 c 2,31,-1
 1037.0078125 124 l 2,32,33
 1037 0 1037 0 1012 0 c 2,0,-1
397.86328125 499.868164062 m 0,34,35
 478 430 478 430 523.423828125 430.356445312 c 0,36,37
 568 430 568 430 625.583007812 484.598632812 c 0,38,39
 683 540 683 540 682.650390625 581.310546875 c 0,40,41
 682 624 682 624 626.349609375 676.025390625 c 0,42,43
 572 728 572 728 517.032226562 728.26953125 c 0,44,45
 465 729 465 729 412.98828125 672.4765625 c 0,46,47
 362 617 362 617 361.924804688 573.798828125 c 0,48,49
 362 531 362 531 397.86328125 499.868164062 c 0,34,35
EndSplineSet
EndChar

StartChar: uni066F.fina
Encoding: 65546 -1 269
Width: 1437
VWidth: 3781
GlyphClass: 2
Flags: W
AnchorPoint: "Anchor-10" 464.781 763.024 basechar 0
AnchorPoint: "Anchor-7" 386.041 -875.333 basechar 0
LayerCount: 2
Fore
SplineSet
688.890625 -234.623046875 m 0,0,1
 1043 -233 1043 -233 1122.01269531 -67.541015625 c 0,2,3
 1137 -36 1137 -36 1137.89453125 0.6376953125 c 1,4,-1
 1030.37304688 1.533203125 l 2,5,6
 812 3 812 3 724.693359375 96.99609375 c 0,7,8
 665 161 665 161 665.36328125 281.85546875 c 0,9,10
 665 372 665 372 703.359375 504.459960938 c 0,11,12
 749 662 749 662 827.092773438 734.859375 c 0,13,14
 892 796 892 796 990.010742188 795.584960938 c 0,15,16
 1166 795 1166 795 1247.66894531 598.53515625 c 0,17,18
 1295 484 1295 484 1308.54296875 324.264648438 c 1,19,-1
 1442 324.264648438 l 2,20,21
 1467.0078125 323.999917297 1467.0078125 323.999917297 1467.0078125 197 c 6,22,-1
 1467.0078125 124 l 6,23,24
 1467 0 1467 0 1442 0 c 2,25,-1
 1299.67773438 0 l 1,26,27
 1295 -144 1295 -144 1263.57910156 -222.739257812 c 0,28,29
 1139 -536 1139 -536 689.056640625 -535.459960938 c 0,30,31
 368 -535 368 -535 224.629882812 -380.759765625 c 0,32,33
 90 -235 90 -235 89.7646484375 -2.623046875 c 0,34,35
 90 195 90 195 199.502929688 438.203125 c 1,36,-1
 337.973632812 399.137695312 l 1,37,38
 286 228 286 228 285.984375 105.047851562 c 0,39,40
 286 -30 286 -30 348.420898438 -106.60546875 c 0,41,42
 452 -235 452 -235 688.890625 -234.623046875 c 0,0,1
1142.98242188 319.55859375 m 1,43,44
 1090.89453125 530.063476562 1090.89453125 530.063476562 958.359375 530.223632812 c 0,45,46
 869.89453125 530.063476562 869.89453125 530.063476562 843.092773438 444.727539062 c 0,47,48
 835.89453125 422.063476562 835.89453125 422.063476562 835.55078125 403.276367188 c 0,49,50
 835.896484375 320.700195312 835.896484375 320.700195312 971.958007812 320.194335938 c 2,51,-1
 1142.98242188 319.55859375 l 1,43,44
EndSplineSet
EndChar

StartChar: arabic_gaf_bar
Encoding: 65549 -1 270
Width: 788
VWidth: 3142
GlyphClass: 2
Flags: W
LayerCount: 2
Fore
SplineSet
740.447265625 2041.67871094 m 6,0,-1
 722 1950 l 5,1,-1
 28.01953125 1693.96972656 l 1,2,-1
 51 1813 l 1,3,-1
 716.8046875 2064.04492188 l 6,4,5
 747 2076 747 2076 740.447265625 2041.67871094 c 6,0,-1
EndSplineSet
EndChar

StartChar: guillemotleft
Encoding: 171 171 279
Width: 1340
VWidth: 3386
Flags: W
LayerCount: 2
Fore
SplineSet
960.73046875 -9.9189453125 m 1,0,1
 616 466 616 466 616.541992188 518.243164062 c 4,2,3
 617 582 617 582 960.686523438 1057.07910156 c 5,4,-1
 1205.86914062 1057.07910156 l 5,5,-1
 1155.76855469 984.846679688 l 6,6,7
 876 581 876 581 875.002929688 517.725585938 c 4,8,9
 875.000025354 465.456291781 875.000025354 465.456291781 1155.69042969 62.3857421875 c 2,10,-1
 1206.04199219 -9.9189453125 l 1,11,-1
 960.73046875 -9.9189453125 l 1,0,1
470.73046875 -9.9189453125 m 1,12,13
 126 466 126 466 126.541992188 518.243164062 c 4,14,15
 127 582 127 582 470.686523438 1057.07910156 c 5,16,-1
 715.869140625 1057.07910156 l 5,17,-1
 665.768554688 984.846679688 l 6,18,19
 386 581 386 581 385.002929688 517.725585938 c 4,20,21
 385.000025354 465.456291778 385.000025354 465.456291778 665.690429688 62.3857421875 c 2,22,-1
 716.041992188 -9.9189453125 l 1,23,-1
 470.73046875 -9.9189453125 l 1,12,13
EndSplineSet
EndChar

StartChar: guillemotright
Encoding: 187 187 280
Width: 1340
VWidth: 3386
Flags: W
LayerCount: 2
Fore
SplineSet
371.850585938 -9.9189453125 m 1,0,1
 126.5390625 -9.9189453125 l 1,2,-1
 176.890625 62.3857421875 l 2,3,4
 458 466 458 466 457.578125 517.725585938 c 4,5,6
 457.001047174 580.88538931 457.001047174 580.88538931 176.8125 984.846679688 c 6,7,-1
 126.711914062 1057.07910156 l 5,8,-1
 371.89453125 1057.07910156 l 5,9,10
 716 582 716 582 716.0390625 518.243164062 c 4,11,12
 717 466 717 466 371.850585938 -9.9189453125 c 1,0,1
861.850585938 -9.9189453125 m 1,13,-1
 616.5390625 -9.9189453125 l 1,14,-1
 666.890625 62.3857421875 l 2,15,16
 948 466 948 466 947.578125 517.725585938 c 4,17,18
 947.001047174 580.88538931 947.001047174 580.88538931 666.8125 984.846679688 c 6,19,-1
 616.711914062 1057.07910156 l 5,20,-1
 861.89453125 1057.07910156 l 5,21,22
 1206 582 1206 582 1206.0390625 518.243164062 c 4,23,24
 1207 466 1207 466 861.850585938 -9.9189453125 c 1,13,-1
EndSplineSet
EndChar

StartChar: exclam
Encoding: 33 33 289
Width: 713
VWidth: 9
Flags: W
LayerCount: 2
Fore
SplineSet
180.665039062 175.999023438 m 128,-1,1
 180.665039062 249.598632812 180.665039062 249.598632812 231.864257812 300.797851562 c 128,-1,2
 283.064453125 351.998046875 283.064453125 351.998046875 356.6640625 351.998046875 c 128,-1,3
 430.263671875 351.998046875 430.263671875 351.998046875 481.462890625 300.797851562 c 128,-1,4
 532.663085938 249.598632812 532.663085938 249.598632812 532.663085938 175.999023438 c 128,-1,5
 532.663085938 102.399414062 532.663085938 102.399414062 481.462890625 51.19921875 c 128,-1,6
 430.263671875 0 430.263671875 0 356.6640625 0 c 128,-1,7
 283.064453125 0 283.064453125 0 231.864257812 51.19921875 c 128,-1,0
 180.665039062 102.399414062 180.665039062 102.399414062 180.665039062 175.999023438 c 128,-1,1
450.784179688 619.147460938 m 2,8,9
 445.303291536 552.530273438 445.303291536 552.530273438 396.850585938 552.530273438 c 2,10,-1
 323.251953125 552.530273438 l 2,11,12
 268.796830565 553.00175909 268.796830565 553.00175909 262.481445312 619.794921875 c 2,13,-1
 195.822265625 1324.79980469 l 6,14,15
 178.007213358 1512.92382812 178.007213358 1512.92382812 342 1512.92382812 c 6,16,-1
 370.6640625 1512.92382812 l 6,17,18
 524.325361188 1513.00016163 524.325361188 1513.00016163 508.890625 1325.39941406 c 6,19,-1
 450.784179688 619.147460938 l 2,8,9
EndSplineSet
EndChar

StartChar: period
Encoding: 46 46 290
Width: 711
VWidth: 3395
Flags: W
LayerCount: 2
Fore
SplineSet
179.998046875 175.999023438 m 128,-1,1
 179.998046875 249.598632812 179.998046875 249.598632812 231.197265625 300.797851562 c 128,-1,2
 282.397460938 351.998046875 282.397460938 351.998046875 355.997070312 351.998046875 c 128,-1,3
 429.596679688 351.998046875 429.596679688 351.998046875 480.795898438 300.797851562 c 128,-1,4
 531.995117188 249.598632812 531.995117188 249.598632812 531.995117188 175.999023438 c 128,-1,5
 531.995117188 102.399414062 531.995117188 102.399414062 480.795898438 51.19921875 c 128,-1,6
 429.596679688 0 429.596679688 0 355.997070312 0 c 128,-1,7
 282.397460938 0 282.397460938 0 231.197265625 51.19921875 c 128,-1,0
 179.998046875 102.399414062 179.998046875 102.399414062 179.998046875 175.999023438 c 128,-1,1
EndSplineSet
EndChar

StartChar: colon
Encoding: 58 58 291
Width: 712
VWidth: 3395
Flags: W
LayerCount: 2
Fore
SplineSet
180.331054688 1018.66015625 m 128,-1,1
 180.331054688 1092.25976562 180.331054688 1092.25976562 231.53125 1143.45996094 c 128,-1,2
 282.73046875 1194.65917969 282.73046875 1194.65917969 356.330078125 1194.65917969 c 128,-1,3
 429.9296875 1194.65917969 429.9296875 1194.65917969 481.12890625 1143.45996094 c 128,-1,4
 532.329101562 1092.25976562 532.329101562 1092.25976562 532.329101562 1018.66015625 c 128,-1,5
 532.329101562 945.060546875 532.329101562 945.060546875 481.12890625 893.861328125 c 128,-1,6
 429.9296875 842.661132812 429.9296875 842.661132812 356.330078125 842.661132812 c 128,-1,7
 282.73046875 842.661132812 282.73046875 842.661132812 231.53125 893.861328125 c 128,-1,0
 180.331054688 945.060546875 180.331054688 945.060546875 180.331054688 1018.66015625 c 128,-1,1
180.331054688 175.999023438 m 128,-1,9
 180.331054688 249.598632812 180.331054688 249.598632812 231.53125 300.797851562 c 128,-1,10
 282.73046875 351.998046875 282.73046875 351.998046875 356.330078125 351.998046875 c 128,-1,11
 429.9296875 351.998046875 429.9296875 351.998046875 481.12890625 300.797851562 c 128,-1,12
 532.329101562 249.598632812 532.329101562 249.598632812 532.329101562 175.999023438 c 128,-1,13
 532.329101562 102.399414062 532.329101562 102.399414062 481.12890625 51.19921875 c 128,-1,14
 429.9296875 0 429.9296875 0 356.330078125 0 c 128,-1,15
 282.73046875 0 282.73046875 0 231.53125 51.19921875 c 128,-1,8
 180.331054688 102.399414062 180.331054688 102.399414062 180.331054688 175.999023438 c 128,-1,9
EndSplineSet
EndChar

StartChar: uniFDFC
Encoding: 65020 65020 292
Width: 2750
VWidth: 3741
Flags: W
LayerCount: 2
Fore
SplineSet
2599.30761719 192 m 8,0,1
 2568 -84 2568 -84 2378 -269 c 0,2,3
 2329 -317 2329 -317 2290.75390625 -325.116210938 c 0,4,5
 2265 -331 2265 -331 2204.75390625 -330 c 0,6,7
 2067 -329 2067 -329 1930.75390625 -298 c 0,8,9
 1900 -291 1900 -291 1899.24707031 -267.291992188 c 0,10,11
 1899 -253 1899 -253 1956.54296875 -215.438476562 c 0,12,13
 2332 26 2332 26 2438.67578125 207.362304688 c 0,14,15
 2479 276 2479 276 2251.75195312 521 c 1,16,-1
 2413.18652344 746 l 2,17,18
 2420 755 2420 755 2430 744 c 0,19,20
 2604 556 2604 556 2604.87792969 291 c 0,21,22
 2605 243 2605 243 2599.30761719 192 c 8,0,1
1967.44824219 343.330078125 m 1,23,-1
 2138.10839844 172.669921875 l 1,24,-1
 1967.44824219 2.0068359375 l 1,25,-1
 1808.68457031 160.7734375 l 1,26,-1
 1649.91992188 2.0068359375 l 1,27,-1
 1479.25976562 172.669921875 l 1,28,-1
 1649.91992188 343.330078125 l 1,29,-1
 1808.68457031 184.56640625 l 1,30,-1
 1967.44824219 343.330078125 l 1,23,-1
1926.19921875 797.217773438 m 0,31,32
 1957 835 1957 835 1938.13769531 881.365234375 c 0,33,34
 1910 951 1910 951 1884.375 1031.26660156 c 1,35,-1
 1995.75 1171.41992188 l 2,36,37
 2029 1214 2029 1214 2045.38085938 1199 c 0,38,39
 2051 1194 2051 1194 2054.35449219 1187.49804688 c 0,40,41
 2144 1021 2144 1021 2134.375 827.397460938 c 0,42,43
 2125 646 2125 646 2018.71386719 549.75390625 c 0,44,45
 1912.13964844 453.125976562 1912.13964844 453.125976562 1791.74511719 453.330078125 c 2,46,-1
 1680.88671875 453.517578125 l 2,47,48
 1455 454 1455 454 1392.65625 638 c 0,49,50
 1352 759 1352 759 1353.72949219 1007.72558594 c 0,51,52
 1357 1329 1357 1329 1332.015625 1443.97851562 c 1,53,-1
 1518 1530.81054688 l 2,54,55
 1562.05664062 1551.02539062 1562.05664062 1551.02539062 1561.72363281 1507.05664062 c 2,56,-1
 1559.15625 1167.80566406 l 0,57,58
 1556 863 1556 863 1591.55078125 808.68359375 c 0,59,60
 1625.82910156 756.26171875 1625.82910156 756.26171875 1694.11035156 756.26171875 c 2,61,-1
 1788.78125 756.26171875 l 2,62,63
 1894 756 1894 756 1926.19921875 797.217773438 c 0,31,32
1154.16699219 342.814453125 m 0,64,65
 1124 64 1124 64 935.348632812 -74.02734375 c 0,66,67
 810 -165 810 -165 630.852539062 -164.65625 c 0,68,69
 377 -164 377 -164 256.06640625 -32.4033203125 c 0,70,71
 135 100 135 100 135.264648438 319.998046875 c 0,72,73
 136 541 136 541 242.430664062 775.081054688 c 1,74,-1
 369.387695312 733.666015625 l 1,75,76
 262 391 262 391 377.2421875 248.737304688 c 0,77,78
 461 146 461 146 633.591796875 147.262695312 c 0,79,80
 855 149 855 149 932.59375 274.9375 c 0,81,82
 964 326 964 326 961.384765625 419.935546875 c 0,83,84
 951 723 951 723 890.811523438 1432.48144531 c 1,85,-1
 1081.7265625 1516.671875 l 2,86,87
 1126.109375 1536.04785156 1126.109375 1536.04785156 1128.08105469 1480.390625 c 2,88,-1
 1148.57421875 901.916015625 l 1,89,90
 1151 775 1151 775 1156.40429688 594.002929688 c 0,91,92
 1162 412 1162 412 1154.16699219 342.814453125 c 0,64,65
EndSplineSet
EndChar

StartChar: uniFD3E
Encoding: 64830 64830 294
Width: 1478
VWidth: 10
Flags: W
LayerCount: 2
Fore
SplineSet
772.205078125 724.634765625 m 0,0,1
 703.193359375 724.634765625 703.193359375 724.634765625 703.193359375 661.3828125 c 0,2,3
 703.193359375 618.80078125 703.193359375 618.80078125 742.145507812 602.638671875 c 0,4,5
 753.012695312 598.129882812 753.012695312 598.129882812 766.155273438 598.129882812 c 0,6,7
 829.69921875 598.129882812 829.69921875 598.129882812 829.69921875 671.806640625 c 0,8,9
 829.69921875 694.623046875 829.69921875 694.623046875 808.107421875 709.62890625 c 128,-1,10
 786.516601562 724.634765625 786.516601562 724.634765625 772.205078125 724.634765625 c 0,0,1
864.408203125 832.228515625 m 0,11,12
 963.03125 774.65625 963.03125 774.65625 963.03125 649.001953125 c 0,13,14
 963.03125 580.009765625 963.03125 580.009765625 905.42578125 522.404296875 c 128,-1,15
 847.8203125 464.796875 847.8203125 464.796875 766.446289062 464.796875 c 128,-1,16
 685.071289062 464.796875 685.071289062 464.796875 627.465820312 522.403320312 c 128,-1,17
 569.861328125 580.0078125 569.861328125 580.0078125 569.861328125 661.3828125 c 128,-1,18
 569.861328125 742.766601562 569.861328125 742.766601562 627.466796875 800.362304688 c 128,-1,19
 685.071289062 857.967773438 685.071289062 857.967773438 752.69140625 857.967773438 c 128,-1,20
 820.310546875 857.967773438 820.310546875 857.967773438 864.408203125 832.228515625 c 0,11,12
720.759765625 197.036132812 m 0,21,22
 775.326171875 -44.2021484375 775.326171875 -44.2021484375 937.100585938 -215.504882812 c 2,23,-1
 979.188476562 -260.072265625 l 1,24,-1
 954.627929688 -203.907226562 l 2,25,26
 867.194335938 -4.2666015625 867.194335938 -4.2666015625 833.46875 194.563476562 c 0,27,28
 827.66796875 228.616210938 827.66796875 228.616210938 852.03515625 252.982421875 c 2,29,-1
 893.502929688 294.450195312 l 2,30,31
 913.447265625 313.9765625 913.447265625 313.9765625 940.643554688 313.9765625 c 2,32,-1
 1121.3828125 313.9765625 l 1,33,-1
 1121.3828125 1025.34277344 l 1,34,-1
 940.643554688 1025.34277344 l 2,35,36
 913.309570312 1025.0625 913.309570312 1025.0625 893.502929688 1044.86914062 c 2,37,-1
 848.9921875 1089.37988281 l 2,38,39
 824.528320312 1113.59277344 824.528320312 1113.59277344 830.302734375 1147.04199219 c 0,40,41
 870.439453125 1392.26464844 870.439453125 1392.26464844 968.153320312 1608.12109375 c 2,42,-1
 992.721679688 1662.39453125 l 1,43,-1
 950.848632812 1620.01660156 l 2,44,45
 773.821289062 1440.53515625 773.821289062 1440.53515625 710.297851562 1133.72753906 c 0,46,47
 706.26953125 1113.23925781 706.26953125 1113.23925781 691.915039062 1098.88574219 c 2,48,-1
 637.8984375 1044.86914062 l 2,49,50
 618.936523438 1025.34277344 618.936523438 1025.34277344 590.7578125 1025.34277344 c 2,51,-1
 410.018554688 1025.34277344 l 1,52,-1
 410.018554688 844.6015625 l 2,53,54
 409.58984375 816.55859375 409.58984375 816.55859375 390.4921875 797.461914062 c 2,55,-1
 262.689453125 669.659179688 l 1,56,-1
 390.491210938 541.858398438 l 2,57,58
 410.018554688 522.240234375 410.018554688 522.240234375 410.018554688 494.717773438 c 2,59,-1
 410.018554688 313.9765625 l 1,60,-1
 590.7578125 313.9765625 l 2,61,62
 618.75 313.596679688 618.75 313.596679688 637.897460938 294.450195312 c 2,63,-1
 702.876953125 229.473632812 l 2,64,65
 716.795898438 215.46484375 716.795898438 215.46484375 720.759765625 197.036132812 c 0,21,22
595.111328125 148.676757812 m 1,66,-1
 563.14453125 180.643554688 l 1,67,-1
 343.3515625 180.643554688 l 2,68,69
 319.998046875 180.265625 319.998046875 180.265625 297.857421875 200.02734375 c 0,70,71
 276.685546875 218.301757812 276.685546875 218.301757812 276.685546875 247.309570312 c 2,72,-1
 276.685546875 467.104492188 l 1,73,-1
 121.268554688 622.517578125 l 2,74,75
 73.966796875 669.498046875 73.966796875 669.498046875 121.268554688 716.799804688 c 2,76,-1
 276.685546875 872.215820312 l 1,77,-1
 276.685546875 1092.00878906 l 2,78,79
 276.264648438 1115.7265625 276.264648438 1115.7265625 295.694335938 1137.26464844 c 0,80,81
 314.91796875 1158.67480469 314.91796875 1158.67480469 343.3515625 1158.67480469 c 2,82,-1
 563.14453125 1158.67480469 l 1,83,-1
 583.202148438 1178.734375 l 1,84,85
 702.928710938 1771.72265625 702.928710938 1771.72265625 1197.37988281 1915.10742188 c 0,86,87
 1243.72558594 1928.52148438 1243.72558594 1928.52148438 1263.66796875 1881.65429688 c 0,88,89
 1273.59179688 1857.0546875 1273.59179688 1857.0546875 1264.06933594 1804.26367188 c 1,90,91
 1192.52636719 1739.72265625 1192.52636719 1739.72265625 1155.64160156 1676.62597656 c 0,92,93
 1118.92675781 1613.85644531 1118.92675781 1613.85644531 1101.62011719 1578.4921875 c 0,94,95
 1006.92675781 1383.45800781 1006.92675781 1383.45800781 967.353515625 1158.67480469 c 1,96,-1
 1188.04882812 1158.67480469 l 2,97,98
 1223.45898438 1158.39257812 1223.45898438 1158.39257812 1239.33398438 1135.01660156 c 0,99,100
 1254.71484375 1110.95410156 1254.71484375 1110.95410156 1254.71484375 1092.00878906 c 2,101,-1
 1254.71484375 247.309570312 l 2,102,103
 1254.39257812 223.999023438 1254.39257812 223.999023438 1235.70605469 202.055664062 c 0,104,105
 1217.3828125 180.643554688 1217.3828125 180.643554688 1188.04882812 180.643554688 c 2,106,-1
 971.369140625 180.643554688 l 1,107,108
 1052.79296875 -241.065429688 1052.79296875 -241.065429688 1258.48339844 -407.157226562 c 0,109,110
 1323.72460938 -459.73046875 1323.72460938 -459.73046875 1202.02050781 -524.26953125 c 1,111,112
 722.12890625 -382.930664062 722.12890625 -382.930664062 595.111328125 148.676757812 c 1,66,-1
EndSplineSet
EndChar

